<svg width="27" height="28" viewBox="0 0 27 28" fill="none" xmlns="http://www.w3.org/2000/svg">
<circle cx="13.6165" cy="13.9203" r="8.5" transform="rotate(-51.2661 13.6165 13.9203)" stroke="white" stroke-width="2"></circle>
<mask id="path-2-inside-1" fill="currentColor">
<path fill-rule="evenodd" clip-rule="evenodd" d="M25.4473 24.6922L19.9869 20.3123L21.2383 18.7522L26.6987 23.1321L25.4473 24.6922Z"></path>
</mask>
<path fill-rule="evenodd" clip-rule="evenodd" d="M25.4473 24.6922L19.9869 20.3123L21.2383 18.7522L26.6987 23.1321L25.4473 24.6922Z" fill="currentColor"></path>
<path d="M16.753 15.184L12.8639 11.2958C13.9071 10.0967 14.5387 8.53215 14.5387 6.82217C14.5387 3.05809 11.4764 0 7.71504 0C3.95013 0 0.891357 3.06164 0.891357 6.82217C0.891357 10.5827 3.95368 13.6443 7.71504 13.6443C9.4254 13.6443 10.9903 13.0129 12.1897 11.9698L16.0788 15.8581C16.171 15.9503 16.2952 16 16.4159 16C16.5365 16 16.6607 15.9539 16.753 15.8581C16.9375 15.6736 16.9375 15.3685 16.753 15.184ZM1.84589 6.82217C1.84589 3.5867 4.47885 0.957871 7.71149 0.957871C10.9477 0.957871 13.5771 3.59024 13.5771 6.82217C13.5771 10.0541 10.9477 12.69 7.71149 12.69C4.47885 12.69 1.84589 10.0576 1.84589 6.82217Z" fill="currentColour"></path>
</svg>