<svg width="194" height="27" viewBox="0 0 194 27" fill="none" xmlns="http://www.w3.org/2000/svg">
<path d="M32.04 10.1769C31.2278 10.2148 30.4226 10.3458 29.6401 10.567L29.4501 12.0971C30.1085 11.8401 30.8042 11.6915 31.5101 11.6571C32.3001 11.6571 32.7701 11.807 32.6101 12.477C30.2501 12.477 28.6101 12.957 28.3301 14.477C27.8601 17.097 30.7301 17.0171 31.8801 15.8871L31.7401 16.517H33.85L34.7501 12.3571C35.1201 10.5971 33.51 10.1569 32.04 10.1769ZM32.1801 14.4469C32.1257 14.6937 31.985 14.9129 31.7833 15.0651C31.5817 15.2173 31.3323 15.2925 31.0801 15.277C30.9696 15.2961 30.856 15.2828 30.753 15.2387C30.65 15.1946 30.5619 15.1216 30.4995 15.0285C30.437 14.9354 30.403 14.8263 30.4013 14.7143C30.3996 14.6022 30.4304 14.492 30.4901 14.3971C30.6492 14.2159 30.8492 14.0749 31.0735 13.9862C31.2978 13.8976 31.54 13.8637 31.7801 13.8871H32.29C32.25 14.0371 32.2301 14.2569 32.1801 14.4469Z" fill="#13699C"/>
<path d="M36.55 8.53711L34.8 16.5371H36.95L38.71 8.53711H36.55Z" fill="#13699C"/>
<path d="M26.7501 8.55724H22.8401L21.1101 16.5572H23.3801L23.9701 13.9073H25.5901C26.3558 13.9319 27.1048 13.6808 27.7012 13.2001C28.2975 12.7193 28.7017 12.0406 28.8401 11.2872C28.9416 10.9656 28.9641 10.6243 28.9058 10.2921C28.8474 9.95992 28.7099 9.64657 28.5049 9.37877C28.2999 9.11097 28.0333 8.89654 27.7279 8.75353C27.4225 8.61051 27.0871 8.54322 26.7501 8.55724ZM26.6801 11.2772C26.6037 11.577 26.4334 11.8445 26.1942 12.0406C25.9549 12.2367 25.6591 12.3513 25.3501 12.3673H24.3001L24.7701 10.1871H25.9001C26.0306 10.1871 26.1592 10.2188 26.2748 10.2792C26.3905 10.3395 26.4899 10.427 26.5645 10.534C26.6391 10.6411 26.6868 10.7645 26.7034 10.8939C26.7201 11.0233 26.7052 11.1548 26.6601 11.2772H26.6801Z" fill="#13699C"/>
<path d="M11.5502 10.1769C10.7508 10.212 9.95846 10.3431 9.19023 10.567L9.00023 12.0971C9.63722 11.8384 10.3135 11.6897 11.0002 11.6571C11.7802 11.6571 12.2502 11.807 12.1102 12.477C9.78021 12.477 8.21024 12.957 7.89024 14.477C7.42024 17.097 10.2702 17.0171 11.3702 15.8871L11.2302 16.517H13.3403L14.2302 12.3571C14.6302 10.5971 13.0102 10.1569 11.5502 10.1769ZM11.7202 14.4469C11.6637 14.6945 11.5211 14.914 11.3178 15.0661C11.1144 15.2181 10.8636 15.2929 10.6102 15.277C10.5004 15.2962 10.3875 15.2821 10.2857 15.2367C10.1839 15.1913 10.098 15.1166 10.039 15.0221C9.97993 14.9276 9.95042 14.8178 9.95421 14.7065C9.95799 14.5951 9.99489 14.4874 10.0602 14.3971C10.2132 14.2191 10.4064 14.0798 10.6237 13.9911C10.841 13.9024 11.0764 13.8669 11.3102 13.8871H11.8403C11.7936 14.0707 11.7634 14.258 11.7502 14.4469H11.7202Z" fill="#17426A"/>
<path d="M15.1802 10.2971H17.2702L17.6102 14.0071L19.6702 10.2971H21.8402L16.8402 19.1871H14.4902L16.0302 16.5671L15.1802 10.2971Z" fill="#17426A"/>
<path d="M6.34021 8.55715H2.42017L0.680176 16.5572H2.98016L3.54016 13.9072H5.18018C5.94362 13.9273 6.68924 13.6746 7.28308 13.1944C7.87692 12.7142 8.28006 12.0379 8.42017 11.2871C8.52877 10.9661 8.55693 10.6235 8.50214 10.2891C8.44734 9.95468 8.31126 9.63871 8.1059 9.36916C7.90053 9.09962 7.63215 8.88453 7.32428 8.74294C7.01641 8.60135 6.67852 8.53764 6.34021 8.55715ZM6.2702 11.2771C6.19771 11.5753 6.03119 11.8423 5.79529 12.0386C5.55938 12.2349 5.26662 12.3501 4.96021 12.3672H3.88019L4.37018 10.187H5.50018C5.63149 10.1847 5.76133 10.2147 5.8783 10.2744C5.99527 10.3341 6.09579 10.4218 6.1709 10.5296C6.24601 10.6373 6.29345 10.7617 6.30902 10.8921C6.3246 11.0225 6.30782 11.1547 6.26019 11.2771H6.2702Z" fill="#17426A"/>
<path d="M39.17 9.55713V8.61719H38.8201V8.48706H39.67V8.61719H39.3301V9.55713H39.1801H39.17Z" fill="#17426A"/>
<path d="M39.8101 9.55713V8.48706H40.0201L40.2701 9.23706C40.2737 9.29033 40.2737 9.34394 40.2701 9.39722L40.3301 9.22705L40.5901 8.47705H40.7801V9.54712H40.6401V8.65723L40.3201 9.54712H40.2501L39.9401 8.63721V9.54712H39.8101V9.55713Z" fill="#17426A"/>
<path d="M66.6401 6.97705L64.4501 20.4072H67.9401L70.1301 6.97705H66.6401ZM61.5201 6.97705L58.1801 16.217L57.79 14.217L57.7101 13.7671C56.9882 12.2389 55.9281 10.895 54.61 9.83716C54.1154 9.44187 53.5942 9.08094 53.05 8.75708L56.05 20.3972H59.7501L65.3101 6.96704H61.55L61.5201 6.97705ZM75.17 10.707C75.17 9.18703 78.5801 9.38703 80.0701 10.207L80.5701 7.31714C79.5583 6.95341 78.4948 6.75413 77.42 6.72705C75.69 6.72705 71.5601 7.47699 71.5601 11.167C71.5601 14.637 76.4001 14.6771 76.4001 16.5071C76.4001 18.3371 72.0601 18.0072 70.6301 16.8472L70.11 19.8472C71.3768 20.3723 72.7391 20.6278 74.11 20.5972C76.49 20.5972 80.11 19.3571 80.11 15.9971C80.11 12.6371 75.16 12.217 75.16 10.697L75.17 10.707ZM89.4401 6.97705H86.6301C86.2904 6.95204 85.9516 7.0354 85.6624 7.21509C85.3731 7.39477 85.1482 7.66151 85.0201 7.97705L79.7501 20.4072H83.3901L84.1201 18.4072H88.5601L88.97 20.4072H92.1801L89.4401 6.97705ZM85.1801 15.6572L87.0201 10.6572L88.0201 15.6572H85.1501H85.1801Z" fill="#084598"/>
<path d="M56.6503 8.23724C56.5749 7.85867 56.3582 7.523 56.0444 7.29828C55.7305 7.07356 55.3429 6.97668 54.9603 7.02728H49.3502L49.2803 7.24725C51.2097 7.72965 53.0135 8.6197 54.5703 9.85736C56.0418 11.0125 57.1748 12.5427 57.8502 14.2873L56.6503 8.23724Z" fill="#EE9918"/>
<path d="M112.25 26.4771C119.458 26.4771 125.3 20.733 125.3 13.6471C125.3 6.56133 119.458 0.817139 112.25 0.817139C105.043 0.817139 99.2002 6.56133 99.2002 13.6471C99.2002 20.733 105.043 26.4771 112.25 26.4771Z" fill="#E10023"/>
<path d="M129.75 0.827211C126.518 0.820402 123.397 2.0021 120.98 4.14728C120.509 4.56571 120.071 5.0203 119.67 5.50714H122.31C122.672 5.93844 123.006 6.39283 123.31 6.86725H118.75C118.471 7.304 118.221 7.75814 118 8.22711H124.13C124.338 8.67005 124.522 9.12417 124.68 9.58722H117.44C117.289 10.0335 117.163 10.4874 117.06 10.9471H125.06C125.548 13.2032 125.417 15.5496 124.68 17.7371H117.44C117.598 18.2002 117.782 18.6543 117.99 19.0972H124.12C123.898 19.5652 123.647 20.0192 123.37 20.4571H118.74C119.041 20.9336 119.375 21.3882 119.74 21.8172H122.38C121.974 22.302 121.533 22.7565 121.06 23.1771C123.476 25.3239 126.598 26.5058 129.83 26.4971C133.234 26.4865 136.495 25.1241 138.894 22.7095C141.294 20.295 142.636 17.0262 142.625 13.6221C142.614 10.2181 141.252 6.9577 138.837 4.55817C136.423 2.15864 133.154 0.816602 129.75 0.827211Z" fill="#F59E26"/>
<path d="M141.09 20.7971C141.09 20.6857 141.134 20.579 141.213 20.5002C141.292 20.4215 141.399 20.3772 141.51 20.3772C141.621 20.3772 141.728 20.4215 141.807 20.5002C141.886 20.579 141.93 20.6857 141.93 20.7971C141.93 20.8518 141.919 20.9059 141.898 20.9563C141.877 21.0067 141.846 21.0524 141.806 21.0906C141.767 21.1288 141.721 21.1587 141.67 21.1787C141.619 21.1987 141.565 21.2084 141.51 21.207C141.4 21.2071 141.295 21.1643 141.217 21.0876C141.138 21.011 141.093 20.9068 141.09 20.7971ZM141.52 21.1172C141.583 21.1172 141.645 21.0984 141.698 21.0632C141.75 21.0281 141.791 20.9782 141.816 20.9197C141.84 20.8612 141.846 20.7967 141.834 20.7346C141.822 20.6725 141.791 20.6156 141.746 20.5708C141.702 20.526 141.645 20.4955 141.583 20.4832C141.52 20.4708 141.456 20.4772 141.398 20.5015C141.339 20.5257 141.289 20.5668 141.254 20.6194C141.219 20.672 141.2 20.7338 141.2 20.7971C141.199 20.8395 141.206 20.8817 141.222 20.9211C141.237 20.9606 141.261 20.9964 141.291 21.0264C141.321 21.0564 141.357 21.0801 141.396 21.0957C141.435 21.1113 141.478 21.1186 141.52 21.1172ZM141.46 20.9771H141.38V20.6172H141.54C141.569 20.608 141.601 20.608 141.63 20.6172C141.636 20.6313 141.64 20.6466 141.64 20.6621C141.64 20.6776 141.636 20.6929 141.63 20.707C141.629 20.7274 141.622 20.7471 141.609 20.7632C141.597 20.7793 141.58 20.791 141.56 20.7971L141.63 20.957H141.54L141.48 20.8171H141.41V20.957L141.46 20.9771ZM141.46 20.7771H141.56H141.46V20.8672V20.7771Z" fill="#F59E26"/>
<path d="M109.2 15.0371H108.88C108.08 15.0371 107.67 15.3072 107.67 15.8472C107.663 15.9173 107.671 15.9881 107.693 16.0549C107.716 16.1217 107.753 16.1829 107.801 16.2341C107.85 16.2854 107.909 16.3256 107.974 16.3521C108.039 16.3785 108.11 16.3905 108.18 16.3872C108.336 16.3664 108.486 16.3147 108.622 16.2354C108.758 16.156 108.877 16.0506 108.972 15.925C109.067 15.7995 109.136 15.6563 109.175 15.5039C109.214 15.3515 109.223 15.1928 109.2 15.0371ZM110.2 17.3972H109.03V16.8472C108.851 17.0628 108.624 17.233 108.367 17.3442C108.11 17.4554 107.83 17.5044 107.55 17.4871C107.368 17.4852 107.189 17.4454 107.023 17.3704C106.857 17.2953 106.709 17.1867 106.588 17.0513C106.467 16.9158 106.375 16.7566 106.318 16.5837C106.262 16.4109 106.242 16.2281 106.26 16.0471C106.26 14.7571 107.17 14.0471 108.75 14.0471C108.91 14.0471 109.11 14.0471 109.33 14.0471C109.366 13.9372 109.386 13.8226 109.39 13.707C109.39 13.357 109.15 13.2271 108.48 13.2271C107.97 13.2213 107.463 13.3024 106.98 13.467C106.98 13.387 107.18 12.2771 107.18 12.2771C107.729 12.0983 108.303 12.0039 108.88 11.9971C110.1 11.9971 110.74 12.5371 110.74 13.5571C110.725 13.8925 110.689 14.2265 110.63 14.5571C110.54 15.3671 110.28 17.0372 110.24 17.4072L110.2 17.3972Z" fill="#042560"/>
<path d="M105.71 17.4072H104.29L105.1 12.4072L103.3 17.4072H102.33L102.21 12.4372L101.36 17.4072H100.03L101.14 10.9072H103.17L103.3 14.5472L104.54 10.9072H106.81L105.71 17.4072Z" fill="#042560"/>
<path d="M131.53 15.0371H131.21C130.41 15.0371 130 15.3072 130 15.8472C129.993 15.9164 130.001 15.9864 130.023 16.0525C130.045 16.1185 130.081 16.1791 130.128 16.2302C130.175 16.2813 130.233 16.3218 130.297 16.3489C130.361 16.3759 130.431 16.389 130.5 16.3872C130.657 16.3676 130.808 16.3168 130.945 16.238C131.082 16.1592 131.202 16.0539 131.298 15.9282C131.394 15.8025 131.464 15.6588 131.504 15.5059C131.544 15.3529 131.553 15.1936 131.53 15.0371ZM132.53 17.3972H131.36V16.8472C131.181 17.0622 130.953 17.2321 130.696 17.3433C130.439 17.4544 130.16 17.5036 129.88 17.4871C129.698 17.4852 129.519 17.4454 129.353 17.3704C129.188 17.2953 129.039 17.1867 128.918 17.0513C128.797 16.9158 128.705 16.7566 128.648 16.5837C128.592 16.4109 128.572 16.2281 128.59 16.0471C128.59 14.7571 129.5 14.0471 131.08 14.0471C131.24 14.0471 131.44 14.0471 131.66 14.0471C131.696 13.9372 131.717 13.8226 131.72 13.707C131.72 13.357 131.48 13.2271 130.81 13.2271C130.3 13.2213 129.793 13.3024 129.31 13.467C129.31 13.387 129.51 12.2771 129.51 12.2771C130.059 12.0983 130.633 12.0039 131.21 11.9971C132.43 11.9971 133.07 12.5371 133.07 13.5571C133.055 13.8925 133.019 14.2265 132.96 14.5571C132.87 15.3671 132.6 17.0372 132.57 17.4072L132.53 17.3972Z" fill="#042560"/>
<path d="M116.54 17.3271C116.218 17.4358 115.88 17.4931 115.54 17.4971C115.385 17.5182 115.226 17.5024 115.078 17.4509C114.93 17.3994 114.795 17.3136 114.686 17.2007C114.577 17.0877 114.496 16.9508 114.45 16.8008C114.404 16.6507 114.394 16.4919 114.42 16.3372C114.458 15.8635 114.524 15.3924 114.62 14.927L115.23 11.3171H116.64L116.47 12.1172H117.32L117.12 13.3972H116.25C116.08 14.3972 115.85 15.6471 115.85 15.8171C115.85 15.9871 116 16.207 116.33 16.207C116.456 16.2247 116.584 16.2247 116.71 16.207L116.54 17.3271Z" fill="#042560"/>
<path d="M120.86 17.2871C120.394 17.4299 119.908 17.5007 119.42 17.4971C119.099 17.5408 118.771 17.5101 118.463 17.4075C118.156 17.3048 117.875 17.133 117.645 16.905C117.414 16.677 117.238 16.399 117.132 16.0925C117.025 15.786 116.99 15.4593 117.03 15.1372C117.03 13.3272 118.03 11.9971 119.5 11.9971C119.755 11.9791 120.011 12.0164 120.25 12.1062C120.49 12.196 120.707 12.3361 120.887 12.5173C121.067 12.6986 121.207 12.9164 121.295 13.1562C121.384 13.3961 121.419 13.6523 121.4 13.9072C121.395 14.3464 121.334 14.7829 121.22 15.207H118.42C118.33 15.967 118.82 16.2971 119.65 16.2971C120.156 16.2955 120.655 16.1792 121.11 15.957L120.86 17.2871ZM120.07 14.1472C120.106 14.042 120.117 13.9297 120.102 13.8196C120.087 13.7094 120.046 13.6044 119.982 13.5129C119.919 13.4215 119.835 13.3461 119.738 13.293C119.64 13.2398 119.531 13.2104 119.42 13.207C119.183 13.2305 118.961 13.3383 118.796 13.5107C118.631 13.6831 118.533 13.9089 118.52 14.1472H120.08H120.07Z" fill="#042560"/>
<path d="M111.09 13.7871C111.089 14.1166 111.194 14.4377 111.388 14.7039C111.582 14.97 111.856 15.1672 112.17 15.2671C112.75 15.5271 112.83 15.6072 112.83 15.8572C112.83 16.1072 112.58 16.3372 112.02 16.3372C111.589 16.337 111.16 16.2696 110.75 16.1372L110.55 17.3572C111.033 17.4611 111.526 17.5146 112.02 17.5171C113.52 17.5171 114.21 16.9571 114.21 15.7471C114.232 15.4255 114.145 15.1059 113.964 14.8394C113.783 14.5728 113.517 14.3748 113.21 14.2771C112.61 14.0071 112.55 13.947 112.55 13.697C112.55 13.447 112.78 13.2671 113.24 13.2671C113.575 13.2698 113.909 13.2966 114.24 13.3472L114.44 12.1172C114.026 12.0576 113.608 12.0241 113.19 12.0171C111.63 12.0371 111.08 12.8171 111.09 13.7871Z" fill="#042560"/>
<path d="M127.75 12.1472C128.196 12.1585 128.632 12.2785 129.02 12.4971L129.25 11.0771C128.772 10.7907 128.242 10.6036 127.69 10.5271C127.234 10.5302 126.786 10.6437 126.384 10.8579C125.981 11.0721 125.637 11.3806 125.38 11.7571C124.56 11.4871 124.22 12.0271 123.81 12.5671L123.44 12.6472C123.458 12.471 123.458 12.2934 123.44 12.1172H122.14C121.96 13.7572 121.65 15.4171 121.4 17.0571L121.33 17.4072H122.75C122.98 15.8972 123.11 14.9271 123.2 14.2771L123.75 14.0371C123.83 13.7471 124.08 13.6472 124.58 13.6572C124.513 14.0133 124.48 14.3747 124.48 14.7371C124.48 16.4671 125.48 17.5471 126.96 17.5471C127.384 17.5436 127.805 17.4797 128.21 17.3572L128.46 15.8772C128.09 16.078 127.68 16.194 127.26 16.217C127.064 16.2156 126.871 16.1715 126.694 16.0879C126.517 16.0042 126.36 15.883 126.234 15.7327C126.109 15.5823 126.017 15.4065 125.966 15.2173C125.916 15.0281 125.907 14.8302 125.94 14.6372C125.95 13.1372 126.69 12.1472 127.75 12.1472Z" fill="#042560"/>
<path d="M139.75 10.9072L139.43 12.7871C139.29 12.5454 139.095 12.3405 138.86 12.1892C138.625 12.0379 138.358 11.9445 138.08 11.917C137.692 11.9552 137.321 12.097 137.006 12.3274C136.691 12.5578 136.444 12.8685 136.29 13.2271C135.881 13.1382 135.477 13.0282 135.08 12.8972C135.08 12.4572 135.15 12.1872 135.15 12.1072H133.85C133.67 13.7472 133.36 15.4071 133.11 17.0471L133.04 17.3972H134.46C134.66 16.1772 134.8 15.1572 134.91 14.3972C135.052 14.193 135.233 14.0189 135.442 13.885C135.651 13.7511 135.885 13.6601 136.13 13.6172C135.906 14.1596 135.791 14.7404 135.79 15.3271C135.79 16.6471 136.47 17.5271 137.5 17.5271C137.747 17.5317 137.992 17.481 138.217 17.3789C138.442 17.2768 138.641 17.1259 138.8 16.937L138.73 17.427H140.07L141.15 10.927H139.75V10.9072ZM137.97 16.187C137.49 16.187 137.24 15.837 137.24 15.187C137.24 14.187 137.7 13.4072 138.34 13.4072C138.458 13.4161 138.573 13.45 138.677 13.5068C138.781 13.5637 138.871 13.6421 138.942 13.7368C139.013 13.8315 139.063 13.9403 139.089 14.0559C139.114 14.1715 139.115 14.2914 139.09 14.4072C139.1 15.4472 138.63 16.187 137.97 16.187Z" fill="#042560"/>
<path d="M106.12 17.0271H104.7L105.51 12.0271L103.71 17.0271H102.74L102.62 12.0471L101.77 17.0271H100.44L101.55 10.5271H103.59L103.64 14.5471L105.02 10.5271H107.22L106.12 17.0271Z" fill="white"/>
<path d="M109.61 14.667H109.29C108.49 14.667 108.08 14.937 108.08 15.467C108.073 15.5372 108.081 15.608 108.103 15.6748C108.126 15.7416 108.163 15.8027 108.211 15.854C108.26 15.9053 108.319 15.9455 108.384 15.9719C108.449 15.9983 108.52 16.0103 108.59 16.0071C108.746 15.9874 108.896 15.9369 109.032 15.8586C109.167 15.7803 109.286 15.6758 109.381 15.551C109.476 15.4263 109.545 15.2839 109.585 15.1321C109.624 14.9803 109.633 14.8222 109.61 14.667ZM110.61 17.0271H109.44V16.4771C109.26 16.6915 109.033 16.8611 108.776 16.9722C108.519 17.0833 108.24 17.1329 107.96 17.1172C107.778 17.1153 107.599 17.0755 107.433 17.0005C107.267 16.9255 107.119 16.8169 106.998 16.6814C106.877 16.5459 106.785 16.3865 106.728 16.2136C106.672 16.0407 106.652 15.858 106.67 15.677C106.67 14.387 107.58 13.677 109.16 13.677C109.353 13.6647 109.547 13.6647 109.74 13.677C109.776 13.5671 109.796 13.4528 109.8 13.3372C109.8 12.9872 109.55 12.8572 108.89 12.8572C108.38 12.8514 107.873 12.9326 107.39 13.0972C107.39 13.0172 107.59 11.9072 107.59 11.9072C108.139 11.7284 108.712 11.634 109.29 11.6272C110.51 11.6272 111.15 12.167 111.15 13.187C111.135 13.5224 111.098 13.8564 111.04 14.187C110.95 14.977 110.68 16.6271 110.65 17.0371L110.61 17.0271Z" fill="white"/>
<path d="M129.65 10.687L129.42 12.1072C129.032 11.8886 128.596 11.7683 128.15 11.7571C127.09 11.7571 126.35 12.757 126.35 14.197C126.318 14.3898 126.329 14.5872 126.38 14.7756C126.432 14.9641 126.523 15.1394 126.648 15.2893C126.774 15.4392 126.93 15.5603 127.106 15.6445C127.282 15.7287 127.475 15.7739 127.67 15.7771C128.091 15.7586 128.502 15.6421 128.87 15.437L128.62 16.917C128.215 17.0422 127.794 17.1098 127.37 17.1172C125.84 17.1172 124.89 16.0371 124.89 14.3171C124.89 11.9871 126.2 10.3171 128.09 10.3171C128.627 10.3547 129.154 10.4796 129.65 10.687Z" fill="white"/>
<path d="M131.94 14.667H131.62C130.82 14.667 130.41 14.937 130.41 15.467C130.403 15.5363 130.411 15.6063 130.433 15.6724C130.455 15.7384 130.491 15.799 130.538 15.8501C130.585 15.9012 130.643 15.9417 130.707 15.9688C130.771 15.9958 130.84 16.0089 130.91 16.0071C131.067 15.9887 131.218 15.9391 131.355 15.8613C131.492 15.7836 131.612 15.6793 131.708 15.5544C131.804 15.4296 131.874 15.2867 131.914 15.1343C131.954 14.9819 131.963 14.8229 131.94 14.667ZM132.94 17.0271H131.75V16.4771C131.57 16.6915 131.343 16.8611 131.086 16.9722C130.829 17.0833 130.55 17.1329 130.27 17.1172C130.088 17.1153 129.909 17.0755 129.743 17.0005C129.578 16.9255 129.429 16.8169 129.308 16.6814C129.187 16.5459 129.095 16.3865 129.038 16.2136C128.982 16.0407 128.962 15.858 128.98 15.677C128.98 14.387 129.89 13.677 131.47 13.677C131.663 13.6647 131.857 13.6647 132.05 13.677C132.086 13.5671 132.106 13.4528 132.11 13.3372C132.11 12.9872 131.87 12.8572 131.2 12.8572C130.69 12.8514 130.183 12.9326 129.7 13.0972C129.7 13.0172 129.9 11.9072 129.9 11.9072C130.449 11.7284 131.023 11.634 131.6 11.6272C132.82 11.6272 133.46 12.167 133.46 13.187C133.445 13.5224 133.409 13.8564 133.35 14.187C133.28 14.977 133.01 16.6271 132.97 17.0371L132.94 17.0271Z" fill="white"/>
<path d="M116.95 16.937C116.628 17.0486 116.291 17.1095 115.95 17.1172C115.794 17.1383 115.636 17.1223 115.488 17.0708C115.339 17.0193 115.205 16.9338 115.096 16.8208C114.987 16.7078 114.906 16.5707 114.86 16.4207C114.814 16.2706 114.804 16.1118 114.83 15.957C114.868 15.4834 114.934 15.0125 115.03 14.5471L115.64 10.937H117.05L116.88 11.7371H117.61L117.41 13.0071H116.68C116.51 14.0071 116.28 15.267 116.28 15.427C116.28 15.587 116.43 15.8171 116.76 15.8171C116.886 15.8348 117.014 15.8348 117.14 15.8171L116.95 16.937Z" fill="white"/>
<path d="M121.26 16.9073C120.794 17.0501 120.308 17.1208 119.82 17.1172C119.499 17.161 119.171 17.1303 118.864 17.0276C118.556 16.925 118.276 16.753 118.045 16.525C117.814 16.297 117.638 16.0192 117.532 15.7127C117.425 15.4062 117.391 15.0792 117.43 14.7571C117.43 12.9471 118.43 11.6172 119.9 11.6172C120.156 11.5991 120.413 11.6365 120.653 11.7269C120.893 11.8172 121.111 11.9583 121.291 12.1407C121.472 12.323 121.611 12.5422 121.699 12.7833C121.786 13.0243 121.821 13.2815 121.8 13.5372C121.79 13.976 121.73 14.4122 121.62 14.8372H118.82C118.73 15.5972 119.22 15.9271 120.04 15.9271C120.546 15.9255 121.045 15.8094 121.5 15.5872L121.26 16.9073ZM120.47 13.7672C120.506 13.662 120.517 13.5499 120.502 13.4398C120.487 13.3296 120.446 13.2246 120.383 13.1331C120.319 13.0417 120.236 12.9663 120.138 12.9131C120.04 12.86 119.931 12.8306 119.82 12.8272C119.583 12.8507 119.361 12.9583 119.196 13.1307C119.031 13.3031 118.933 13.5288 118.92 13.7672H120.48H120.47Z" fill="white"/>
<path d="M111.5 13.4073C111.5 13.7368 111.604 14.0577 111.798 14.3238C111.992 14.59 112.266 14.7874 112.58 14.8873C113.16 15.1473 113.24 15.2272 113.24 15.4772C113.24 15.7272 112.99 15.9571 112.43 15.9571C111.999 15.957 111.57 15.8896 111.16 15.7572L110.96 16.9772C111.443 17.0811 111.936 17.1349 112.43 17.1373C113.93 17.1373 114.62 16.5773 114.62 15.3673C114.642 15.0457 114.555 14.7261 114.374 14.4596C114.193 14.1931 113.927 13.9951 113.62 13.8973C113.02 13.6273 112.96 13.5673 112.96 13.3173C112.96 13.0673 113.19 12.8773 113.65 12.8773C113.985 12.88 114.319 12.9066 114.65 12.9571L114.85 11.7272C114.436 11.6675 114.019 11.6343 113.6 11.6273C112.04 11.6073 111.49 12.4273 111.5 13.4073Z" fill="white"/>
<path d="M140.48 17.0371H139.14L139.21 16.5471C139.05 16.7344 138.85 16.8842 138.626 16.9861C138.401 17.088 138.157 17.1397 137.91 17.1372C136.91 17.1372 136.2 16.257 136.2 14.937C136.2 13.177 137.25 11.697 138.5 11.697C138.767 11.6956 139.031 11.7608 139.266 11.8865C139.502 12.0122 139.703 12.1944 139.85 12.417L140.17 10.5371H141.57L140.48 17.0371ZM138.38 15.8171C139.04 15.8171 139.51 15.0771 139.51 14.0371C139.51 13.3671 139.25 13.0371 138.76 13.0371C138.27 13.0371 137.66 13.7771 137.66 14.8171C137.66 15.4471 137.9 15.8071 138.38 15.8071V15.8171Z" fill="white"/>
<path d="M134.25 11.7369C134.07 13.3769 133.76 15.0369 133.51 16.6769L133.44 17.027H134.86C135.36 13.797 135.49 13.1569 136.29 13.2369C136.389 12.6988 136.572 12.1792 136.83 11.6969C136.542 11.6654 136.252 11.731 136.006 11.8832C135.759 12.0354 135.571 12.2655 135.47 12.537C135.52 12.2731 135.547 12.0054 135.55 11.7369H134.25Z" fill="white"/>
<path d="M122.58 11.7369C122.4 13.3769 122.09 15.0369 121.84 16.6769L121.75 17.037H123.17C123.67 13.807 123.8 13.167 124.6 13.247C124.699 12.7088 124.882 12.1892 125.14 11.7069C124.852 11.6755 124.562 11.741 124.316 11.8932C124.069 12.0454 123.881 12.2755 123.78 12.547C123.83 12.2831 123.857 12.0154 123.86 11.747H122.56L122.58 11.7369Z" fill="white"/>
<path d="M141.09 16.6073C141.09 16.5526 141.101 16.4983 141.122 16.4479C141.143 16.3975 141.175 16.352 141.214 16.3138C141.253 16.2756 141.299 16.2455 141.35 16.2255C141.401 16.2055 141.455 16.1958 141.51 16.1971C141.619 16.1971 141.723 16.2404 141.8 16.3173C141.877 16.3942 141.92 16.4986 141.92 16.6073C141.92 16.716 141.877 16.8202 141.8 16.8971C141.723 16.974 141.619 17.0172 141.51 17.0172C141.455 17.0185 141.401 17.0089 141.35 16.9889C141.299 16.9689 141.253 16.939 141.214 16.9008C141.175 16.8626 141.143 16.8169 141.122 16.7665C141.101 16.7161 141.09 16.662 141.09 16.6073ZM141.52 16.9271C141.583 16.9271 141.645 16.9086 141.698 16.8734C141.75 16.8383 141.791 16.7881 141.816 16.7296C141.84 16.6711 141.846 16.6069 141.834 16.5448C141.822 16.4827 141.791 16.4257 141.746 16.381C141.702 16.3362 141.645 16.3057 141.583 16.2933C141.52 16.281 141.456 16.2874 141.398 16.3116C141.339 16.3359 141.289 16.3769 141.254 16.4296C141.219 16.4822 141.2 16.544 141.2 16.6073C141.2 16.6489 141.208 16.6899 141.225 16.7281C141.241 16.7664 141.265 16.801 141.294 16.83C141.324 16.8589 141.36 16.8816 141.398 16.8966C141.437 16.9116 141.479 16.9185 141.52 16.9171V16.9271ZM141.45 16.7972H141.37V16.4371H141.53C141.559 16.4279 141.591 16.4279 141.62 16.4371C141.626 16.4513 141.63 16.4668 141.63 16.4823C141.63 16.4978 141.626 16.5131 141.62 16.5272C141.619 16.5476 141.612 16.567 141.599 16.5831C141.587 16.5992 141.569 16.6112 141.55 16.6173L141.62 16.7772H141.53L141.47 16.6273H141.4V16.7772L141.45 16.7972ZM141.45 16.5973H141.55H141.45V16.6871V16.5973Z" fill="white"/>
<path d="M180.27 26.4771C187.478 26.4771 193.32 20.733 193.32 13.6471C193.32 6.56133 187.478 0.817139 180.27 0.817139C173.063 0.817139 167.22 6.56133 167.22 13.6471C167.22 20.733 173.063 26.4771 180.27 26.4771Z" fill="#E10023"/>
<path d="M170.19 21.7972C169.828 21.3659 169.494 20.9115 169.19 20.4371H173.82C174.099 20.0003 174.35 19.5462 174.57 19.0772H168.45C168.242 18.6343 168.058 18.1802 167.9 17.7171H175.14C175.587 16.4068 175.813 15.0317 175.81 13.6473C175.809 12.733 175.712 11.8211 175.52 10.9271H167.52C167.623 10.4674 167.75 10.0135 167.9 9.56722H175.13C174.972 9.10417 174.788 8.65005 174.58 8.20711H168.45C168.673 7.73916 168.923 7.28515 169.2 6.84725H173.82C173.52 6.3707 173.185 5.91611 172.82 5.48714H170.18C170.583 5.00251 171.021 4.54811 171.49 4.12728C169.076 1.97802 165.953 0.795707 162.72 0.807212C161.035 0.807212 159.367 1.13901 157.81 1.78377C156.254 2.42854 154.839 3.37365 153.648 4.56502C152.457 5.7564 151.512 7.17077 150.867 8.72738C150.222 10.284 149.89 11.9524 149.89 13.6373C149.89 15.3222 150.222 16.9904 150.867 18.547C151.512 20.1036 152.457 21.5179 153.648 22.7093C154.839 23.9007 156.254 24.8458 157.81 25.4906C159.367 26.1353 161.035 26.4671 162.72 26.4671C165.952 26.4739 169.073 25.2925 171.49 23.1473C171.962 22.7289 172.4 22.274 172.8 21.7872H170.16L170.19 21.7972Z" fill="#1186D1"/>
<path d="M191.59 20.7971C191.59 20.6857 191.634 20.579 191.713 20.5002C191.792 20.4215 191.899 20.3772 192.01 20.3772C192.121 20.3772 192.228 20.4215 192.307 20.5002C192.386 20.579 192.43 20.6857 192.43 20.7971C192.43 20.8518 192.419 20.9059 192.398 20.9563C192.377 21.0067 192.346 21.0524 192.306 21.0906C192.267 21.1288 192.221 21.1587 192.17 21.1787C192.119 21.1987 192.065 21.2084 192.01 21.207C191.9 21.2071 191.795 21.1643 191.717 21.0876C191.638 21.011 191.593 20.9068 191.59 20.7971ZM192.02 21.1172C192.062 21.1186 192.105 21.1113 192.144 21.0957C192.184 21.0801 192.219 21.0564 192.249 21.0264C192.279 20.9964 192.303 20.9606 192.319 20.9211C192.334 20.8817 192.341 20.8395 192.34 20.7971C192.34 20.7122 192.306 20.6308 192.246 20.5708C192.186 20.5108 192.105 20.4771 192.02 20.4771C191.935 20.4757 191.853 20.5083 191.792 20.5674C191.731 20.6265 191.696 20.7071 191.695 20.792C191.694 20.8769 191.726 20.9588 191.785 21.0198C191.844 21.0807 191.925 21.1159 192.01 21.1172H192.02ZM191.95 20.9771H191.87V20.6172H192.03C192.059 20.608 192.091 20.608 192.12 20.6172C192.126 20.6313 192.13 20.6466 192.13 20.6621C192.13 20.6776 192.126 20.6929 192.12 20.707C192.119 20.7274 192.112 20.7471 192.099 20.7632C192.087 20.7793 192.069 20.791 192.05 20.7971L192.12 20.957H192.03L191.97 20.8071H191.95V20.957V20.9771ZM191.95 20.7771H192.05H191.95V20.8772V20.7771Z" fill="#E10023"/>
<path d="M171.32 17.1071C170.775 17.2509 170.214 17.3215 169.65 17.317C167.83 17.317 166.88 16.4969 166.88 14.9369C166.847 14.5404 166.896 14.1414 167.023 13.7643C167.15 13.3872 167.352 13.0402 167.618 12.7443C167.884 12.4484 168.208 12.2099 168.569 12.0436C168.931 11.8773 169.322 11.7865 169.72 11.777C169.995 11.7398 170.275 11.7621 170.54 11.8422C170.806 11.9223 171.051 12.0582 171.259 12.2411C171.468 12.424 171.635 12.6496 171.749 12.9025C171.863 13.1554 171.921 13.4296 171.92 13.7069C171.912 14.1473 171.845 14.5846 171.72 15.007H168.49C168.38 15.767 168.94 16.1071 169.91 16.1071C170.487 16.1074 171.058 15.9917 171.59 15.767L171.32 17.1071ZM170.45 13.9569C170.497 13.8404 170.513 13.7137 170.497 13.589C170.481 13.4643 170.433 13.3459 170.357 13.2453C170.282 13.1447 170.182 13.0653 170.067 13.0148C169.951 12.9643 169.825 12.9443 169.7 12.9569C169.44 12.9713 169.193 13.0813 169.009 13.2658C168.824 13.4503 168.714 13.6964 168.7 13.9569H170.49H170.45Z" fill="#042560"/>
<path d="M172.42 13.6073C172.435 13.9591 172.567 14.2957 172.796 14.5638C173.024 14.832 173.335 15.0163 173.68 15.0873C174.35 15.3573 174.45 15.4271 174.45 15.6771C174.45 15.9271 174.15 16.1573 173.45 16.1573C172.954 16.1569 172.459 16.0894 171.98 15.9571L171.75 17.1871C172.318 17.2869 172.893 17.3406 173.47 17.3473C175.22 17.3473 176.02 16.7873 176.02 15.5673C176.028 15.2244 175.917 14.8892 175.706 14.6193C175.494 14.3493 175.195 14.1613 174.86 14.0873C174.17 13.8173 174.09 13.7472 174.09 13.5072C174.09 13.2672 174.37 13.0673 174.9 13.0673C175.298 13.0694 175.696 13.0962 176.09 13.1473L176.32 11.9171C175.836 11.8577 175.348 11.8245 174.86 11.8173C173.06 11.7973 172.41 12.6173 172.42 13.6073Z" fill="#042560"/>
<path d="M166 17.2371H164.64V16.677C164.417 16.8993 164.149 17.0715 163.854 17.1819C163.559 17.2923 163.244 17.3384 162.93 17.3171C162.735 17.3299 162.539 17.3015 162.355 17.2336C162.171 17.1658 162.003 17.06 161.863 16.9233C161.722 16.7867 161.612 16.6221 161.539 16.4402C161.467 16.2582 161.433 16.063 161.44 15.8672C161.44 14.5772 162.49 13.8672 164.31 13.8672C164.533 13.855 164.757 13.855 164.98 13.8672C165.019 13.7575 165.042 13.643 165.05 13.5271C165.05 13.1771 164.76 13.0471 164 13.0471C163.416 13.0448 162.834 13.1222 162.27 13.2771L162.5 12.0872C163.135 11.9079 163.791 11.8137 164.45 11.8071C165.86 11.8071 166.59 12.3472 166.59 13.3672C166.577 13.7202 166.533 14.0713 166.46 14.417C166.43 14.747 166.04 16.7671 166 17.2371ZM164.81 14.8572C164.69 14.8492 164.57 14.8492 164.45 14.8572C163.53 14.8572 163.05 15.1272 163.05 15.6572C163.047 15.7338 163.06 15.8101 163.089 15.8811C163.118 15.9521 163.162 16.0161 163.218 16.0684C163.274 16.1206 163.341 16.1601 163.414 16.1841C163.487 16.2081 163.564 16.2158 163.64 16.207C163.806 16.1982 163.968 16.1563 164.117 16.0837C164.266 16.0111 164.399 15.9094 164.508 15.7844C164.618 15.6595 164.7 15.514 164.752 15.3564C164.804 15.1989 164.824 15.0325 164.81 14.8672V14.8572Z" fill="#042560"/>
<path d="M178.93 17.1572C178.554 17.2703 178.163 17.3308 177.77 17.3372C177.606 17.3645 177.437 17.3543 177.277 17.3076C177.117 17.2609 176.97 17.1788 176.846 17.0674C176.722 16.956 176.625 16.8182 176.562 16.6641C176.498 16.5099 176.47 16.3434 176.48 16.177C176.522 15.6993 176.595 15.225 176.7 14.7571C176.7 14.4971 177.46 10.6472 177.46 10.6472H179.07L178.83 11.927H179.66L179.44 13.217H178.61C178.61 13.217 178.15 15.4672 178.15 15.6372C178.15 15.8072 178.32 16.0271 178.71 16.0271C178.856 16.0452 179.004 16.0452 179.15 16.0271L178.93 17.1572Z" fill="#042560"/>
<path d="M186.15 11.7971C185.636 11.7696 185.124 11.8726 184.661 12.0964C184.197 12.3202 183.798 12.6576 183.5 13.0771L183.97 11.8972C183.612 11.7767 183.223 11.7869 182.871 11.926C182.52 12.0651 182.229 12.3242 182.05 12.6572L181.88 12.8572V11.927H180.36C180.16 13.577 179.79 15.247 179.5 16.927L179.43 17.2771H181.06C181.22 16.4371 181.34 15.757 181.47 15.217C181.81 13.737 182.4 13.277 183.28 13.477C183.064 13.9368 182.955 14.4392 182.96 14.947C182.935 15.2822 182.985 15.6189 183.106 15.9324C183.227 16.2458 183.417 16.5281 183.661 16.759C183.906 16.9899 184.198 17.1634 184.518 17.2668C184.838 17.3703 185.177 17.4012 185.51 17.3572C185.938 17.4029 186.37 17.3523 186.775 17.2092C187.181 17.0661 187.549 16.834 187.853 16.53C188.157 16.226 188.389 15.8578 188.532 15.4524C188.675 15.047 188.726 14.6145 188.68 14.187C188.698 13.8562 188.644 13.5257 188.521 13.218C188.398 12.9103 188.21 12.633 187.969 12.4055C187.728 12.178 187.441 12.0057 187.127 11.9006C186.813 11.7955 186.479 11.7603 186.15 11.7971ZM185.67 16.0371C185.53 16.028 185.393 15.9895 185.269 15.9241C185.145 15.8586 185.036 15.7676 184.949 15.6572C184.862 15.5468 184.8 15.4196 184.766 15.2834C184.731 15.1473 184.726 15.0055 184.75 14.8672C184.705 14.4549 184.817 14.0406 185.063 13.707C185.31 13.3735 185.673 13.1451 186.08 13.0671C186.212 13.0665 186.343 13.0948 186.463 13.1504C186.583 13.2059 186.689 13.2872 186.774 13.3884C186.859 13.4896 186.92 13.6082 186.954 13.7358C186.988 13.8635 186.994 13.9972 186.97 14.1272C186.97 15.3272 186.46 16.0371 185.67 16.0371Z" fill="#042560"/>
<path d="M160.71 17.2371H159.08L160.05 12.2471L157.82 17.2371H156.34L156.07 12.2771L155.1 17.2371H153.63L154.89 10.7371H157.42L157.64 14.3571L159.25 10.7371H161.99L160.71 17.2371Z" fill="#042560"/>
<path d="M188.83 16.4271C188.83 16.3724 188.841 16.3184 188.862 16.2679C188.883 16.2175 188.915 16.1719 188.954 16.1337C188.993 16.0955 189.039 16.0655 189.09 16.0455C189.141 16.0255 189.195 16.0159 189.25 16.0172C189.36 16.0172 189.465 16.06 189.544 16.1366C189.622 16.2132 189.667 16.3175 189.67 16.4271C189.67 16.4818 189.659 16.5361 189.638 16.5865C189.617 16.637 189.586 16.6826 189.546 16.7208C189.507 16.759 189.461 16.789 189.41 16.809C189.359 16.829 189.305 16.8386 189.25 16.8373C189.14 16.8373 189.035 16.7943 188.957 16.7177C188.878 16.641 188.833 16.5368 188.83 16.4271ZM189.25 16.7472C189.292 16.7486 189.335 16.7413 189.374 16.7257C189.414 16.7101 189.449 16.6866 189.479 16.6566C189.509 16.6266 189.533 16.5908 189.549 16.5514C189.564 16.5119 189.571 16.4695 189.57 16.4271C189.57 16.3423 189.536 16.2611 189.476 16.201C189.416 16.141 189.335 16.1073 189.25 16.1073C189.208 16.1059 189.165 16.1132 189.126 16.1288C189.087 16.1444 189.051 16.1679 189.021 16.1979C188.991 16.2279 188.967 16.2636 188.952 16.3031C188.936 16.3426 188.929 16.3847 188.93 16.4271C188.933 16.5112 188.967 16.5913 189.027 16.6508C189.086 16.7102 189.166 16.7447 189.25 16.7472ZM189.19 16.6073H189.11V16.2472H189.27C189.299 16.238 189.331 16.238 189.36 16.2472C189.366 16.2613 189.37 16.2766 189.37 16.2921C189.37 16.3076 189.366 16.3231 189.36 16.3373C189.359 16.3576 189.352 16.3771 189.339 16.3932C189.327 16.4093 189.309 16.421 189.29 16.4271L189.36 16.5873H189.27L189.21 16.4371H189.14V16.5873L189.19 16.6073ZM189.19 16.4073H189.29H189.19V16.4972V16.4073Z" fill="white"/>
<path d="M171.75 16.707C171.205 16.8508 170.644 16.9214 170.08 16.917C168.26 16.917 167.31 16.0971 167.31 14.5371C167.277 14.1406 167.326 13.7415 167.453 13.3645C167.58 12.9874 167.783 12.6404 168.049 12.3444C168.314 12.0485 168.638 11.8101 169 11.6438C169.361 11.4774 169.753 11.3867 170.15 11.3772C170.425 11.34 170.705 11.362 170.97 11.4421C171.236 11.5222 171.481 11.6584 171.69 11.8413C171.898 12.0242 172.065 12.2495 172.179 12.5024C172.293 12.7553 172.351 13.0297 172.35 13.3071C172.342 13.7474 172.275 14.1847 172.15 14.6071H168.91C168.8 15.3671 169.36 15.697 170.33 15.697C170.906 15.6963 171.477 15.5844 172.01 15.3671L171.75 16.707ZM170.87 13.5571C170.917 13.4405 170.934 13.3136 170.917 13.1889C170.901 13.0642 170.853 12.946 170.777 12.8454C170.702 12.7448 170.602 12.6655 170.487 12.615C170.372 12.5644 170.245 12.5445 170.12 12.5571C169.86 12.5715 169.614 12.6814 169.429 12.8659C169.245 13.0504 169.135 13.2965 169.12 13.5571H170.91H170.87Z" fill="white"/>
<path d="M172.82 13.1971C172.835 13.5489 172.967 13.8858 173.196 14.1539C173.424 14.422 173.735 14.6061 174.08 14.6771C174.75 14.9471 174.85 15.0172 174.85 15.2672C174.85 15.5172 174.55 15.7472 173.85 15.7472C173.353 15.7467 172.859 15.6795 172.38 15.5472L172.15 16.7772C172.718 16.8816 173.293 16.9351 173.87 16.9371C175.62 16.9371 176.42 16.3773 176.42 15.1573C176.428 14.8144 176.317 14.4793 176.105 14.2093C175.894 13.9394 175.595 13.7512 175.26 13.6771C174.57 13.4071 174.49 13.3373 174.49 13.0973C174.49 12.8573 174.77 12.6573 175.3 12.6573C175.698 12.6594 176.095 12.686 176.49 12.7372L176.72 11.5072C176.236 11.4478 175.748 11.4145 175.26 11.4073C173.47 11.3973 172.82 12.2171 172.82 13.1971Z" fill="white"/>
<path d="M166.41 16.8372H165.05V16.2771C164.827 16.4989 164.559 16.6707 164.264 16.781C163.969 16.8913 163.654 16.9376 163.34 16.917C163.145 16.9297 162.949 16.9013 162.765 16.8335C162.581 16.7657 162.413 16.6601 162.273 16.5234C162.132 16.3868 162.022 16.222 161.949 16.04C161.877 15.8581 161.843 15.6629 161.85 15.467C161.85 14.167 162.9 13.467 164.72 13.467C164.943 13.4549 165.167 13.4549 165.39 13.467C165.428 13.3573 165.452 13.2431 165.46 13.1272C165.46 12.7772 165.17 12.6472 164.41 12.6472C163.826 12.6449 163.244 12.7223 162.68 12.8772L162.91 11.687C163.561 11.5035 164.234 11.4095 164.91 11.4072C166.32 11.4072 167.05 11.947 167.05 12.967C167.037 13.3201 166.993 13.6714 166.92 14.0171C166.84 14.3471 166.45 16.3672 166.41 16.8372ZM165.22 14.457C165.1 14.4492 164.98 14.4492 164.86 14.457C163.94 14.457 163.46 14.7271 163.46 15.2571C163.457 15.3337 163.47 15.4102 163.499 15.4812C163.528 15.5522 163.572 15.6159 163.628 15.6682C163.684 15.7205 163.751 15.76 163.824 15.7839C163.897 15.8079 163.974 15.8159 164.05 15.8071C164.216 15.7983 164.378 15.7564 164.527 15.6838C164.676 15.6112 164.809 15.5095 164.918 15.3845C165.027 15.2596 165.11 15.1139 165.162 14.9563C165.214 14.7987 165.234 14.6324 165.22 14.467V14.457Z" fill="white"/>
<path d="M179.34 16.7571C178.964 16.8702 178.573 16.9307 178.18 16.937C178.016 16.9643 177.847 16.9544 177.687 16.9077C177.527 16.861 177.38 16.7789 177.256 16.6675C177.132 16.5561 177.035 16.4181 176.972 16.2639C176.908 16.1098 176.88 15.9435 176.89 15.7771C176.931 15.3026 177.005 14.8316 177.11 14.3672C177.11 14.1072 177.87 10.2571 177.87 10.2571H179.48L179.24 11.5371H180.07L179.85 12.8271H179.02C179.02 12.8271 178.56 15.0771 178.56 15.2471C178.56 15.4171 178.73 15.6372 179.12 15.6372C179.266 15.6553 179.414 15.6553 179.56 15.6372L179.34 16.7571Z" fill="white"/>
<path d="M187.38 13.7271C187.38 14.9271 186.88 15.6372 186.09 15.6372C185.95 15.6281 185.813 15.5894 185.689 15.524C185.565 15.4585 185.456 15.3677 185.369 15.2574C185.282 15.147 185.22 15.0195 185.185 14.8833C185.151 14.7472 185.146 14.6054 185.17 14.4671C185.125 14.0548 185.237 13.6407 185.483 13.3072C185.73 12.9736 186.093 12.745 186.5 12.667C186.631 12.6695 186.759 12.7004 186.877 12.7571C186.995 12.8138 187.099 12.895 187.183 12.9956C187.266 13.0962 187.327 13.2137 187.361 13.3399C187.395 13.4661 187.402 13.5981 187.38 13.7271ZM189.12 13.7271C189.131 13.3965 189.07 13.0676 188.942 12.7625C188.815 12.4573 188.623 12.183 188.381 11.9583C188.138 11.7336 187.85 11.5637 187.536 11.46C187.222 11.3563 186.889 11.3212 186.56 11.3572C186.143 11.3332 185.725 11.3967 185.333 11.5437C184.942 11.6907 184.585 11.9179 184.287 12.2107C183.988 12.5036 183.754 12.8556 183.6 13.2442C183.446 13.6328 183.374 14.0492 183.39 14.4671C183.367 14.8028 183.418 15.1395 183.54 15.4529C183.663 15.7663 183.854 16.0487 184.099 16.2793C184.344 16.51 184.637 16.6833 184.957 16.7867C185.277 16.89 185.616 16.921 185.95 16.8772C186.372 16.9233 186.8 16.875 187.201 16.7359C187.603 16.5968 187.968 16.3703 188.272 16.0728C188.575 15.7752 188.808 15.4141 188.955 15.0154C189.102 14.6167 189.158 14.1903 189.12 13.7671V13.7271Z" fill="white"/>
<path d="M180.75 11.5172C180.55 13.1672 180.18 14.8372 179.89 16.5172L179.82 16.8773H181.45C182.04 13.6873 182.23 12.7873 183.45 13.1073L184.05 11.5973C183.693 11.4773 183.305 11.4879 182.956 11.627C182.606 11.7662 182.317 12.025 182.14 12.3573C182.206 12.0955 182.243 11.8271 182.25 11.5572H180.75V11.5172Z" fill="white"/>
<path d="M161.12 16.8372H159.49L160.46 11.8472L158.23 16.8372H156.75L156.48 11.8772L155.51 16.8372H154.04L155.3 10.3372H157.83L157.97 14.3572L159.75 10.3372H162.4L161.12 16.8372Z" fill="white"/>
<path d="M32.04 10.1769C31.2278 10.2148 30.4226 10.3458 29.6401 10.567L29.4501 12.0971C30.1085 11.8401 30.8042 11.6915 31.5101 11.6571C32.3001 11.6571 32.7701 11.807 32.6101 12.477C30.2501 12.477 28.6101 12.957 28.3301 14.477C27.8601 17.097 30.7301 17.0171 31.8801 15.8871L31.7401 16.517H33.85L34.7501 12.3571C35.1201 10.5971 33.51 10.1569 32.04 10.1769ZM32.1801 14.4469C32.1257 14.6937 31.985 14.9129 31.7833 15.0651C31.5817 15.2173 31.3323 15.2925 31.0801 15.277C30.9696 15.2961 30.856 15.2828 30.753 15.2387C30.65 15.1946 30.5619 15.1216 30.4995 15.0285C30.437 14.9354 30.403 14.8263 30.4013 14.7143C30.3996 14.6022 30.4304 14.492 30.4901 14.3971C30.6492 14.2159 30.8492 14.0749 31.0735 13.9862C31.2978 13.8976 31.54 13.8637 31.7801 13.8871H32.29C32.25 14.0371 32.2301 14.2569 32.1801 14.4469Z" fill="#13699C"/>
<path d="M36.55 8.53711L34.8 16.5371H36.95L38.71 8.53711H36.55Z" fill="#13699C"/>
<path d="M26.7501 8.55724H22.8401L21.1101 16.5572H23.3801L23.9701 13.9073H25.5901C26.3558 13.9319 27.1048 13.6808 27.7012 13.2001C28.2975 12.7193 28.7017 12.0406 28.8401 11.2872C28.9416 10.9656 28.9641 10.6243 28.9058 10.2921C28.8474 9.95992 28.7099 9.64657 28.5049 9.37877C28.2999 9.11097 28.0333 8.89654 27.7279 8.75353C27.4225 8.61051 27.0871 8.54322 26.7501 8.55724ZM26.6801 11.2772C26.6037 11.577 26.4334 11.8445 26.1942 12.0406C25.9549 12.2367 25.6591 12.3513 25.3501 12.3673H24.3001L24.7701 10.1871H25.9001C26.0306 10.1871 26.1592 10.2188 26.2748 10.2792C26.3905 10.3395 26.4899 10.427 26.5645 10.534C26.6391 10.6411 26.6868 10.7645 26.7034 10.8939C26.7201 11.0233 26.7052 11.1548 26.6601 11.2772H26.6801Z" fill="#13699C"/>
<path d="M11.5502 10.1769C10.7508 10.212 9.95846 10.3431 9.19023 10.567L9.00023 12.0971C9.63722 11.8384 10.3135 11.6897 11.0002 11.6571C11.7802 11.6571 12.2502 11.807 12.1102 12.477C9.78021 12.477 8.21024 12.957 7.89024 14.477C7.42024 17.097 10.2702 17.0171 11.3702 15.8871L11.2302 16.517H13.3403L14.2302 12.3571C14.6302 10.5971 13.0102 10.1569 11.5502 10.1769ZM11.7202 14.4469C11.6637 14.6945 11.5211 14.914 11.3178 15.0661C11.1144 15.2181 10.8636 15.2929 10.6102 15.277C10.5004 15.2962 10.3875 15.2821 10.2857 15.2367C10.1839 15.1913 10.098 15.1166 10.039 15.0221C9.97993 14.9276 9.95042 14.8178 9.95421 14.7065C9.95799 14.5951 9.99489 14.4874 10.0602 14.3971C10.2132 14.2191 10.4064 14.0798 10.6237 13.9911C10.841 13.9024 11.0764 13.8669 11.3102 13.8871H11.8403C11.7936 14.0707 11.7634 14.258 11.7502 14.4469H11.7202Z" fill="#17426A"/>
<path d="M15.1802 10.2971H17.2702L17.6102 14.0071L19.6702 10.2971H21.8402L16.8402 19.1871H14.4902L16.0302 16.5671L15.1802 10.2971Z" fill="#17426A"/>
<path d="M6.34021 8.55715H2.42017L0.680176 16.5572H2.98016L3.54016 13.9072H5.18018C5.94362 13.9273 6.68924 13.6746 7.28308 13.1944C7.87692 12.7142 8.28006 12.0379 8.42017 11.2871C8.52877 10.9661 8.55693 10.6235 8.50214 10.2891C8.44734 9.95468 8.31126 9.63871 8.1059 9.36916C7.90053 9.09962 7.63215 8.88453 7.32428 8.74294C7.01641 8.60135 6.67852 8.53764 6.34021 8.55715ZM6.2702 11.2771C6.19771 11.5753 6.03119 11.8423 5.79529 12.0386C5.55938 12.2349 5.26662 12.3501 4.96021 12.3672H3.88019L4.37018 10.187H5.50018C5.63149 10.1847 5.76133 10.2147 5.8783 10.2744C5.99527 10.3341 6.09579 10.4218 6.1709 10.5296C6.24601 10.6373 6.29345 10.7617 6.30902 10.8921C6.3246 11.0225 6.30782 11.1547 6.26019 11.2771H6.2702Z" fill="#17426A"/>
<path d="M39.17 9.55713V8.61719H38.8201V8.48706H39.67V8.61719H39.3301V9.55713H39.1801H39.17Z" fill="#17426A"/>
<path d="M39.8101 9.55713V8.48706H40.0201L40.2701 9.23706C40.2737 9.29033 40.2737 9.34394 40.2701 9.39722L40.3301 9.22705L40.5901 8.47705H40.7801V9.54712H40.6401V8.65723L40.3201 9.54712H40.2501L39.9401 8.63721V9.54712H39.8101V9.55713Z" fill="#17426A"/>
<path d="M66.6401 6.97705L64.4501 20.4072H67.9401L70.1301 6.97705H66.6401ZM61.5201 6.97705L58.1801 16.217L57.79 14.217L57.7101 13.7671C56.9882 12.2389 55.9281 10.895 54.61 9.83716C54.1154 9.44187 53.5942 9.08094 53.05 8.75708L56.05 20.3972H59.7501L65.3101 6.96704H61.55L61.5201 6.97705ZM75.17 10.707C75.17 9.18703 78.5801 9.38703 80.0701 10.207L80.5701 7.31714C79.5583 6.95341 78.4948 6.75413 77.42 6.72705C75.69 6.72705 71.5601 7.47699 71.5601 11.167C71.5601 14.637 76.4001 14.6771 76.4001 16.5071C76.4001 18.3371 72.0601 18.0072 70.6301 16.8472L70.11 19.8472C71.3768 20.3723 72.7391 20.6278 74.11 20.5972C76.49 20.5972 80.11 19.3571 80.11 15.9971C80.11 12.6371 75.16 12.217 75.16 10.697L75.17 10.707ZM89.4401 6.97705H86.6301C86.2904 6.95204 85.9516 7.0354 85.6624 7.21509C85.3731 7.39477 85.1482 7.66151 85.0201 7.97705L79.7501 20.4072H83.3901L84.1201 18.4072H88.5601L88.97 20.4072H92.1801L89.4401 6.97705ZM85.1801 15.6572L87.0201 10.6572L88.0201 15.6572H85.1501H85.1801Z" fill="#084598"/>
<path d="M56.6503 8.23724C56.5749 7.85867 56.3582 7.523 56.0444 7.29828C55.7305 7.07356 55.3429 6.97668 54.9603 7.02728H49.3502L49.2803 7.24725C51.2097 7.72965 53.0135 8.6197 54.5703 9.85736C56.0418 11.0125 57.1748 12.5427 57.8502 14.2873L56.6503 8.23724Z" fill="#EE9918"/>
<path d="M112.25 26.4771C119.458 26.4771 125.3 20.733 125.3 13.6471C125.3 6.56133 119.458 0.817139 112.25 0.817139C105.043 0.817139 99.2002 6.56133 99.2002 13.6471C99.2002 20.733 105.043 26.4771 112.25 26.4771Z" fill="#E10023"/>
<path d="M129.75 0.827211C126.518 0.820402 123.397 2.0021 120.98 4.14728C120.509 4.56571 120.071 5.0203 119.67 5.50714H122.31C122.672 5.93844 123.006 6.39283 123.31 6.86725H118.75C118.471 7.304 118.221 7.75814 118 8.22711H124.13C124.338 8.67005 124.522 9.12417 124.68 9.58722H117.44C117.289 10.0335 117.163 10.4874 117.06 10.9471H125.06C125.548 13.2032 125.417 15.5496 124.68 17.7371H117.44C117.598 18.2002 117.782 18.6543 117.99 19.0972H124.12C123.898 19.5652 123.647 20.0192 123.37 20.4571H118.74C119.041 20.9336 119.375 21.3882 119.74 21.8172H122.38C121.974 22.302 121.533 22.7565 121.06 23.1771C123.476 25.3239 126.598 26.5058 129.83 26.4971C133.234 26.4865 136.495 25.1241 138.894 22.7095C141.294 20.295 142.636 17.0262 142.625 13.6221C142.614 10.2181 141.252 6.9577 138.837 4.55817C136.423 2.15864 133.154 0.816602 129.75 0.827211Z" fill="#F59E26"/>
<path d="M141.09 20.7971C141.09 20.6857 141.134 20.579 141.213 20.5002C141.292 20.4215 141.399 20.3772 141.51 20.3772C141.621 20.3772 141.728 20.4215 141.807 20.5002C141.886 20.579 141.93 20.6857 141.93 20.7971C141.93 20.8518 141.919 20.9059 141.898 20.9563C141.877 21.0067 141.846 21.0524 141.806 21.0906C141.767 21.1288 141.721 21.1587 141.67 21.1787C141.619 21.1987 141.565 21.2084 141.51 21.207C141.4 21.2071 141.295 21.1643 141.217 21.0876C141.138 21.011 141.093 20.9068 141.09 20.7971ZM141.52 21.1172C141.583 21.1172 141.645 21.0984 141.698 21.0632C141.75 21.0281 141.791 20.9782 141.816 20.9197C141.84 20.8612 141.846 20.7967 141.834 20.7346C141.822 20.6725 141.791 20.6156 141.746 20.5708C141.702 20.526 141.645 20.4955 141.583 20.4832C141.52 20.4708 141.456 20.4772 141.398 20.5015C141.339 20.5257 141.289 20.5668 141.254 20.6194C141.219 20.672 141.2 20.7338 141.2 20.7971C141.199 20.8395 141.206 20.8817 141.222 20.9211C141.237 20.9606 141.261 20.9964 141.291 21.0264C141.321 21.0564 141.357 21.0801 141.396 21.0957C141.435 21.1113 141.478 21.1186 141.52 21.1172ZM141.46 20.9771H141.38V20.6172H141.54C141.569 20.608 141.601 20.608 141.63 20.6172C141.636 20.6313 141.64 20.6466 141.64 20.6621C141.64 20.6776 141.636 20.6929 141.63 20.707C141.629 20.7274 141.622 20.7471 141.609 20.7632C141.597 20.7793 141.58 20.791 141.56 20.7971L141.63 20.957H141.54L141.48 20.8171H141.41V20.957L141.46 20.9771ZM141.46 20.7771H141.56H141.46V20.8672V20.7771Z" fill="#F59E26"/>
<path d="M109.2 15.0371H108.88C108.08 15.0371 107.67 15.3072 107.67 15.8472C107.663 15.9173 107.671 15.9881 107.693 16.0549C107.716 16.1217 107.753 16.1829 107.801 16.2341C107.85 16.2854 107.909 16.3256 107.974 16.3521C108.039 16.3785 108.11 16.3905 108.18 16.3872C108.336 16.3664 108.486 16.3147 108.622 16.2354C108.758 16.156 108.877 16.0506 108.972 15.925C109.067 15.7995 109.136 15.6563 109.175 15.5039C109.214 15.3515 109.223 15.1928 109.2 15.0371ZM110.2 17.3972H109.03V16.8472C108.851 17.0628 108.624 17.233 108.367 17.3442C108.11 17.4554 107.83 17.5044 107.55 17.4871C107.368 17.4852 107.189 17.4454 107.023 17.3704C106.857 17.2953 106.709 17.1867 106.588 17.0513C106.467 16.9158 106.375 16.7566 106.318 16.5837C106.262 16.4109 106.242 16.2281 106.26 16.0471C106.26 14.7571 107.17 14.0471 108.75 14.0471C108.91 14.0471 109.11 14.0471 109.33 14.0471C109.366 13.9372 109.386 13.8226 109.39 13.707C109.39 13.357 109.15 13.2271 108.48 13.2271C107.97 13.2213 107.463 13.3024 106.98 13.467C106.98 13.387 107.18 12.2771 107.18 12.2771C107.729 12.0983 108.303 12.0039 108.88 11.9971C110.1 11.9971 110.74 12.5371 110.74 13.5571C110.725 13.8925 110.689 14.2265 110.63 14.5571C110.54 15.3671 110.28 17.0372 110.24 17.4072L110.2 17.3972Z" fill="#042560"/>
<path d="M105.71 17.4072H104.29L105.1 12.4072L103.3 17.4072H102.33L102.21 12.4372L101.36 17.4072H100.03L101.14 10.9072H103.17L103.3 14.5472L104.54 10.9072H106.81L105.71 17.4072Z" fill="#042560"/>
<path d="M131.53 15.0371H131.21C130.41 15.0371 130 15.3072 130 15.8472C129.993 15.9164 130.001 15.9864 130.023 16.0525C130.045 16.1185 130.081 16.1791 130.128 16.2302C130.175 16.2813 130.233 16.3218 130.297 16.3489C130.361 16.3759 130.431 16.389 130.5 16.3872C130.657 16.3676 130.808 16.3168 130.945 16.238C131.082 16.1592 131.202 16.0539 131.298 15.9282C131.394 15.8025 131.464 15.6588 131.504 15.5059C131.544 15.3529 131.553 15.1936 131.53 15.0371ZM132.53 17.3972H131.36V16.8472C131.181 17.0622 130.953 17.2321 130.696 17.3433C130.439 17.4544 130.16 17.5036 129.88 17.4871C129.698 17.4852 129.519 17.4454 129.353 17.3704C129.188 17.2953 129.039 17.1867 128.918 17.0513C128.797 16.9158 128.705 16.7566 128.648 16.5837C128.592 16.4109 128.572 16.2281 128.59 16.0471C128.59 14.7571 129.5 14.0471 131.08 14.0471C131.24 14.0471 131.44 14.0471 131.66 14.0471C131.696 13.9372 131.717 13.8226 131.72 13.707C131.72 13.357 131.48 13.2271 130.81 13.2271C130.3 13.2213 129.793 13.3024 129.31 13.467C129.31 13.387 129.51 12.2771 129.51 12.2771C130.059 12.0983 130.633 12.0039 131.21 11.9971C132.43 11.9971 133.07 12.5371 133.07 13.5571C133.055 13.8925 133.019 14.2265 132.96 14.5571C132.87 15.3671 132.6 17.0372 132.57 17.4072L132.53 17.3972Z" fill="#042560"/>
<path d="M116.54 17.3271C116.218 17.4358 115.88 17.4931 115.54 17.4971C115.385 17.5182 115.226 17.5024 115.078 17.4509C114.93 17.3994 114.795 17.3136 114.686 17.2007C114.577 17.0877 114.496 16.9508 114.45 16.8008C114.404 16.6507 114.394 16.4919 114.42 16.3372C114.458 15.8635 114.524 15.3924 114.62 14.927L115.23 11.3171H116.64L116.47 12.1172H117.32L117.12 13.3972H116.25C116.08 14.3972 115.85 15.6471 115.85 15.8171C115.85 15.9871 116 16.207 116.33 16.207C116.456 16.2247 116.584 16.2247 116.71 16.207L116.54 17.3271Z" fill="#042560"/>
<path d="M120.86 17.2871C120.394 17.4299 119.908 17.5007 119.42 17.4971C119.099 17.5408 118.771 17.5101 118.463 17.4075C118.156 17.3048 117.875 17.133 117.645 16.905C117.414 16.677 117.238 16.399 117.132 16.0925C117.025 15.786 116.99 15.4593 117.03 15.1372C117.03 13.3272 118.03 11.9971 119.5 11.9971C119.755 11.9791 120.011 12.0164 120.25 12.1062C120.49 12.196 120.707 12.3361 120.887 12.5173C121.067 12.6986 121.207 12.9164 121.295 13.1562C121.384 13.3961 121.419 13.6523 121.4 13.9072C121.395 14.3464 121.334 14.7829 121.22 15.207H118.42C118.33 15.967 118.82 16.2971 119.65 16.2971C120.156 16.2955 120.655 16.1792 121.11 15.957L120.86 17.2871ZM120.07 14.1472C120.106 14.042 120.117 13.9297 120.102 13.8196C120.087 13.7094 120.046 13.6044 119.982 13.5129C119.919 13.4215 119.835 13.3461 119.738 13.293C119.64 13.2398 119.531 13.2104 119.42 13.207C119.183 13.2305 118.961 13.3383 118.796 13.5107C118.631 13.6831 118.533 13.9089 118.52 14.1472H120.08H120.07Z" fill="#042560"/>
<path d="M111.09 13.7871C111.089 14.1166 111.194 14.4377 111.388 14.7039C111.582 14.97 111.856 15.1672 112.17 15.2671C112.75 15.5271 112.83 15.6072 112.83 15.8572C112.83 16.1072 112.58 16.3372 112.02 16.3372C111.589 16.337 111.16 16.2696 110.75 16.1372L110.55 17.3572C111.033 17.4611 111.526 17.5146 112.02 17.5171C113.52 17.5171 114.21 16.9571 114.21 15.7471C114.232 15.4255 114.145 15.1059 113.964 14.8394C113.783 14.5728 113.517 14.3748 113.21 14.2771C112.61 14.0071 112.55 13.947 112.55 13.697C112.55 13.447 112.78 13.2671 113.24 13.2671C113.575 13.2698 113.909 13.2966 114.24 13.3472L114.44 12.1172C114.026 12.0576 113.608 12.0241 113.19 12.0171C111.63 12.0371 111.08 12.8171 111.09 13.7871Z" fill="#042560"/>
<path d="M127.75 12.1472C128.196 12.1585 128.632 12.2785 129.02 12.4971L129.25 11.0771C128.772 10.7907 128.242 10.6036 127.69 10.5271C127.234 10.5302 126.786 10.6437 126.384 10.8579C125.981 11.0721 125.637 11.3806 125.38 11.7571C124.56 11.4871 124.22 12.0271 123.81 12.5671L123.44 12.6472C123.458 12.471 123.458 12.2934 123.44 12.1172H122.14C121.96 13.7572 121.65 15.4171 121.4 17.0571L121.33 17.4072H122.75C122.98 15.8972 123.11 14.9271 123.2 14.2771L123.75 14.0371C123.83 13.7471 124.08 13.6472 124.58 13.6572C124.513 14.0133 124.48 14.3747 124.48 14.7371C124.48 16.4671 125.48 17.5471 126.96 17.5471C127.384 17.5436 127.805 17.4797 128.21 17.3572L128.46 15.8772C128.09 16.078 127.68 16.194 127.26 16.217C127.064 16.2156 126.871 16.1715 126.694 16.0879C126.517 16.0042 126.36 15.883 126.234 15.7327C126.109 15.5823 126.017 15.4065 125.966 15.2173C125.916 15.0281 125.907 14.8302 125.94 14.6372C125.95 13.1372 126.69 12.1472 127.75 12.1472Z" fill="#042560"/>
<path d="M139.75 10.9072L139.43 12.7871C139.29 12.5454 139.095 12.3405 138.86 12.1892C138.625 12.0379 138.358 11.9445 138.08 11.917C137.692 11.9552 137.321 12.097 137.006 12.3274C136.691 12.5578 136.444 12.8685 136.29 13.2271C135.881 13.1382 135.477 13.0282 135.08 12.8972C135.08 12.4572 135.15 12.1872 135.15 12.1072H133.85C133.67 13.7472 133.36 15.4071 133.11 17.0471L133.04 17.3972H134.46C134.66 16.1772 134.8 15.1572 134.91 14.3972C135.052 14.193 135.233 14.0189 135.442 13.885C135.651 13.7511 135.885 13.6601 136.13 13.6172C135.906 14.1596 135.791 14.7404 135.79 15.3271C135.79 16.6471 136.47 17.5271 137.5 17.5271C137.747 17.5317 137.992 17.481 138.217 17.3789C138.442 17.2768 138.641 17.1259 138.8 16.937L138.73 17.427H140.07L141.15 10.927H139.75V10.9072ZM137.97 16.187C137.49 16.187 137.24 15.837 137.24 15.187C137.24 14.187 137.7 13.4072 138.34 13.4072C138.458 13.4161 138.573 13.45 138.677 13.5068C138.781 13.5637 138.871 13.6421 138.942 13.7368C139.013 13.8315 139.063 13.9403 139.089 14.0559C139.114 14.1715 139.115 14.2914 139.09 14.4072C139.1 15.4472 138.63 16.187 137.97 16.187Z" fill="#042560"/>
<path d="M106.12 17.0271H104.7L105.51 12.0271L103.71 17.0271H102.74L102.62 12.0471L101.77 17.0271H100.44L101.55 10.5271H103.59L103.64 14.5471L105.02 10.5271H107.22L106.12 17.0271Z" fill="white"/>
<path d="M109.61 14.667H109.29C108.49 14.667 108.08 14.937 108.08 15.467C108.073 15.5372 108.081 15.608 108.103 15.6748C108.126 15.7416 108.163 15.8027 108.211 15.854C108.26 15.9053 108.319 15.9455 108.384 15.9719C108.449 15.9983 108.52 16.0103 108.59 16.0071C108.746 15.9874 108.896 15.9369 109.032 15.8586C109.167 15.7803 109.286 15.6758 109.381 15.551C109.476 15.4263 109.545 15.2839 109.585 15.1321C109.624 14.9803 109.633 14.8222 109.61 14.667ZM110.61 17.0271H109.44V16.4771C109.26 16.6915 109.033 16.8611 108.776 16.9722C108.519 17.0833 108.24 17.1329 107.96 17.1172C107.778 17.1153 107.599 17.0755 107.433 17.0005C107.267 16.9255 107.119 16.8169 106.998 16.6814C106.877 16.5459 106.785 16.3865 106.728 16.2136C106.672 16.0407 106.652 15.858 106.67 15.677C106.67 14.387 107.58 13.677 109.16 13.677C109.353 13.6647 109.547 13.6647 109.74 13.677C109.776 13.5671 109.796 13.4528 109.8 13.3372C109.8 12.9872 109.55 12.8572 108.89 12.8572C108.38 12.8514 107.873 12.9326 107.39 13.0972C107.39 13.0172 107.59 11.9072 107.59 11.9072C108.139 11.7284 108.712 11.634 109.29 11.6272C110.51 11.6272 111.15 12.167 111.15 13.187C111.135 13.5224 111.098 13.8564 111.04 14.187C110.95 14.977 110.68 16.6271 110.65 17.0371L110.61 17.0271Z" fill="white"/>
<path d="M129.65 10.687L129.42 12.1072C129.032 11.8886 128.596 11.7683 128.15 11.7571C127.09 11.7571 126.35 12.757 126.35 14.197C126.318 14.3898 126.329 14.5872 126.38 14.7756C126.432 14.9641 126.523 15.1394 126.648 15.2893C126.774 15.4392 126.93 15.5603 127.106 15.6445C127.282 15.7287 127.475 15.7739 127.67 15.7771C128.091 15.7586 128.502 15.6421 128.87 15.437L128.62 16.917C128.215 17.0422 127.794 17.1098 127.37 17.1172C125.84 17.1172 124.89 16.0371 124.89 14.3171C124.89 11.9871 126.2 10.3171 128.09 10.3171C128.627 10.3547 129.154 10.4796 129.65 10.687Z" fill="white"/>
<path d="M131.94 14.667H131.62C130.82 14.667 130.41 14.937 130.41 15.467C130.403 15.5363 130.411 15.6063 130.433 15.6724C130.455 15.7384 130.491 15.799 130.538 15.8501C130.585 15.9012 130.643 15.9417 130.707 15.9688C130.771 15.9958 130.84 16.0089 130.91 16.0071C131.067 15.9887 131.218 15.9391 131.355 15.8613C131.492 15.7836 131.612 15.6793 131.708 15.5544C131.804 15.4296 131.874 15.2867 131.914 15.1343C131.954 14.9819 131.963 14.8229 131.94 14.667ZM132.94 17.0271H131.75V16.4771C131.57 16.6915 131.343 16.8611 131.086 16.9722C130.829 17.0833 130.55 17.1329 130.27 17.1172C130.088 17.1153 129.909 17.0755 129.743 17.0005C129.578 16.9255 129.429 16.8169 129.308 16.6814C129.187 16.5459 129.095 16.3865 129.038 16.2136C128.982 16.0407 128.962 15.858 128.98 15.677C128.98 14.387 129.89 13.677 131.47 13.677C131.663 13.6647 131.857 13.6647 132.05 13.677C132.086 13.5671 132.106 13.4528 132.11 13.3372C132.11 12.9872 131.87 12.8572 131.2 12.8572C130.69 12.8514 130.183 12.9326 129.7 13.0972C129.7 13.0172 129.9 11.9072 129.9 11.9072C130.449 11.7284 131.023 11.634 131.6 11.6272C132.82 11.6272 133.46 12.167 133.46 13.187C133.445 13.5224 133.409 13.8564 133.35 14.187C133.28 14.977 133.01 16.6271 132.97 17.0371L132.94 17.0271Z" fill="white"/>
<path d="M116.95 16.937C116.628 17.0486 116.291 17.1095 115.95 17.1172C115.794 17.1383 115.636 17.1223 115.488 17.0708C115.339 17.0193 115.205 16.9338 115.096 16.8208C114.987 16.7078 114.906 16.5707 114.86 16.4207C114.814 16.2706 114.804 16.1118 114.83 15.957C114.868 15.4834 114.934 15.0125 115.03 14.5471L115.64 10.937H117.05L116.88 11.7371H117.61L117.41 13.0071H116.68C116.51 14.0071 116.28 15.267 116.28 15.427C116.28 15.587 116.43 15.8171 116.76 15.8171C116.886 15.8348 117.014 15.8348 117.14 15.8171L116.95 16.937Z" fill="white"/>
<path d="M121.26 16.9073C120.794 17.0501 120.308 17.1208 119.82 17.1172C119.499 17.161 119.171 17.1303 118.864 17.0276C118.556 16.925 118.276 16.753 118.045 16.525C117.814 16.297 117.638 16.0192 117.532 15.7127C117.425 15.4062 117.391 15.0792 117.43 14.7571C117.43 12.9471 118.43 11.6172 119.9 11.6172C120.156 11.5991 120.413 11.6365 120.653 11.7269C120.893 11.8172 121.111 11.9583 121.291 12.1407C121.472 12.323 121.611 12.5422 121.699 12.7833C121.786 13.0243 121.821 13.2815 121.8 13.5372C121.79 13.976 121.73 14.4122 121.62 14.8372H118.82C118.73 15.5972 119.22 15.9271 120.04 15.9271C120.546 15.9255 121.045 15.8094 121.5 15.5872L121.26 16.9073ZM120.47 13.7672C120.506 13.662 120.517 13.5499 120.502 13.4398C120.487 13.3296 120.446 13.2246 120.383 13.1331C120.319 13.0417 120.236 12.9663 120.138 12.9131C120.04 12.86 119.931 12.8306 119.82 12.8272C119.583 12.8507 119.361 12.9583 119.196 13.1307C119.031 13.3031 118.933 13.5288 118.92 13.7672H120.48H120.47Z" fill="white"/>
<path d="M111.5 13.4073C111.5 13.7368 111.604 14.0577 111.798 14.3238C111.992 14.59 112.266 14.7874 112.58 14.8873C113.16 15.1473 113.24 15.2272 113.24 15.4772C113.24 15.7272 112.99 15.9571 112.43 15.9571C111.999 15.957 111.57 15.8896 111.16 15.7572L110.96 16.9772C111.443 17.0811 111.936 17.1349 112.43 17.1373C113.93 17.1373 114.62 16.5773 114.62 15.3673C114.642 15.0457 114.555 14.7261 114.374 14.4596C114.193 14.1931 113.927 13.9951 113.62 13.8973C113.02 13.6273 112.96 13.5673 112.96 13.3173C112.96 13.0673 113.19 12.8773 113.65 12.8773C113.985 12.88 114.319 12.9066 114.65 12.9571L114.85 11.7272C114.436 11.6675 114.019 11.6343 113.6 11.6273C112.04 11.6073 111.49 12.4273 111.5 13.4073Z" fill="white"/>
<path d="M140.48 17.0371H139.14L139.21 16.5471C139.05 16.7344 138.85 16.8842 138.626 16.9861C138.401 17.088 138.157 17.1397 137.91 17.1372C136.91 17.1372 136.2 16.257 136.2 14.937C136.2 13.177 137.25 11.697 138.5 11.697C138.767 11.6956 139.031 11.7608 139.266 11.8865C139.502 12.0122 139.703 12.1944 139.85 12.417L140.17 10.5371H141.57L140.48 17.0371ZM138.38 15.8171C139.04 15.8171 139.51 15.0771 139.51 14.0371C139.51 13.3671 139.25 13.0371 138.76 13.0371C138.27 13.0371 137.66 13.7771 137.66 14.8171C137.66 15.4471 137.9 15.8071 138.38 15.8071V15.8171Z" fill="white"/>
<path d="M134.25 11.7369C134.07 13.3769 133.76 15.0369 133.51 16.6769L133.44 17.027H134.86C135.36 13.797 135.49 13.1569 136.29 13.2369C136.389 12.6988 136.572 12.1792 136.83 11.6969C136.542 11.6654 136.252 11.731 136.006 11.8832C135.759 12.0354 135.571 12.2655 135.47 12.537C135.52 12.2731 135.547 12.0054 135.55 11.7369H134.25Z" fill="white"/>
<path d="M122.58 11.7369C122.4 13.3769 122.09 15.0369 121.84 16.6769L121.75 17.037H123.17C123.67 13.807 123.8 13.167 124.6 13.247C124.699 12.7088 124.882 12.1892 125.14 11.7069C124.852 11.6755 124.562 11.741 124.316 11.8932C124.069 12.0454 123.881 12.2755 123.78 12.547C123.83 12.2831 123.857 12.0154 123.86 11.747H122.56L122.58 11.7369Z" fill="white"/>
<path d="M141.09 16.6073C141.09 16.5526 141.101 16.4983 141.122 16.4479C141.143 16.3975 141.175 16.352 141.214 16.3138C141.253 16.2756 141.299 16.2455 141.35 16.2255C141.401 16.2055 141.455 16.1958 141.51 16.1971C141.619 16.1971 141.723 16.2404 141.8 16.3173C141.877 16.3942 141.92 16.4986 141.92 16.6073C141.92 16.716 141.877 16.8202 141.8 16.8971C141.723 16.974 141.619 17.0172 141.51 17.0172C141.455 17.0185 141.401 17.0089 141.35 16.9889C141.299 16.9689 141.253 16.939 141.214 16.9008C141.175 16.8626 141.143 16.8169 141.122 16.7665C141.101 16.7161 141.09 16.662 141.09 16.6073ZM141.52 16.9271C141.583 16.9271 141.645 16.9086 141.698 16.8734C141.75 16.8383 141.791 16.7881 141.816 16.7296C141.84 16.6711 141.846 16.6069 141.834 16.5448C141.822 16.4827 141.791 16.4257 141.746 16.381C141.702 16.3362 141.645 16.3057 141.583 16.2933C141.52 16.281 141.456 16.2874 141.398 16.3116C141.339 16.3359 141.289 16.3769 141.254 16.4296C141.219 16.4822 141.2 16.544 141.2 16.6073C141.2 16.6489 141.208 16.6899 141.225 16.7281C141.241 16.7664 141.265 16.801 141.294 16.83C141.324 16.8589 141.36 16.8816 141.398 16.8966C141.437 16.9116 141.479 16.9185 141.52 16.9171V16.9271ZM141.45 16.7972H141.37V16.4371H141.53C141.559 16.4279 141.591 16.4279 141.62 16.4371C141.626 16.4513 141.63 16.4668 141.63 16.4823C141.63 16.4978 141.626 16.5131 141.62 16.5272C141.619 16.5476 141.612 16.567 141.599 16.5831C141.587 16.5992 141.569 16.6112 141.55 16.6173L141.62 16.7772H141.53L141.47 16.6273H141.4V16.7772L141.45 16.7972ZM141.45 16.5973H141.55H141.45V16.6871V16.5973Z" fill="white"/>
<path d="M180.27 26.4771C187.478 26.4771 193.32 20.733 193.32 13.6471C193.32 6.56133 187.478 0.817139 180.27 0.817139C173.063 0.817139 167.22 6.56133 167.22 13.6471C167.22 20.733 173.063 26.4771 180.27 26.4771Z" fill="#E10023"/>
<path d="M170.19 21.7972C169.828 21.3659 169.494 20.9115 169.19 20.4371H173.82C174.099 20.0003 174.35 19.5462 174.57 19.0772H168.45C168.242 18.6343 168.058 18.1802 167.9 17.7171H175.14C175.587 16.4068 175.813 15.0317 175.81 13.6473C175.809 12.733 175.712 11.8211 175.52 10.9271H167.52C167.623 10.4674 167.75 10.0135 167.9 9.56722H175.13C174.972 9.10417 174.788 8.65005 174.58 8.20711H168.45C168.673 7.73916 168.923 7.28515 169.2 6.84725H173.82C173.52 6.3707 173.185 5.91611 172.82 5.48714H170.18C170.583 5.00251 171.021 4.54811 171.49 4.12728C169.076 1.97802 165.953 0.795707 162.72 0.807212C161.035 0.807212 159.367 1.13901 157.81 1.78377C156.254 2.42854 154.839 3.37365 153.648 4.56502C152.457 5.7564 151.512 7.17077 150.867 8.72738C150.222 10.284 149.89 11.9524 149.89 13.6373C149.89 15.3222 150.222 16.9904 150.867 18.547C151.512 20.1036 152.457 21.5179 153.648 22.7093C154.839 23.9007 156.254 24.8458 157.81 25.4906C159.367 26.1353 161.035 26.4671 162.72 26.4671C165.952 26.4739 169.073 25.2925 171.49 23.1473C171.962 22.7289 172.4 22.274 172.8 21.7872H170.16L170.19 21.7972Z" fill="#1186D1"/>
<path d="M191.59 20.7971C191.59 20.6857 191.634 20.579 191.713 20.5002C191.792 20.4215 191.899 20.3772 192.01 20.3772C192.121 20.3772 192.228 20.4215 192.307 20.5002C192.386 20.579 192.43 20.6857 192.43 20.7971C192.43 20.8518 192.419 20.9059 192.398 20.9563C192.377 21.0067 192.346 21.0524 192.306 21.0906C192.267 21.1288 192.221 21.1587 192.17 21.1787C192.119 21.1987 192.065 21.2084 192.01 21.207C191.9 21.2071 191.795 21.1643 191.717 21.0876C191.638 21.011 191.593 20.9068 191.59 20.7971ZM192.02 21.1172C192.062 21.1186 192.105 21.1113 192.144 21.0957C192.184 21.0801 192.219 21.0564 192.249 21.0264C192.279 20.9964 192.303 20.9606 192.319 20.9211C192.334 20.8817 192.341 20.8395 192.34 20.7971C192.34 20.7122 192.306 20.6308 192.246 20.5708C192.186 20.5108 192.105 20.4771 192.02 20.4771C191.935 20.4757 191.853 20.5083 191.792 20.5674C191.731 20.6265 191.696 20.7071 191.695 20.792C191.694 20.8769 191.726 20.9588 191.785 21.0198C191.844 21.0807 191.925 21.1159 192.01 21.1172H192.02ZM191.95 20.9771H191.87V20.6172H192.03C192.059 20.608 192.091 20.608 192.12 20.6172C192.126 20.6313 192.13 20.6466 192.13 20.6621C192.13 20.6776 192.126 20.6929 192.12 20.707C192.119 20.7274 192.112 20.7471 192.099 20.7632C192.087 20.7793 192.069 20.791 192.05 20.7971L192.12 20.957H192.03L191.97 20.8071H191.95V20.957V20.9771ZM191.95 20.7771H192.05H191.95V20.8772V20.7771Z" fill="#E10023"/>
<path d="M171.32 17.1071C170.775 17.2509 170.214 17.3215 169.65 17.317C167.83 17.317 166.88 16.4969 166.88 14.9369C166.847 14.5404 166.896 14.1414 167.023 13.7643C167.15 13.3872 167.352 13.0402 167.618 12.7443C167.884 12.4484 168.208 12.2099 168.569 12.0436C168.931 11.8773 169.322 11.7865 169.72 11.777C169.995 11.7398 170.275 11.7621 170.54 11.8422C170.806 11.9223 171.051 12.0582 171.259 12.2411C171.468 12.424 171.635 12.6496 171.749 12.9025C171.863 13.1554 171.921 13.4296 171.92 13.7069C171.912 14.1473 171.845 14.5846 171.72 15.007H168.49C168.38 15.767 168.94 16.1071 169.91 16.1071C170.487 16.1074 171.058 15.9917 171.59 15.767L171.32 17.1071ZM170.45 13.9569C170.497 13.8404 170.513 13.7137 170.497 13.589C170.481 13.4643 170.433 13.3459 170.357 13.2453C170.282 13.1447 170.182 13.0653 170.067 13.0148C169.951 12.9643 169.825 12.9443 169.7 12.9569C169.44 12.9713 169.193 13.0813 169.009 13.2658C168.824 13.4503 168.714 13.6964 168.7 13.9569H170.49H170.45Z" fill="#042560"/>
<path d="M172.42 13.6073C172.435 13.9591 172.567 14.2957 172.796 14.5638C173.024 14.832 173.335 15.0163 173.68 15.0873C174.35 15.3573 174.45 15.4271 174.45 15.6771C174.45 15.9271 174.15 16.1573 173.45 16.1573C172.954 16.1569 172.459 16.0894 171.98 15.9571L171.75 17.1871C172.318 17.2869 172.893 17.3406 173.47 17.3473C175.22 17.3473 176.02 16.7873 176.02 15.5673C176.028 15.2244 175.917 14.8892 175.706 14.6193C175.494 14.3493 175.195 14.1613 174.86 14.0873C174.17 13.8173 174.09 13.7472 174.09 13.5072C174.09 13.2672 174.37 13.0673 174.9 13.0673C175.298 13.0694 175.696 13.0962 176.09 13.1473L176.32 11.9171C175.836 11.8577 175.348 11.8245 174.86 11.8173C173.06 11.7973 172.41 12.6173 172.42 13.6073Z" fill="#042560"/>
<path d="M166 17.2371H164.64V16.677C164.417 16.8993 164.149 17.0715 163.854 17.1819C163.559 17.2923 163.244 17.3384 162.93 17.3171C162.735 17.3299 162.539 17.3015 162.355 17.2336C162.171 17.1658 162.003 17.06 161.863 16.9233C161.722 16.7867 161.612 16.6221 161.539 16.4402C161.467 16.2582 161.433 16.063 161.44 15.8672C161.44 14.5772 162.49 13.8672 164.31 13.8672C164.533 13.855 164.757 13.855 164.98 13.8672C165.019 13.7575 165.042 13.643 165.05 13.5271C165.05 13.1771 164.76 13.0471 164 13.0471C163.416 13.0448 162.834 13.1222 162.27 13.2771L162.5 12.0872C163.135 11.9079 163.791 11.8137 164.45 11.8071C165.86 11.8071 166.59 12.3472 166.59 13.3672C166.577 13.7202 166.533 14.0713 166.46 14.417C166.43 14.747 166.04 16.7671 166 17.2371ZM164.81 14.8572C164.69 14.8492 164.57 14.8492 164.45 14.8572C163.53 14.8572 163.05 15.1272 163.05 15.6572C163.047 15.7338 163.06 15.8101 163.089 15.8811C163.118 15.9521 163.162 16.0161 163.218 16.0684C163.274 16.1206 163.341 16.1601 163.414 16.1841C163.487 16.2081 163.564 16.2158 163.64 16.207C163.806 16.1982 163.968 16.1563 164.117 16.0837C164.266 16.0111 164.399 15.9094 164.508 15.7844C164.618 15.6595 164.7 15.514 164.752 15.3564C164.804 15.1989 164.824 15.0325 164.81 14.8672V14.8572Z" fill="#042560"/>
<path d="M178.93 17.1572C178.554 17.2703 178.163 17.3308 177.77 17.3372C177.606 17.3645 177.437 17.3543 177.277 17.3076C177.117 17.2609 176.97 17.1788 176.846 17.0674C176.722 16.956 176.625 16.8182 176.562 16.6641C176.498 16.5099 176.47 16.3434 176.48 16.177C176.522 15.6993 176.595 15.225 176.7 14.7571C176.7 14.4971 177.46 10.6472 177.46 10.6472H179.07L178.83 11.927H179.66L179.44 13.217H178.61C178.61 13.217 178.15 15.4672 178.15 15.6372C178.15 15.8072 178.32 16.0271 178.71 16.0271C178.856 16.0452 179.004 16.0452 179.15 16.0271L178.93 17.1572Z" fill="#042560"/>
<path d="M186.15 11.7971C185.636 11.7696 185.124 11.8726 184.661 12.0964C184.197 12.3202 183.798 12.6576 183.5 13.0771L183.97 11.8972C183.612 11.7767 183.223 11.7869 182.871 11.926C182.52 12.0651 182.229 12.3242 182.05 12.6572L181.88 12.8572V11.927H180.36C180.16 13.577 179.79 15.247 179.5 16.927L179.43 17.2771H181.06C181.22 16.4371 181.34 15.757 181.47 15.217C181.81 13.737 182.4 13.277 183.28 13.477C183.064 13.9368 182.955 14.4392 182.96 14.947C182.935 15.2822 182.985 15.6189 183.106 15.9324C183.227 16.2458 183.417 16.5281 183.661 16.759C183.906 16.9899 184.198 17.1634 184.518 17.2668C184.838 17.3703 185.177 17.4012 185.51 17.3572C185.938 17.4029 186.37 17.3523 186.775 17.2092C187.181 17.0661 187.549 16.834 187.853 16.53C188.157 16.226 188.389 15.8578 188.532 15.4524C188.675 15.047 188.726 14.6145 188.68 14.187C188.698 13.8562 188.644 13.5257 188.521 13.218C188.398 12.9103 188.21 12.633 187.969 12.4055C187.728 12.178 187.441 12.0057 187.127 11.9006C186.813 11.7955 186.479 11.7603 186.15 11.7971ZM185.67 16.0371C185.53 16.028 185.393 15.9895 185.269 15.9241C185.145 15.8586 185.036 15.7676 184.949 15.6572C184.862 15.5468 184.8 15.4196 184.766 15.2834C184.731 15.1473 184.726 15.0055 184.75 14.8672C184.705 14.4549 184.817 14.0406 185.063 13.707C185.31 13.3735 185.673 13.1451 186.08 13.0671C186.212 13.0665 186.343 13.0948 186.463 13.1504C186.583 13.2059 186.689 13.2872 186.774 13.3884C186.859 13.4896 186.92 13.6082 186.954 13.7358C186.988 13.8635 186.994 13.9972 186.97 14.1272C186.97 15.3272 186.46 16.0371 185.67 16.0371Z" fill="#042560"/>
<path d="M160.71 17.2371H159.08L160.05 12.2471L157.82 17.2371H156.34L156.07 12.2771L155.1 17.2371H153.63L154.89 10.7371H157.42L157.64 14.3571L159.25 10.7371H161.99L160.71 17.2371Z" fill="#042560"/>
<path d="M188.83 16.4271C188.83 16.3724 188.841 16.3184 188.862 16.2679C188.883 16.2175 188.915 16.1719 188.954 16.1337C188.993 16.0955 189.039 16.0655 189.09 16.0455C189.141 16.0255 189.195 16.0159 189.25 16.0172C189.36 16.0172 189.465 16.06 189.544 16.1366C189.622 16.2132 189.667 16.3175 189.67 16.4271C189.67 16.4818 189.659 16.5361 189.638 16.5865C189.617 16.637 189.586 16.6826 189.546 16.7208C189.507 16.759 189.461 16.789 189.41 16.809C189.359 16.829 189.305 16.8386 189.25 16.8373C189.14 16.8373 189.035 16.7943 188.957 16.7177C188.878 16.641 188.833 16.5368 188.83 16.4271ZM189.25 16.7472C189.292 16.7486 189.335 16.7413 189.374 16.7257C189.414 16.7101 189.449 16.6866 189.479 16.6566C189.509 16.6266 189.533 16.5908 189.549 16.5514C189.564 16.5119 189.571 16.4695 189.57 16.4271C189.57 16.3423 189.536 16.2611 189.476 16.201C189.416 16.141 189.335 16.1073 189.25 16.1073C189.208 16.1059 189.165 16.1132 189.126 16.1288C189.087 16.1444 189.051 16.1679 189.021 16.1979C188.991 16.2279 188.967 16.2636 188.952 16.3031C188.936 16.3426 188.929 16.3847 188.93 16.4271C188.933 16.5112 188.967 16.5913 189.027 16.6508C189.086 16.7102 189.166 16.7447 189.25 16.7472ZM189.19 16.6073H189.11V16.2472H189.27C189.299 16.238 189.331 16.238 189.36 16.2472C189.366 16.2613 189.37 16.2766 189.37 16.2921C189.37 16.3076 189.366 16.3231 189.36 16.3373C189.359 16.3576 189.352 16.3771 189.339 16.3932C189.327 16.4093 189.309 16.421 189.29 16.4271L189.36 16.5873H189.27L189.21 16.4371H189.14V16.5873L189.19 16.6073ZM189.19 16.4073H189.29H189.19V16.4972V16.4073Z" fill="white"/>
<path d="M171.75 16.707C171.205 16.8508 170.644 16.9214 170.08 16.917C168.26 16.917 167.31 16.0971 167.31 14.5371C167.277 14.1406 167.326 13.7415 167.453 13.3645C167.58 12.9874 167.783 12.6404 168.049 12.3444C168.314 12.0485 168.638 11.8101 169 11.6438C169.361 11.4774 169.753 11.3867 170.15 11.3772C170.425 11.34 170.705 11.362 170.97 11.4421C171.236 11.5222 171.481 11.6584 171.69 11.8413C171.898 12.0242 172.065 12.2495 172.179 12.5024C172.293 12.7553 172.351 13.0297 172.35 13.3071C172.342 13.7474 172.275 14.1847 172.15 14.6071H168.91C168.8 15.3671 169.36 15.697 170.33 15.697C170.906 15.6963 171.477 15.5844 172.01 15.3671L171.75 16.707ZM170.87 13.5571C170.917 13.4405 170.934 13.3136 170.917 13.1889C170.901 13.0642 170.853 12.946 170.777 12.8454C170.702 12.7448 170.602 12.6655 170.487 12.615C170.372 12.5644 170.245 12.5445 170.12 12.5571C169.86 12.5715 169.614 12.6814 169.429 12.8659C169.245 13.0504 169.135 13.2965 169.12 13.5571H170.91H170.87Z" fill="white"/>
<path d="M172.82 13.1971C172.835 13.5489 172.967 13.8858 173.196 14.1539C173.424 14.422 173.735 14.6061 174.08 14.6771C174.75 14.9471 174.85 15.0172 174.85 15.2672C174.85 15.5172 174.55 15.7472 173.85 15.7472C173.353 15.7467 172.859 15.6795 172.38 15.5472L172.15 16.7772C172.718 16.8816 173.293 16.9351 173.87 16.9371C175.62 16.9371 176.42 16.3773 176.42 15.1573C176.428 14.8144 176.317 14.4793 176.105 14.2093C175.894 13.9394 175.595 13.7512 175.26 13.6771C174.57 13.4071 174.49 13.3373 174.49 13.0973C174.49 12.8573 174.77 12.6573 175.3 12.6573C175.698 12.6594 176.095 12.686 176.49 12.7372L176.72 11.5072C176.236 11.4478 175.748 11.4145 175.26 11.4073C173.47 11.3973 172.82 12.2171 172.82 13.1971Z" fill="white"/>
<path d="M166.41 16.8372H165.05V16.2771C164.827 16.4989 164.559 16.6707 164.264 16.781C163.969 16.8913 163.654 16.9376 163.34 16.917C163.145 16.9297 162.949 16.9013 162.765 16.8335C162.581 16.7657 162.413 16.6601 162.273 16.5234C162.132 16.3868 162.022 16.222 161.949 16.04C161.877 15.8581 161.843 15.6629 161.85 15.467C161.85 14.167 162.9 13.467 164.72 13.467C164.943 13.4549 165.167 13.4549 165.39 13.467C165.428 13.3573 165.452 13.2431 165.46 13.1272C165.46 12.7772 165.17 12.6472 164.41 12.6472C163.826 12.6449 163.244 12.7223 162.68 12.8772L162.91 11.687C163.561 11.5035 164.234 11.4095 164.91 11.4072C166.32 11.4072 167.05 11.947 167.05 12.967C167.037 13.3201 166.993 13.6714 166.92 14.0171C166.84 14.3471 166.45 16.3672 166.41 16.8372ZM165.22 14.457C165.1 14.4492 164.98 14.4492 164.86 14.457C163.94 14.457 163.46 14.7271 163.46 15.2571C163.457 15.3337 163.47 15.4102 163.499 15.4812C163.528 15.5522 163.572 15.6159 163.628 15.6682C163.684 15.7205 163.751 15.76 163.824 15.7839C163.897 15.8079 163.974 15.8159 164.05 15.8071C164.216 15.7983 164.378 15.7564 164.527 15.6838C164.676 15.6112 164.809 15.5095 164.918 15.3845C165.027 15.2596 165.11 15.1139 165.162 14.9563C165.214 14.7987 165.234 14.6324 165.22 14.467V14.457Z" fill="white"/>
<path d="M179.34 16.7571C178.964 16.8702 178.573 16.9307 178.18 16.937C178.016 16.9643 177.847 16.9544 177.687 16.9077C177.527 16.861 177.38 16.7789 177.256 16.6675C177.132 16.5561 177.035 16.4181 176.972 16.2639C176.908 16.1098 176.88 15.9435 176.89 15.7771C176.931 15.3026 177.005 14.8316 177.11 14.3672C177.11 14.1072 177.87 10.2571 177.87 10.2571H179.48L179.24 11.5371H180.07L179.85 12.8271H179.02C179.02 12.8271 178.56 15.0771 178.56 15.2471C178.56 15.4171 178.73 15.6372 179.12 15.6372C179.266 15.6553 179.414 15.6553 179.56 15.6372L179.34 16.7571Z" fill="white"/>
<path d="M187.38 13.7271C187.38 14.9271 186.88 15.6372 186.09 15.6372C185.95 15.6281 185.813 15.5894 185.689 15.524C185.565 15.4585 185.456 15.3677 185.369 15.2574C185.282 15.147 185.22 15.0195 185.185 14.8833C185.151 14.7472 185.146 14.6054 185.17 14.4671C185.125 14.0548 185.237 13.6407 185.483 13.3072C185.73 12.9736 186.093 12.745 186.5 12.667C186.631 12.6695 186.759 12.7004 186.877 12.7571C186.995 12.8138 187.099 12.895 187.183 12.9956C187.266 13.0962 187.327 13.2137 187.361 13.3399C187.395 13.4661 187.402 13.5981 187.38 13.7271ZM189.12 13.7271C189.131 13.3965 189.07 13.0676 188.942 12.7625C188.815 12.4573 188.623 12.183 188.381 11.9583C188.138 11.7336 187.85 11.5637 187.536 11.46C187.222 11.3563 186.889 11.3212 186.56 11.3572C186.143 11.3332 185.725 11.3967 185.333 11.5437C184.942 11.6907 184.585 11.9179 184.287 12.2107C183.988 12.5036 183.754 12.8556 183.6 13.2442C183.446 13.6328 183.374 14.0492 183.39 14.4671C183.367 14.8028 183.418 15.1395 183.54 15.4529C183.663 15.7663 183.854 16.0487 184.099 16.2793C184.344 16.51 184.637 16.6833 184.957 16.7867C185.277 16.89 185.616 16.921 185.95 16.8772C186.372 16.9233 186.8 16.875 187.201 16.7359C187.603 16.5968 187.968 16.3703 188.272 16.0728C188.575 15.7752 188.808 15.4141 188.955 15.0154C189.102 14.6167 189.158 14.1903 189.12 13.7671V13.7271Z" fill="white"/>
<path d="M180.75 11.5172C180.55 13.1672 180.18 14.8372 179.89 16.5172L179.82 16.8773H181.45C182.04 13.6873 182.23 12.7873 183.45 13.1073L184.05 11.5973C183.693 11.4773 183.305 11.4879 182.956 11.627C182.606 11.7662 182.317 12.025 182.14 12.3573C182.206 12.0955 182.243 11.8271 182.25 11.5572H180.75V11.5172Z" fill="white"/>
<path d="M161.12 16.8372H159.49L160.46 11.8472L158.23 16.8372H156.75L156.48 11.8772L155.51 16.8372H154.04L155.3 10.3372H157.83L157.97 14.3572L159.75 10.3372H162.4L161.12 16.8372Z" fill="white"/>
</svg>
