<svg width="25" height="22" viewBox="0 0 25 22" fill="none" xmlns="http://www.w3.org/2000/svg">
<path d="M10.6292 17.7801C10.2139 17.7824 9.80862 17.9063 9.46448 18.1359C9.12035 18.3656 8.85277 18.6908 8.69551 19.0706C8.53825 19.4503 8.49834 19.8675 8.58083 20.2697C8.66332 20.6718 8.86451 21.0407 9.15901 21.33C9.45351 21.6193 9.82814 21.8159 10.2356 21.8951C10.6431 21.9743 11.0652 21.9325 11.4487 21.7749C11.8321 21.6174 12.1598 21.3511 12.3902 21.0098C12.6207 20.6685 12.7437 20.2674 12.7437 19.8571C12.7437 19.5834 12.689 19.3123 12.5825 19.0595C12.4761 18.8067 12.3202 18.5772 12.1237 18.3842C11.9271 18.1911 11.6939 18.0384 11.4375 17.9347C11.181 17.831 10.9063 17.7785 10.6292 17.7801ZM10.6292 20.7816C10.4427 20.7888 10.2584 20.7407 10.0998 20.6436C9.94115 20.5465 9.81556 20.4047 9.73911 20.2366C9.66267 20.0684 9.63886 19.8815 9.67074 19.6999C9.70262 19.5182 9.78874 19.3502 9.91804 19.2172C10.0473 19.0843 10.2139 18.9926 10.3963 18.9539C10.5788 18.9153 10.7688 18.9313 10.9419 19.0001C11.115 19.0689 11.2634 19.1873 11.3679 19.34C11.4724 19.4927 11.5283 19.6728 11.5285 19.8571C11.5255 20.0941 11.4306 20.3209 11.2632 20.4907C11.0959 20.6606 10.8689 20.7604 10.6292 20.7696V20.7816Z" fill="currentColor"></path>
<path d="M18.0182 17.78C17.6023 17.78 17.1959 17.9018 16.8501 18.1301C16.5044 18.3583 16.2349 18.6827 16.0758 19.0622C15.9167 19.4418 15.875 19.8594 15.9562 20.2623C16.0373 20.6652 16.2375 21.0353 16.5315 21.3258C16.8256 21.6163 17.2002 21.8141 17.608 21.8942C18.0158 21.9744 18.4386 21.9333 18.8227 21.7761C19.2069 21.6188 19.5352 21.3526 19.7662 21.011C19.9973 20.6695 20.1206 20.2679 20.1206 19.8571C20.1206 19.3062 19.8991 18.7779 19.5048 18.3884C19.1105 17.9989 18.5758 17.78 18.0182 17.78ZM18.0182 20.7816C17.8331 20.7816 17.6522 20.7273 17.4983 20.6258C17.3444 20.5242 17.2245 20.3798 17.1536 20.2109C17.0828 20.0419 17.0643 19.8561 17.1004 19.6767C17.1365 19.4974 17.2256 19.3327 17.3565 19.2034C17.4874 19.0741 17.6541 18.9861 17.8356 18.9504C18.0171 18.9147 18.2053 18.933 18.3763 19.003C18.5472 19.073 18.6934 19.1915 18.7962 19.3435C18.899 19.4955 18.9539 19.6742 18.9539 19.8571C18.9507 20.1002 18.8507 20.3323 18.6756 20.503C18.5004 20.6738 18.2642 20.7696 18.0182 20.7696V20.7816Z" fill="currentColor"></path>
<path d="M24.2644 4.23725C24.1528 4.10479 24.0136 3.99763 23.8564 3.92305C23.6991 3.84847 23.5274 3.80822 23.353 3.80503H5.05123L4.6745 2.02812C4.62678 1.8563 4.54096 1.69713 4.42325 1.56215C4.30554 1.42717 4.1589 1.31976 3.99396 1.24772L1.41762 0.0471026C1.26774 -0.0149898 1.09904 -0.0157199 0.948627 0.045073C0.79821 0.105866 0.678398 0.223202 0.615548 0.371269C0.552698 0.519335 0.551959 0.686003 0.613494 0.834608C0.675028 0.983213 0.793795 1.10158 0.943667 1.16367L3.52001 2.26824L6.37586 15.9072C6.43242 16.1683 6.57545 16.4033 6.78233 16.5751C6.98921 16.7469 7.24815 16.8456 7.5182 16.8557H21.603C21.7642 16.8557 21.9187 16.7925 22.0327 16.6799C22.1466 16.5673 22.2106 16.4146 22.2106 16.2554C22.2106 16.0962 22.1466 15.9435 22.0327 15.8309C21.9187 15.7183 21.7642 15.6551 21.603 15.6551H7.5182L7.17793 14.0103H21.761C22.0299 14.0041 22.289 13.91 22.498 13.7427C22.7069 13.5754 22.8537 13.3444 22.9155 13.0858L24.5561 5.19774C24.5804 5.02633 24.567 4.85175 24.5166 4.68597C24.4663 4.52018 24.3802 4.36711 24.2644 4.23725ZM21.7124 12.8577H6.93488L5.29428 4.96962H23.353L21.7124 12.8577Z" fill="currentColor"></path>
</svg>