<svg width="23" height="23" viewBox="0 0 23 23" fill="none" xmlns="http://www.w3.org/2000/svg">
<path d="M11.6218 0.676026C16.0232 0.675384 20.0011 3.29893 21.7335 7.34504L21.8706 7.39049L21.8174 7.54996C24.0983 13.1756 21.387 19.5851 15.7614 21.866C14.4475 22.3987 13.0429 22.6722 11.6251 22.6714C5.55124 22.6724 0.62665 17.7492 0.625734 11.6754C0.624817 5.60153 5.54794 0.676896 11.6218 0.676026ZM2.99537 17.2186L3.56011 16.6542V15.3396C3.55947 15.2829 3.57202 15.2268 3.59677 15.1758L5.02647 12.3204V10.9406C5.02647 10.818 5.08764 10.7036 5.1896 10.6356L6.28937 9.90237C6.37556 9.84482 6.48211 9.82644 6.58264 9.85178L7.9295 10.1883L10.1917 9.21758L10.503 7.0371L9.64037 6.17488H7.78872L7.16552 7.11152C7.10925 7.19574 7.02058 7.25298 6.92064 7.26952L4.7211 7.63611C4.66217 7.64601 4.60177 7.6412 4.54513 7.62218L2.51936 6.94692C0.820255 10.2075 1.00199 14.1292 2.99537 17.2186ZM4.50738 4.28841L5.10345 4.68579L6.76521 4.35329L7.84335 3.9944C7.90933 3.97199 7.98036 3.96915 8.0479 3.98634L9.41089 4.3269L10.0084 4.12784L9.56559 3.24216H8.32578C8.26891 3.2422 8.21282 3.22905 8.16191 3.20367L6.89351 2.56946C6.02002 3.02541 5.21645 3.60426 4.50738 4.28841ZM15.6404 2.2278L14.7605 2.81435C14.7173 2.84312 14.6684 2.86237 14.6172 2.8708L12.8407 3.16701L13.0141 3.68573L13.9397 3.99477C14.0226 4.02235 14.093 4.07863 14.1381 4.1535L15.1909 5.908L16.882 6.92272L19.3748 7.27868C19.5555 7.30421 19.6898 7.45877 19.6901 7.64124V8.74101C19.6901 8.83825 19.6514 8.93146 19.5827 9.00019L18.9569 9.62596V10.2558L20.4819 9.23884L21.0351 7.57929C19.9826 5.17446 18.0536 3.26085 15.6404 2.2278ZM16.684 14.2472L18.341 13.9154L18.9569 12.687V11.8255L17.591 10.4596L17.0855 11.471C17.0234 11.5953 16.8963 11.6738 16.7574 11.6737H14.3987L13.4056 13.3289C13.3394 13.4392 13.2201 13.5066 13.0915 13.5067H12.0723L12.3289 14.7923L13.7169 16.1802C13.7857 16.2489 13.8245 16.3421 13.8246 16.4394V17.3559L15.1444 18.3457C15.2366 18.4149 15.291 18.5236 15.291 18.639V19.9631L15.747 19.812L16.3908 18.202V14.6065C16.3907 14.4322 16.5133 14.282 16.684 14.2472ZM17.786 19.8827C21.2425 17.2895 22.7042 12.8091 21.442 8.67649L21.1374 9.59004C21.1117 9.66734 21.061 9.73392 20.9933 9.7792L19.1659 10.9974L19.5827 11.4146C19.6514 11.4833 19.6901 11.5765 19.6901 11.6737V12.7735C19.6901 12.8304 19.677 12.8865 19.6516 12.9374L18.9184 14.4037C18.8676 14.505 18.7729 14.5771 18.6618 14.5991L17.1221 14.9067V18.2724C17.1222 18.3189 17.1133 18.3651 17.0961 18.4084L16.3629 20.2413C16.3228 20.3414 16.2406 20.4188 16.1382 20.4528L15.0384 20.8194C15.0017 20.8319 14.9632 20.8383 14.9244 20.8385C14.722 20.8385 14.5578 20.6744 14.5578 20.4719V18.8222L13.2381 17.8325C13.1458 17.7632 13.0915 17.6546 13.0915 17.5392V16.5912L11.7325 15.2322C11.6814 15.181 11.6466 15.1158 11.6324 15.0449L11.2658 13.2119C11.2261 13.0134 11.3549 12.8203 11.5535 12.7806C11.5771 12.7759 11.601 12.7735 11.6251 12.7735H12.884L13.8771 11.1184C13.9433 11.0081 14.0626 10.9406 14.1912 10.9406H16.5308L17.1606 9.67692C17.2133 9.57143 17.3136 9.49775 17.43 9.47896C17.5464 9.45884 17.6653 9.49724 17.7479 9.5816L18.2237 10.0556V9.47419C18.2237 9.37696 18.2624 9.28375 18.3311 9.21501L18.9569 8.58924V7.95907L16.7053 7.63758C16.657 7.63056 16.6104 7.61398 16.5686 7.58882L14.7356 6.48905C14.6842 6.45816 14.6411 6.41509 14.6102 6.36367L13.5801 4.64693L12.609 4.32287C12.4994 4.28689 12.4133 4.20088 12.3773 4.09118L12.0107 2.99141C11.9472 2.79918 12.0516 2.59183 12.2438 2.52831C12.2615 2.52245 12.2797 2.51796 12.2982 2.51484L14.42 2.16108L14.7928 1.91253C12.4859 1.16167 9.9873 1.2546 7.74253 2.17465L8.4123 2.50898H9.79214C9.93177 2.5082 10.0597 2.58683 10.1221 2.7117L10.8553 4.17806C10.9456 4.35925 10.8719 4.57939 10.6907 4.66971C10.6753 4.6774 10.6594 4.684 10.643 4.68946L9.54323 5.05605C9.47724 5.07845 9.40621 5.0813 9.33867 5.06411L7.97569 4.72355L6.97709 5.05605C6.9628 5.06118 6.94809 5.06512 6.9331 5.06778L5.10015 5.43437C5.00484 5.4538 4.90568 5.43428 4.82484 5.38011L3.99048 4.82363C3.57986 5.281 3.21084 5.77406 2.88778 6.29695L4.6914 6.89816L6.64423 6.57263L7.28943 5.60483C7.35707 5.50342 7.47071 5.4423 7.5926 5.4417H9.79214C9.88938 5.4417 9.98258 5.48037 10.0513 5.54911L11.1511 6.64888C11.2327 6.73049 11.2712 6.84583 11.2548 6.96012L10.8882 9.52625C10.8698 9.65314 10.7864 9.76114 10.6683 9.81109L8.10216 10.9109C8.02866 10.9427 7.94663 10.9493 7.86901 10.9296L6.55991 10.6022L5.75965 11.1367V12.4069C5.76029 12.4636 5.74773 12.5197 5.72299 12.5708L4.29329 15.4262V16.806C4.29329 16.9032 4.25461 16.9964 4.18588 17.0652L3.41897 17.8325C6.82015 22.3659 13.2525 23.2839 17.786 19.8827Z" fill="currentColor"></path>
</svg>