<svg width="25" height="20" viewBox="0 0 25 20" fill="none" xmlns="http://www.w3.org/2000/svg">
<path d="M14.8677 0.341153C12.9697 0.350491 11.1162 0.917333 9.53768 1.97125C7.95912 3.02516 6.72504 4.51968 5.98877 6.26911H7.28876C8.10245 4.5921 9.44241 3.22733 11.1042 2.38301C12.766 1.5387 14.6584 1.2612 16.4926 1.59285C18.3269 1.92451 20.0022 2.84711 21.2632 4.21989C22.5241 5.59267 23.3013 7.34026 23.4762 9.19602C23.6511 11.0518 23.2141 12.9138 22.2319 14.498C21.2497 16.0822 19.7762 17.3016 18.0363 17.9702C16.2963 18.6387 14.3854 18.7197 12.5951 18.2008C10.8048 17.6818 9.23346 16.5915 8.12075 15.096H6.70376C7.59228 16.5266 8.8394 17.7001 10.3214 18.4999C11.8034 19.2998 13.4688 19.6983 15.1523 19.6558C16.8359 19.6134 18.479 19.1315 19.9189 18.2581C21.3587 17.3846 22.5451 16.1498 23.3604 14.6762C24.1758 13.2027 24.5916 11.5416 24.5668 9.85767C24.542 8.17378 24.0774 6.52564 23.219 5.07676C22.3606 3.62787 21.1383 2.42859 19.6734 1.5979C18.2084 0.767201 16.5518 0.33396 14.8677 0.341153Z" fill="currentColor"></path>
<path fill-rule="evenodd" clip-rule="evenodd" d="M16.1677 11.1071H1.16782C0.836476 11.1071 0.567871 10.8385 0.567871 10.5072C0.567871 10.1758 0.836475 9.90723 1.16782 9.90723H16.1677V11.1071Z" fill="currentColor"></path>
<path d="M15.6218 10.5071L12.8658 13.2631L13.7888 14.1861L17.4548 10.5071L13.7888 6.82812L12.8658 7.75112L15.6218 10.5071Z" fill="currentColor"></path>
</svg>