<svg width="140" height="82" viewBox="0 0 140 82" fill="none" xmlns="http://www.w3.org/2000/svg">
<path d="M4.12812 9.77748C3.10096 9.78521 2.11029 9.39716 1.36183 8.69366C0.613365 7.99015 0.16461 7.02538 0.10878 5.99971C0.10877 5.50472 0.206675 5.01456 0.396828 4.55755C0.586981 4.10055 0.865639 3.68559 1.21677 3.3367C1.5679 2.98782 1.98456 2.71179 2.44278 2.52457C2.901 2.33735 3.39172 2.24262 3.8867 2.24581H36.5844C41.1348 2.24581 46.168 2.24597 50.0424 3.62195C54.8448 5.20886 59.1169 8.08839 62.3896 11.9445C65.6623 15.8007 67.8091 20.4841 68.594 25.4806C70.0424 35.0642 67.4595 43.4168 62.1969 49.1863C59.3292 52.3351 55.7994 54.8093 51.8612 56.4309C47.923 58.0525 43.6743 58.7813 39.4208 58.5647C35.7526 58.3779 32.1576 57.4667 28.8431 55.884C25.5286 54.3013 22.5601 52.0783 20.1088 49.343C18.0086 46.929 7.53187 33.0364 7.53187 33.0364V54.5815C7.47744 55.5418 7.05759 56.4448 6.35846 57.1054C5.65934 57.7661 4.73394 58.1342 3.77207 58.1342C2.8102 58.1342 1.88473 57.7661 1.18561 57.1054C0.486482 56.4448 0.0666328 55.5418 0.0121994 54.5815V22.1254C-0.00565366 21.6388 0.0748637 21.1536 0.248826 20.6988C0.422788 20.2441 0.686677 19.829 1.02471 19.4786C1.36275 19.1281 1.76797 18.8496 2.21617 18.6594C2.66438 18.4692 3.14631 18.3711 3.6332 18.3715C5.34715 18.3715 6.28867 19.1561 8.37679 21.7753C8.37679 21.7753 17.3207 33.7366 19.2398 36.1506C21.8734 39.6839 24.7149 43.0575 27.7491 46.2533C30.6339 49.0777 36.9706 51.8779 43.8264 50.9968C47.4219 50.5072 50.8232 49.0728 53.6835 46.84C56.5439 44.6073 58.761 41.656 60.1089 38.287C62.8488 31.045 62.9332 21.1959 52.0098 12.94C48.8167 10.761 45.01 9.66117 41.1468 9.80165L4.12812 9.77748Z" fill="#3A5898"/>
<path d="M140 0.302612H68.9922V60.5079H140V0.302612Z" fill="#3A5898"/>
<path d="M97.4895 58.3834C93.4387 58.4604 89.4186 57.6664 85.7015 56.0546C81.9844 54.4428 78.657 52.0509 75.9446 49.0412C70.4768 43.0062 68.2318 34.6658 69.6199 25.4926C70.3959 20.5297 72.5243 15.8767 75.7714 12.0441C79.0184 8.21149 83.2587 5.34743 88.0267 3.7666C92.0098 2.40269 97.2481 2.40283 101.424 2.40283H134.122C134.588 2.40283 135.049 2.49472 135.48 2.67305C135.911 2.85138 136.302 3.11265 136.631 3.44216C136.961 3.77168 137.222 4.16294 137.4 4.59347C137.579 5.024 137.671 5.48534 137.671 5.95135C137.615 6.91617 137.19 7.82269 136.485 8.48322C135.779 9.14375 134.847 9.50766 133.881 9.49986H96.886C92.9643 9.35491 89.099 10.4673 85.8541 12.6744C73.7841 21.8235 75.5221 32.6503 77.6706 38.287C79.0204 41.7158 81.2636 44.7207 84.1672 46.9897C87.0708 49.2587 90.5289 50.7089 94.1823 51.1897C95.0593 51.2982 95.942 51.3548 96.8257 51.3589C101.814 51.4098 106.65 49.6419 110.429 46.3859C113.474 43.1845 116.323 39.803 118.962 36.2593C120.797 33.8453 129.68 22.0165 129.825 21.8837C131.974 19.18 132.818 18.5645 134.4 18.5645C134.861 18.5625 135.317 18.654 135.742 18.8332C136.167 19.0124 136.551 19.2755 136.871 19.607C137.191 19.9386 137.441 20.3318 137.606 20.7625C137.77 21.1931 137.845 21.6526 137.828 22.1133V54.5694C137.828 55.5105 137.454 56.4131 136.788 57.0786C136.123 57.7441 135.22 58.1179 134.279 58.1179C133.338 58.1179 132.435 57.7441 131.77 57.0786C131.104 56.4131 130.73 55.5105 130.73 54.5694V32.4087L130.356 32.9038C130.248 33.0486 119.867 46.7602 117.779 49.1862C115.34 51.8988 112.389 54.1026 109.096 55.6706C105.802 57.2387 102.231 58.1402 98.5879 58.3233C98.2017 58.3837 97.8516 58.3834 97.4895 58.3834Z" fill="#F1A33C"/>
<path d="M134.122 2.65622C135.008 2.6594 135.857 3.01265 136.483 3.63897C137.109 4.26529 137.463 5.11389 137.466 5.99963C137.396 6.91108 136.983 7.76227 136.312 8.3824C135.64 9.00254 134.759 9.34574 133.845 9.34305H96.8864C92.9209 9.19125 89.0115 10.3166 85.7337 12.5536C73.5309 21.7871 75.3172 32.7227 77.4898 38.3836C78.8565 41.8468 81.1232 44.8821 84.0558 47.1759C86.9883 49.4697 90.4802 50.9386 94.1706 51.431C95.0588 51.5495 95.9542 51.6061 96.8502 51.6002C101.893 51.6553 106.783 49.8654 110.598 46.5671C113.646 43.3573 116.503 39.9717 119.156 36.4281C120.966 34.0141 129.753 22.3425 130.019 22.0528C132.107 19.4095 132.927 18.8181 134.436 18.8181C134.869 18.8178 135.298 18.9049 135.696 19.0745C136.095 19.2441 136.455 19.4924 136.755 19.8047C137.055 20.1171 137.288 20.4868 137.442 20.8918C137.595 21.2968 137.665 21.7286 137.647 22.1613V54.6177C137.596 55.4681 137.222 56.267 136.602 56.8511C135.981 57.4351 135.161 57.7601 134.309 57.7601C133.457 57.7601 132.638 57.4351 132.017 56.8511C131.397 56.267 131.023 55.4681 130.972 54.6177V31.8414L130.236 32.8071C130.127 32.9519 119.747 46.6635 117.683 49.0895C115.728 51.2806 113.424 53.1324 110.863 54.5694C107.152 56.7727 102.95 58.0171 98.6365 58.1904C98.2865 58.1904 97.9123 58.1904 97.5623 58.1904C93.3362 58.2229 89.1531 57.3419 85.2992 55.6075C81.8262 54.0359 78.7154 51.7634 76.1622 48.9328C70.7427 42.9702 68.4977 34.6659 69.8737 25.553C70.6486 20.6314 72.7655 16.0188 75.9915 12.2221C79.2176 8.42534 83.4279 5.59177 88.1598 4.03236C92.1187 2.66845 97.3088 2.6683 101.497 2.6683C103.392 2.6683 133.881 2.6683 134.195 2.6683L134.122 2.65622ZM134.195 2.25781H101.497C96.9467 2.25781 91.9136 2.25798 88.0391 3.63396C83.2284 5.21625 78.9476 8.09535 75.668 11.9542C72.3884 15.813 70.2372 20.5018 69.4512 25.5047C68.0028 35.0883 70.5858 43.4409 75.8483 49.2103C78.5923 52.2331 81.9498 54.6355 85.6964 56.257C89.443 57.8784 93.4925 58.6816 97.5744 58.6129C97.9244 58.6129 98.2986 58.6129 98.6486 58.6129C102.317 58.4261 105.912 57.5149 109.226 55.9322C112.541 54.3496 115.509 52.1266 117.961 49.3913C120.061 46.9773 130.538 33.0847 130.538 33.0847V54.6298C130.538 55.6253 130.933 56.58 131.637 57.2839C132.341 57.9879 133.296 58.3834 134.291 58.3834C135.287 58.3834 136.242 57.9879 136.946 57.2839C137.65 56.58 138.045 55.6253 138.045 54.6298V22.1733C138.063 21.6868 137.982 21.2019 137.809 20.7471C137.635 20.2923 137.371 19.8773 137.033 19.5268C136.695 19.1764 136.289 18.8976 135.841 18.7073C135.393 18.5171 134.911 18.4194 134.424 18.4197C132.71 18.4197 131.769 19.2044 129.681 21.8236C129.681 21.8236 120.737 33.7848 118.818 36.1988C116.184 39.7321 113.342 43.1054 110.308 46.3013C106.568 49.5189 101.784 51.2651 96.8502 51.2139C95.9746 51.2083 95.1001 51.152 94.231 51.045C90.6216 50.5591 87.2066 49.1212 84.3367 46.8791C81.4667 44.6371 79.2452 41.6714 77.9002 38.2869C75.1604 31.0449 75.0759 21.1958 85.9993 12.9399C89.1924 10.7609 92.9991 9.6611 96.8623 9.80157H133.845C134.865 9.8093 135.85 9.4238 136.594 8.72482C137.338 8.02583 137.784 7.06723 137.84 6.04796C137.84 5.0524 137.444 4.09747 136.74 3.3935C136.036 2.68953 135.082 2.29406 134.086 2.29406L134.195 2.25781Z" fill="#F1A33C"/>
<path d="M0.0120081 63.477H3.82617C4.44838 63.4605 5.06887 63.5502 5.66084 63.7425C6.21844 63.9349 6.71715 64.2672 7.10918 64.7079C7.5361 65.1677 7.83933 65.7285 7.99035 66.3375C8.17437 67.1611 8.25547 68.0045 8.23176 68.8481C8.24359 69.519 8.19505 70.1895 8.08685 70.8516C7.99967 71.4004 7.80264 71.9259 7.50751 72.3966C7.17129 72.9684 6.68779 73.4393 6.10743 73.7604C5.39622 74.112 4.6063 74.2743 3.81409 74.2313H2.51051V81.1232H0V63.477H0.0120081ZM2.54676 71.8536H3.75376C4.16842 71.8716 4.58162 71.7932 4.96076 71.6243C5.22683 71.4964 5.44324 71.2843 5.57634 71.0208C5.71406 70.7294 5.79204 70.4134 5.80568 70.0914C5.80568 69.7172 5.80568 69.331 5.80568 68.8844C5.80568 68.4378 5.80568 68.0757 5.80568 67.6774C5.79003 67.344 5.71225 67.0165 5.57634 66.7117C5.45272 66.4446 5.25057 66.2214 4.99693 66.072C4.62438 65.8829 4.20585 65.8035 3.78993 65.8427H2.47434V71.8777L2.54676 71.8536Z" fill="#3A5898"/>
<path d="M12.0216 63.4772H14.1459L18.1049 81.1234H15.5701L14.8339 77.3335H11.3698L10.6335 81.1234H8.07471L12.0216 63.4772ZM13.0958 68.5465L11.8888 74.9437H14.4235L13.0958 68.5465Z" fill="#3A5898"/>
<path d="M19.3482 63.4772H23.4279C26.4212 63.4772 27.9059 65.2029 27.9059 68.655C27.9297 69.5612 27.761 70.4623 27.4109 71.2985C27.0566 72.0667 26.4525 72.6921 25.697 73.0728L28.4369 81.1355H25.7574L23.3434 73.6159H21.8225V81.1355H19.312V63.489L19.3482 63.4772ZM21.8829 71.3586H23.3313C23.6982 71.3757 24.0645 71.3141 24.4055 71.1777C24.6576 71.0637 24.8713 70.8793 25.0211 70.6467C25.1694 70.3855 25.2676 70.0991 25.3108 69.8018C25.3653 69.4018 25.3935 68.9986 25.3953 68.5948C25.4044 68.1908 25.3761 67.7867 25.3108 67.3878C25.2762 67.0775 25.1686 66.7794 24.9969 66.5185C24.8355 66.2775 24.6037 66.0922 24.3331 65.9875C23.9776 65.859 23.6003 65.8017 23.2227 65.8187H21.907V71.2985L21.8829 71.3586Z" fill="#3A5898"/>
<path d="M29.9698 63.4772H32.3838L35.6427 72.8194L38.8774 63.4772H41.2914V81.1234H38.7568V70.4054L36.2462 77.9971H34.9668L32.4683 70.4054V81.1234H29.9336V63.4772H29.9698Z" fill="#3A5898"/>
<path d="M43.802 63.4772H46.3367V78.5886H51.3458V81.1234H43.7778V63.4772H43.802Z" fill="#3A5898"/>
<path d="M52.9873 63.4772H60.5552V65.8912H55.5221V71.069H59.8914V73.483H55.5221V78.6611H60.5552V81.22H52.9873V63.5735V63.4772Z" fill="#3A5898"/>
<path d="M64.623 73.6642L61.1348 63.4772H63.8143L65.8542 70.4896L67.894 63.4772H70.5735L67.0853 73.6642V81.1234H64.5506V73.6642H64.623Z" fill="#3A5898"/>
<path d="M76.3066 67.6413C76.2955 66.9981 76.4231 66.3599 76.6808 65.7704C76.9137 65.2527 77.2506 64.7883 77.6705 64.4063C78.0745 64.0592 78.5361 63.7856 79.0345 63.5977C79.5218 63.4204 80.0367 63.3305 80.5553 63.3322C81.074 63.329 81.5892 63.4189 82.0761 63.5977C82.579 63.7761 83.0423 64.0507 83.44 64.4063C83.8691 64.7801 84.2074 65.2466 84.4297 65.7704C84.6874 66.3599 84.815 66.9981 84.8039 67.6413V68.5224H82.2692V67.6413C82.2918 67.3931 82.2567 67.1429 82.1667 66.9105C82.0766 66.6781 81.9341 66.4696 81.7502 66.3014C81.4077 66.0272 80.982 65.8777 80.5432 65.8777C80.1044 65.8777 79.6787 66.0272 79.3362 66.3014C79.1538 66.4708 79.0123 66.6796 78.9223 66.9117C78.8324 67.1438 78.7965 67.3933 78.8172 67.6413V76.911C78.7936 77.1629 78.8282 77.4168 78.9181 77.6533C79.0081 77.8898 79.1511 78.1023 79.3362 78.2748C79.6715 78.5631 80.1011 78.7179 80.5432 78.7094C80.9847 78.7145 81.4133 78.5601 81.7502 78.2748C81.9311 78.0991 82.0713 77.8863 82.1609 77.6506C82.2506 77.415 82.2876 77.1625 82.2692 76.911V73.5917H80.2535V71.3708H84.8039V76.911C84.8174 77.5623 84.6897 78.2088 84.4297 78.8061C84.2015 79.3195 83.8638 79.7767 83.44 80.1457C83.0361 80.4928 82.5745 80.7667 82.0761 80.9546C81.5888 81.1319 81.0739 81.2218 80.5553 81.2201C80.0365 81.2233 79.5214 81.1334 79.0345 80.9546C78.5316 80.7762 78.0683 80.5014 77.6705 80.1457C77.2468 79.7767 76.909 79.3195 76.6808 78.8061C76.4208 78.2088 76.2932 77.5623 76.3066 76.911V67.593V67.6413Z" fill="#3A5898"/>
<path d="M87.0733 63.4772H91.1771C94.1705 63.4772 95.6551 65.2029 95.6551 68.655C95.679 69.5612 95.5102 70.4623 95.1602 71.2985C94.8059 72.0667 94.2017 72.6921 93.4463 73.0728L96.1862 81.1355H93.5066L91.0926 73.5917H89.5718V81.1355H87.0371V63.489L87.0733 63.4772ZM89.608 71.3586H91.0564C91.4233 71.3757 91.7896 71.3141 92.1306 71.1777C92.3827 71.0637 92.5964 70.8793 92.7462 70.6467C92.8945 70.3855 92.9927 70.0991 93.0359 69.8018C93.0904 69.4018 93.1186 68.9986 93.1204 68.5948C93.1295 68.1908 93.1012 67.7867 93.0359 67.3878C93.0013 67.0775 92.8938 66.7794 92.7221 66.5185C92.5606 66.2775 92.3288 66.0922 92.0582 65.9875C91.7027 65.859 91.3254 65.8017 90.9478 65.8187H89.6321V71.2985L89.608 71.3586Z" fill="#3A5898"/>
<path d="M100.471 63.4772H102.595L106.554 81.1234H104.019L103.283 77.3335H99.8188L99.0825 81.1234H96.5479L100.471 63.4772ZM101.545 68.5465L100.338 74.9437H102.873L101.545 68.5465Z" fill="#3A5898"/>
<path d="M107.797 63.4772H110.332V71.0209H113.47V63.453H116.005V81.1234H113.47V73.2899H110.332V81.1475H107.797V63.501V63.4772Z" fill="#3A5898"/>
<path d="M121.219 63.4772H123.343L127.302 81.1234H124.768L124.031 77.3335H120.567L119.831 81.1234H117.296L121.219 63.4772ZM122.293 68.5465L121.086 74.9437H123.621L122.293 68.5465Z" fill="#3A5898"/>
<path d="M128.594 63.4772H131.008L134.267 72.8194L137.501 63.4772H139.915V81.1234H137.381V70.4054L134.87 77.9971H133.591L131.092 70.3933V81.1113H128.594V63.489V63.4772Z" fill="#3A5898"/>
<path d="M4.12812 9.77748C3.10096 9.78521 2.11029 9.39716 1.36183 8.69366C0.613365 7.99015 0.16461 7.02538 0.10878 5.99971C0.10877 5.50472 0.206675 5.01456 0.396828 4.55755C0.586981 4.10055 0.865639 3.68559 1.21677 3.3367C1.5679 2.98782 1.98456 2.71179 2.44278 2.52457C2.901 2.33735 3.39172 2.24262 3.8867 2.24581H36.5844C41.1348 2.24581 46.168 2.24597 50.0424 3.62195C54.8448 5.20886 59.1169 8.08839 62.3896 11.9445C65.6623 15.8007 67.8091 20.4841 68.594 25.4806C70.0424 35.0642 67.4595 43.4168 62.1969 49.1863C59.3292 52.3351 55.7994 54.8093 51.8612 56.4309C47.923 58.0525 43.6743 58.7813 39.4208 58.5647C35.7526 58.3779 32.1576 57.4667 28.8431 55.884C25.5286 54.3013 22.5601 52.0783 20.1088 49.343C18.0086 46.929 7.53187 33.0364 7.53187 33.0364V54.5815C7.47744 55.5418 7.05759 56.4448 6.35846 57.1054C5.65934 57.7661 4.73394 58.1342 3.77207 58.1342C2.8102 58.1342 1.88473 57.7661 1.18561 57.1054C0.486482 56.4448 0.0666328 55.5418 0.0121994 54.5815V22.1254C-0.00565366 21.6388 0.0748637 21.1536 0.248826 20.6988C0.422788 20.2441 0.686677 19.829 1.02471 19.4786C1.36275 19.1281 1.76797 18.8496 2.21617 18.6594C2.66438 18.4692 3.14631 18.3711 3.6332 18.3715C5.34715 18.3715 6.28867 19.1561 8.37679 21.7753C8.37679 21.7753 17.3207 33.7366 19.2398 36.1506C21.8734 39.6839 24.7149 43.0575 27.7491 46.2533C30.6339 49.0777 36.9706 51.8779 43.8264 50.9968C47.4219 50.5072 50.8232 49.0728 53.6835 46.84C56.5439 44.6073 58.761 41.656 60.1089 38.287C62.8488 31.045 62.9332 21.1959 52.0098 12.94C48.8167 10.761 45.01 9.66117 41.1468 9.80165L4.12812 9.77748Z" fill="#3A5898"/>
<path d="M140 0.302612H68.9922V60.5079H140V0.302612Z" fill="#3A5898"/>
<path d="M97.4895 58.3834C93.4387 58.4604 89.4186 57.6664 85.7015 56.0546C81.9844 54.4428 78.657 52.0509 75.9446 49.0412C70.4768 43.0062 68.2318 34.6658 69.6199 25.4926C70.3959 20.5297 72.5243 15.8767 75.7714 12.0441C79.0184 8.21149 83.2587 5.34743 88.0267 3.7666C92.0098 2.40269 97.2481 2.40283 101.424 2.40283H134.122C134.588 2.40283 135.049 2.49472 135.48 2.67305C135.911 2.85138 136.302 3.11265 136.631 3.44216C136.961 3.77168 137.222 4.16294 137.4 4.59347C137.579 5.024 137.671 5.48534 137.671 5.95135C137.615 6.91617 137.19 7.82269 136.485 8.48322C135.779 9.14375 134.847 9.50766 133.881 9.49986H96.886C92.9643 9.35491 89.099 10.4673 85.8541 12.6744C73.7841 21.8235 75.5221 32.6503 77.6706 38.287C79.0204 41.7158 81.2636 44.7207 84.1672 46.9897C87.0708 49.2587 90.5289 50.7089 94.1823 51.1897C95.0593 51.2982 95.942 51.3548 96.8257 51.3589C101.814 51.4098 106.65 49.6419 110.429 46.3859C113.474 43.1845 116.323 39.803 118.962 36.2593C120.797 33.8453 129.68 22.0165 129.825 21.8837C131.974 19.18 132.818 18.5645 134.4 18.5645C134.861 18.5625 135.317 18.654 135.742 18.8332C136.167 19.0124 136.551 19.2755 136.871 19.607C137.191 19.9386 137.441 20.3318 137.606 20.7625C137.77 21.1931 137.845 21.6526 137.828 22.1133V54.5694C137.828 55.5105 137.454 56.4131 136.788 57.0786C136.123 57.7441 135.22 58.1179 134.279 58.1179C133.338 58.1179 132.435 57.7441 131.77 57.0786C131.104 56.4131 130.73 55.5105 130.73 54.5694V32.4087L130.356 32.9038C130.248 33.0486 119.867 46.7602 117.779 49.1862C115.34 51.8988 112.389 54.1026 109.096 55.6706C105.802 57.2387 102.231 58.1402 98.5879 58.3233C98.2017 58.3837 97.8516 58.3834 97.4895 58.3834Z" fill="#F1A33C"/>
<path d="M134.122 2.65622C135.008 2.6594 135.857 3.01265 136.483 3.63897C137.109 4.26529 137.463 5.11389 137.466 5.99963C137.396 6.91108 136.983 7.76227 136.312 8.3824C135.64 9.00254 134.759 9.34574 133.845 9.34305H96.8864C92.9209 9.19125 89.0115 10.3166 85.7337 12.5536C73.5309 21.7871 75.3172 32.7227 77.4898 38.3836C78.8565 41.8468 81.1232 44.8821 84.0558 47.1759C86.9883 49.4697 90.4802 50.9386 94.1706 51.431C95.0588 51.5495 95.9542 51.6061 96.8502 51.6002C101.893 51.6553 106.783 49.8654 110.598 46.5671C113.646 43.3573 116.503 39.9717 119.156 36.4281C120.966 34.0141 129.753 22.3425 130.019 22.0528C132.107 19.4095 132.927 18.8181 134.436 18.8181C134.869 18.8178 135.298 18.9049 135.696 19.0745C136.095 19.2441 136.455 19.4924 136.755 19.8047C137.055 20.1171 137.288 20.4868 137.442 20.8918C137.595 21.2968 137.665 21.7286 137.647 22.1613V54.6177C137.596 55.4681 137.222 56.267 136.602 56.8511C135.981 57.4351 135.161 57.7601 134.309 57.7601C133.457 57.7601 132.638 57.4351 132.017 56.8511C131.397 56.267 131.023 55.4681 130.972 54.6177V31.8414L130.236 32.8071C130.127 32.9519 119.747 46.6635 117.683 49.0895C115.728 51.2806 113.424 53.1324 110.863 54.5694C107.152 56.7727 102.95 58.0171 98.6365 58.1904C98.2865 58.1904 97.9123 58.1904 97.5623 58.1904C93.3362 58.2229 89.1531 57.3419 85.2992 55.6075C81.8262 54.0359 78.7154 51.7634 76.1622 48.9328C70.7427 42.9702 68.4977 34.6659 69.8737 25.553C70.6486 20.6314 72.7655 16.0188 75.9915 12.2221C79.2176 8.42534 83.4279 5.59177 88.1598 4.03236C92.1187 2.66845 97.3088 2.6683 101.497 2.6683C103.392 2.6683 133.881 2.6683 134.195 2.6683L134.122 2.65622ZM134.195 2.25781H101.497C96.9467 2.25781 91.9136 2.25798 88.0391 3.63396C83.2284 5.21625 78.9476 8.09535 75.668 11.9542C72.3884 15.813 70.2372 20.5018 69.4512 25.5047C68.0028 35.0883 70.5858 43.4409 75.8483 49.2103C78.5923 52.2331 81.9498 54.6355 85.6964 56.257C89.443 57.8784 93.4925 58.6816 97.5744 58.6129C97.9244 58.6129 98.2986 58.6129 98.6486 58.6129C102.317 58.4261 105.912 57.5149 109.226 55.9322C112.541 54.3496 115.509 52.1266 117.961 49.3913C120.061 46.9773 130.538 33.0847 130.538 33.0847V54.6298C130.538 55.6253 130.933 56.58 131.637 57.2839C132.341 57.9879 133.296 58.3834 134.291 58.3834C135.287 58.3834 136.242 57.9879 136.946 57.2839C137.65 56.58 138.045 55.6253 138.045 54.6298V22.1733C138.063 21.6868 137.982 21.2019 137.809 20.7471C137.635 20.2923 137.371 19.8773 137.033 19.5268C136.695 19.1764 136.289 18.8976 135.841 18.7073C135.393 18.5171 134.911 18.4194 134.424 18.4197C132.71 18.4197 131.769 19.2044 129.681 21.8236C129.681 21.8236 120.737 33.7848 118.818 36.1988C116.184 39.7321 113.342 43.1054 110.308 46.3013C106.568 49.5189 101.784 51.2651 96.8502 51.2139C95.9746 51.2083 95.1001 51.152 94.231 51.045C90.6216 50.5591 87.2066 49.1212 84.3367 46.8791C81.4667 44.6371 79.2452 41.6714 77.9002 38.2869C75.1604 31.0449 75.0759 21.1958 85.9993 12.9399C89.1924 10.7609 92.9991 9.6611 96.8623 9.80157H133.845C134.865 9.8093 135.85 9.4238 136.594 8.72482C137.338 8.02583 137.784 7.06723 137.84 6.04796C137.84 5.0524 137.444 4.09747 136.74 3.3935C136.036 2.68953 135.082 2.29406 134.086 2.29406L134.195 2.25781Z" fill="#F1A33C"/>
<path d="M0.0120081 63.477H3.82617C4.44838 63.4605 5.06887 63.5502 5.66084 63.7425C6.21844 63.9349 6.71715 64.2672 7.10918 64.7079C7.5361 65.1677 7.83933 65.7285 7.99035 66.3375C8.17437 67.1611 8.25547 68.0045 8.23176 68.8481C8.24359 69.519 8.19505 70.1895 8.08685 70.8516C7.99967 71.4004 7.80264 71.9259 7.50751 72.3966C7.17129 72.9684 6.68779 73.4393 6.10743 73.7604C5.39622 74.112 4.6063 74.2743 3.81409 74.2313H2.51051V81.1232H0V63.477H0.0120081ZM2.54676 71.8536H3.75376C4.16842 71.8716 4.58162 71.7932 4.96076 71.6243C5.22683 71.4964 5.44324 71.2843 5.57634 71.0208C5.71406 70.7294 5.79204 70.4134 5.80568 70.0914C5.80568 69.7172 5.80568 69.331 5.80568 68.8844C5.80568 68.4378 5.80568 68.0757 5.80568 67.6774C5.79003 67.344 5.71225 67.0165 5.57634 66.7117C5.45272 66.4446 5.25057 66.2214 4.99693 66.072C4.62438 65.8829 4.20585 65.8035 3.78993 65.8427H2.47434V71.8777L2.54676 71.8536Z" fill="#3A5898"/>
<path d="M12.0216 63.4772H14.1459L18.1049 81.1234H15.5701L14.8339 77.3335H11.3698L10.6335 81.1234H8.07471L12.0216 63.4772ZM13.0958 68.5465L11.8888 74.9437H14.4235L13.0958 68.5465Z" fill="#3A5898"/>
<path d="M19.3482 63.4772H23.4279C26.4212 63.4772 27.9059 65.2029 27.9059 68.655C27.9297 69.5612 27.761 70.4623 27.4109 71.2985C27.0566 72.0667 26.4525 72.6921 25.697 73.0728L28.4369 81.1355H25.7574L23.3434 73.6159H21.8225V81.1355H19.312V63.489L19.3482 63.4772ZM21.8829 71.3586H23.3313C23.6982 71.3757 24.0645 71.3141 24.4055 71.1777C24.6576 71.0637 24.8713 70.8793 25.0211 70.6467C25.1694 70.3855 25.2676 70.0991 25.3108 69.8018C25.3653 69.4018 25.3935 68.9986 25.3953 68.5948C25.4044 68.1908 25.3761 67.7867 25.3108 67.3878C25.2762 67.0775 25.1686 66.7794 24.9969 66.5185C24.8355 66.2775 24.6037 66.0922 24.3331 65.9875C23.9776 65.859 23.6003 65.8017 23.2227 65.8187H21.907V71.2985L21.8829 71.3586Z" fill="#3A5898"/>
<path d="M29.9698 63.4772H32.3838L35.6427 72.8194L38.8774 63.4772H41.2914V81.1234H38.7568V70.4054L36.2462 77.9971H34.9668L32.4683 70.4054V81.1234H29.9336V63.4772H29.9698Z" fill="#3A5898"/>
<path d="M43.802 63.4772H46.3367V78.5886H51.3458V81.1234H43.7778V63.4772H43.802Z" fill="#3A5898"/>
<path d="M52.9873 63.4772H60.5552V65.8912H55.5221V71.069H59.8914V73.483H55.5221V78.6611H60.5552V81.22H52.9873V63.5735V63.4772Z" fill="#3A5898"/>
<path d="M64.623 73.6642L61.1348 63.4772H63.8143L65.8542 70.4896L67.894 63.4772H70.5735L67.0853 73.6642V81.1234H64.5506V73.6642H64.623Z" fill="#3A5898"/>
<path d="M76.3066 67.6413C76.2955 66.9981 76.4231 66.3599 76.6808 65.7704C76.9137 65.2527 77.2506 64.7883 77.6705 64.4063C78.0745 64.0592 78.5361 63.7856 79.0345 63.5977C79.5218 63.4204 80.0367 63.3305 80.5553 63.3322C81.074 63.329 81.5892 63.4189 82.0761 63.5977C82.579 63.7761 83.0423 64.0507 83.44 64.4063C83.8691 64.7801 84.2074 65.2466 84.4297 65.7704C84.6874 66.3599 84.815 66.9981 84.8039 67.6413V68.5224H82.2692V67.6413C82.2918 67.3931 82.2567 67.1429 82.1667 66.9105C82.0766 66.6781 81.9341 66.4696 81.7502 66.3014C81.4077 66.0272 80.982 65.8777 80.5432 65.8777C80.1044 65.8777 79.6787 66.0272 79.3362 66.3014C79.1538 66.4708 79.0123 66.6796 78.9223 66.9117C78.8324 67.1438 78.7965 67.3933 78.8172 67.6413V76.911C78.7936 77.1629 78.8282 77.4168 78.9181 77.6533C79.0081 77.8898 79.1511 78.1023 79.3362 78.2748C79.6715 78.5631 80.1011 78.7179 80.5432 78.7094C80.9847 78.7145 81.4133 78.5601 81.7502 78.2748C81.9311 78.0991 82.0713 77.8863 82.1609 77.6506C82.2506 77.415 82.2876 77.1625 82.2692 76.911V73.5917H80.2535V71.3708H84.8039V76.911C84.8174 77.5623 84.6897 78.2088 84.4297 78.8061C84.2015 79.3195 83.8638 79.7767 83.44 80.1457C83.0361 80.4928 82.5745 80.7667 82.0761 80.9546C81.5888 81.1319 81.0739 81.2218 80.5553 81.2201C80.0365 81.2233 79.5214 81.1334 79.0345 80.9546C78.5316 80.7762 78.0683 80.5014 77.6705 80.1457C77.2468 79.7767 76.909 79.3195 76.6808 78.8061C76.4208 78.2088 76.2932 77.5623 76.3066 76.911V67.593V67.6413Z" fill="#3A5898"/>
<path d="M87.0733 63.4772H91.1771C94.1705 63.4772 95.6551 65.2029 95.6551 68.655C95.679 69.5612 95.5102 70.4623 95.1602 71.2985C94.8059 72.0667 94.2017 72.6921 93.4463 73.0728L96.1862 81.1355H93.5066L91.0926 73.5917H89.5718V81.1355H87.0371V63.489L87.0733 63.4772ZM89.608 71.3586H91.0564C91.4233 71.3757 91.7896 71.3141 92.1306 71.1777C92.3827 71.0637 92.5964 70.8793 92.7462 70.6467C92.8945 70.3855 92.9927 70.0991 93.0359 69.8018C93.0904 69.4018 93.1186 68.9986 93.1204 68.5948C93.1295 68.1908 93.1012 67.7867 93.0359 67.3878C93.0013 67.0775 92.8938 66.7794 92.7221 66.5185C92.5606 66.2775 92.3288 66.0922 92.0582 65.9875C91.7027 65.859 91.3254 65.8017 90.9478 65.8187H89.6321V71.2985L89.608 71.3586Z" fill="#3A5898"/>
<path d="M100.471 63.4772H102.595L106.554 81.1234H104.019L103.283 77.3335H99.8188L99.0825 81.1234H96.5479L100.471 63.4772ZM101.545 68.5465L100.338 74.9437H102.873L101.545 68.5465Z" fill="#3A5898"/>
<path d="M107.797 63.4772H110.332V71.0209H113.47V63.453H116.005V81.1234H113.47V73.2899H110.332V81.1475H107.797V63.501V63.4772Z" fill="#3A5898"/>
<path d="M121.219 63.4772H123.343L127.302 81.1234H124.768L124.031 77.3335H120.567L119.831 81.1234H117.296L121.219 63.4772ZM122.293 68.5465L121.086 74.9437H123.621L122.293 68.5465Z" fill="#3A5898"/>
<path d="M128.594 63.4772H131.008L134.267 72.8194L137.501 63.4772H139.915V81.1234H137.381V70.4054L134.87 77.9971H133.591L131.092 70.3933V81.1113H128.594V63.489V63.4772Z" fill="#3A5898"/>
</svg>
