<svg width="25" height="25" viewBox="0 0 25 25" fill="none" xmlns="http://www.w3.org/2000/svg">
<path d="M12.7118 15.3161H11.4697V14.7889C11.4757 13.7881 11.5353 13.1537 11.6484 12.8856C11.7854 12.5282 12.2322 11.992 12.9888 11.2772C13.4832 10.8185 13.8168 10.4581 13.9896 10.196C14.198 9.87432 14.3023 9.5437 14.3023 9.20415C14.3023 8.69185 14.1057 8.29272 13.7125 8.00679C13.3968 7.78042 13.0007 7.66724 12.5241 7.66724C11.8391 7.66724 11.0051 7.95317 10.0222 8.52505L9.63794 7.35449C10.6566 6.81836 11.6693 6.55029 12.676 6.55029C13.6649 6.55029 14.4512 6.80645 15.035 7.31875C15.5831 7.79531 15.8571 8.40889 15.8571 9.15947C15.8571 9.73135 15.6754 10.2705 15.312 10.7768C15.1035 11.0687 14.7521 11.444 14.2576 11.9027C13.5845 12.5282 13.1496 12.9869 12.953 13.2788C12.7922 13.5409 12.7118 13.9013 12.7118 14.36V15.3161ZM12.131 16.6296C12.4229 16.6296 12.6701 16.7279 12.8726 16.9245C13.0871 17.133 13.1943 17.3951 13.1943 17.7108C13.1943 18.0206 13.0871 18.2827 12.8726 18.4971C12.6701 18.6937 12.4169 18.792 12.1131 18.792C11.8093 18.792 11.5561 18.6937 11.3536 18.4971C11.1391 18.2827 11.0319 18.0206 11.0319 17.7108C11.0319 17.3951 11.1391 17.133 11.3536 16.9245C11.5621 16.7279 11.8212 16.6296 12.131 16.6296Z" fill="currentColor"></path>
<mask id="path-2-inside-1" fill="none">
<path fill-rule="evenodd" clip-rule="evenodd" d="M12.5005 23.3C18.4652 23.3 23.3005 18.4647 23.3005 12.5C23.3005 6.53532 18.4652 1.7 12.5005 1.7C6.53581 1.7 1.70049 6.53532 1.70049 12.5C1.70049 18.4647 6.53581 23.3 12.5005 23.3ZM12.5005 24.5C19.1279 24.5 24.5005 19.1274 24.5005 12.5C24.5005 5.87258 19.1279 0.5 12.5005 0.5C5.87307 0.5 0.500488 5.87258 0.500488 12.5C0.500488 19.1274 5.87307 24.5 12.5005 24.5Z"></path>
</mask>
<path fill-rule="evenodd" clip-rule="evenodd" d="M12.5005 23.3C18.4652 23.3 23.3005 18.4647 23.3005 12.5C23.3005 6.53532 18.4652 1.7 12.5005 1.7C6.53581 1.7 1.70049 6.53532 1.70049 12.5C1.70049 18.4647 6.53581 23.3 12.5005 23.3ZM12.5005 24.5C19.1279 24.5 24.5005 19.1274 24.5005 12.5C24.5005 5.87258 19.1279 0.5 12.5005 0.5C5.87307 0.5 0.500488 5.87258 0.500488 12.5C0.500488 19.1274 5.87307 24.5 12.5005 24.5Z" fill="currentColor"></path>
<path d="M19.3005 12.5C19.3005 16.2555 16.256 19.3 12.5005 19.3V27.3C20.6743 27.3 27.3005 20.6738 27.3005 12.5H19.3005ZM12.5005 5.7C16.256 5.7 19.3005 8.74446 19.3005 12.5H27.3005C27.3005 4.32619 20.6743 -2.3 12.5005 -2.3V5.7ZM5.70049 12.5C5.70049 8.74446 8.74495 5.7 12.5005 5.7V-2.3C4.32667 -2.3 -2.29951 4.32619 -2.29951 12.5H5.70049ZM12.5005 19.3C8.74495 19.3 5.70049 16.2555 5.70049 12.5H-2.29951C-2.29951 20.6738 4.32667 27.3 12.5005 27.3V19.3ZM20.5005 12.5C20.5005 16.9183 16.9188 20.5 12.5005 20.5V28.5C21.337 28.5 28.5005 21.3366 28.5005 12.5H20.5005ZM12.5005 4.5C16.9188 4.5 20.5005 8.08172 20.5005 12.5H28.5005C28.5005 3.66344 21.337 -3.5 12.5005 -3.5V4.5ZM4.50049 12.5C4.50049 8.08172 8.08221 4.5 12.5005 4.5V-3.5C3.66393 -3.5 -3.49951 3.66344 -3.49951 12.5H4.50049ZM12.5005 20.5C8.08221 20.5 4.50049 16.9183 4.50049 12.5H-3.49951C-3.49951 21.3366 3.66393 28.5 12.5005 28.5V20.5Z" fill="none" mask="url(#path-2-inside-1)"></path>
</svg>