<svg width="241" height="19" viewBox="0 0 241 19" fill="none" xmlns="http://www.w3.org/2000/svg">
<path d="M15.68 5.67726L5.59879 15.7585L0.00927734 10.1689L0.577159 9.60105L5.59879 14.6227L15.1121 5.10938L15.68 5.67726Z" fill="white"/>
<path d="M15.68 5.67726L5.59879 15.7585L0.00927734 10.1689L0.577159 9.60105L5.59879 14.6227L15.1121 5.10938L15.68 5.67726Z" stroke="white"/>
<path d="M26.5699 14.9834L26.9293 12.8584C28.1949 13.3896 29.2678 13.6553 30.148 13.6553C30.7209 13.6553 31.1428 13.5146 31.4136 13.2334C31.648 12.9886 31.7652 12.6891 31.7652 12.335C31.7652 12.012 31.6454 11.7594 31.4058 11.5771C31.1662 11.4001 30.6063 11.1318 29.7261 10.7725C28.9188 10.4391 28.385 10.2021 28.1246 10.0615C27.5308 9.7334 27.1168 9.35059 26.8824 8.91309C26.6845 8.54329 26.5855 8.10579 26.5855 7.60059C26.5855 6.81413 26.7991 6.12402 27.2261 5.53027C27.8824 4.6084 28.9605 4.14746 30.4605 4.14746C31.5438 4.14746 32.7209 4.34798 33.9918 4.74902L33.4918 6.78027C32.9449 6.57715 32.5621 6.44434 32.3433 6.38184C31.7235 6.19434 31.148 6.10059 30.6168 6.10059C30.148 6.10059 29.7912 6.20475 29.5464 6.41309C29.2912 6.63704 29.1636 6.9209 29.1636 7.26465C29.1636 7.58757 29.3043 7.84277 29.5855 8.03027C29.7991 8.18132 30.286 8.41309 31.0464 8.72559C31.9683 9.111 32.5438 9.36361 32.773 9.4834C33.4397 9.83757 33.8876 10.2673 34.1168 10.7725C34.2938 11.1579 34.3824 11.6136 34.3824 12.1396C34.3824 13.3271 33.9787 14.2256 33.1714 14.835C32.4839 15.3506 31.5204 15.6084 30.2808 15.6084C28.9735 15.6084 27.7366 15.4001 26.5699 14.9834ZM36.398 15.4131V4.34277H38.8902V15.4131H36.398ZM41.523 15.4131V4.34277H48.5308V6.2959H44.0152V8.81934H48.3043V10.7725H44.0152V13.46H48.773V15.4131H41.523ZM50.898 15.4131V4.34277H54.5933L56.5074 10.3271C56.7105 10.973 56.9241 11.7178 57.148 12.5615C57.372 11.7074 57.5881 10.96 57.7964 10.3193L59.7339 4.34277H63.3902V15.4131H60.9918V6.45215C60.8199 7.13965 60.6168 7.84277 60.3824 8.56152L58.1636 15.4131H56.023L53.8668 8.74902C53.6532 8.08757 53.4319 7.32194 53.2027 6.45215V15.4131H50.898ZM66.023 15.4131V4.34277H73.0308V6.2959H68.5152V8.81934H72.8043V10.7725H68.5152V13.46H73.273V15.4131H66.023ZM75.398 15.4131V4.34277H78.148L81.1011 9.32715C81.5907 10.1813 82.0386 11.0485 82.4449 11.9287C82.4188 11.4495 82.4058 10.7438 82.4058 9.81152V4.34277H84.8043V15.4131H82.1011L79.3355 10.7725C78.7418 9.76725 78.2157 8.77767 77.7574 7.80371C77.7834 8.486 77.7964 9.37142 77.7964 10.46V15.4131H75.398ZM86.8511 14.9834L87.2105 12.8584C88.4761 13.3896 89.5491 13.6553 90.4293 13.6553C91.0022 13.6553 91.4241 13.5146 91.6949 13.2334C91.9293 12.9886 92.0464 12.6891 92.0464 12.335C92.0464 12.012 91.9267 11.7594 91.6871 11.5771C91.4475 11.4001 90.8876 11.1318 90.0074 10.7725C89.2001 10.4391 88.6662 10.2021 88.4058 10.0615C87.8121 9.7334 87.398 9.35059 87.1636 8.91309C86.9657 8.54329 86.8668 8.10579 86.8668 7.60059C86.8668 6.81413 87.0803 6.12402 87.5074 5.53027C88.1636 4.6084 89.2418 4.14746 90.7418 4.14746C91.8251 4.14746 93.0022 4.34798 94.273 4.74902L93.773 6.78027C93.2261 6.57715 92.8433 6.44434 92.6246 6.38184C92.0048 6.19434 91.4293 6.10059 90.898 6.10059C90.4293 6.10059 90.0725 6.20475 89.8277 6.41309C89.5725 6.63704 89.4449 6.9209 89.4449 7.26465C89.4449 7.58757 89.5855 7.84277 89.8668 8.03027C90.0803 8.18132 90.5673 8.41309 91.3277 8.72559C92.2496 9.111 92.8251 9.36361 93.0543 9.4834C93.7209 9.83757 94.1688 10.2673 94.398 10.7725C94.5751 11.1579 94.6636 11.6136 94.6636 12.1396C94.6636 13.3271 94.26 14.2256 93.4527 14.835C92.7652 15.3506 91.8017 15.6084 90.5621 15.6084C89.2548 15.6084 88.0178 15.4001 86.8511 14.9834Z" fill="#009999"/>
<path d="M106.375 11.5381H102.25L100.89 15.4131H99.5933L103.531 4.34277H105.148L109.117 15.4131H107.734L106.375 11.5381ZM105.992 10.4834L105.007 7.56934C104.752 6.82454 104.526 6.11361 104.328 5.43652C104.14 6.06673 103.911 6.78027 103.64 7.57715L102.632 10.4834H105.992ZM110.773 15.4131V4.34277H112.914C114.247 4.34277 115.213 4.53809 115.812 4.92871C116.666 5.48079 117.093 6.361 117.093 7.56934C117.093 8.361 116.885 9.01986 116.468 9.5459C116.057 10.0563 115.461 10.3975 114.679 10.5693C114.169 10.6839 113.531 10.7412 112.765 10.7412H112.054V15.4131H110.773ZM112.054 9.68652H112.578C113.645 9.68652 114.395 9.57715 114.828 9.3584C115.432 9.05111 115.734 8.45475 115.734 7.56934C115.734 7.10059 115.625 6.68392 115.406 6.31934C115.145 5.88704 114.744 5.61882 114.203 5.51465C113.812 5.43652 113.338 5.39746 112.781 5.39746H112.054V9.68652ZM118.914 15.4131V4.34277H121.054C122.388 4.34277 123.354 4.53809 123.953 4.92871C124.807 5.48079 125.234 6.361 125.234 7.56934C125.234 8.361 125.026 9.01986 124.609 9.5459C124.197 10.0563 123.601 10.3975 122.82 10.5693C122.309 10.6839 121.671 10.7412 120.906 10.7412H120.195V15.4131H118.914ZM120.195 9.68652H120.718C121.786 9.68652 122.536 9.57715 122.968 9.3584C123.572 9.05111 123.875 8.45475 123.875 7.56934C123.875 7.10059 123.765 6.68392 123.546 6.31934C123.286 5.88704 122.885 5.61882 122.343 5.51465C121.953 5.43652 121.479 5.39746 120.921 5.39746H120.195V9.68652ZM127.054 15.4131V4.34277H129.414C130.586 4.34277 131.453 4.50944 132.015 4.84277C132.88 5.3584 133.312 6.16048 133.312 7.24902C133.312 8.16048 132.997 8.87923 132.367 9.40527C132.013 9.69694 131.544 9.90788 130.961 10.0381C131.445 10.1839 131.791 10.4105 132 10.7178C132.151 10.9313 132.364 11.3766 132.64 12.0537L134 15.4131H132.64L131.468 12.6396C131.244 12.1136 131.054 11.7126 130.898 11.4365C130.627 10.9678 130.276 10.6865 129.843 10.5928C129.572 10.5303 129.195 10.499 128.711 10.499H128.336V15.4131H127.054ZM128.336 9.44434H128.929C129.799 9.44434 130.458 9.34017 130.906 9.13184C131.604 8.80892 131.953 8.22298 131.953 7.37402C131.953 6.57194 131.653 6.01725 131.054 5.70996C130.653 5.50163 130.007 5.39746 129.117 5.39746H128.336V9.44434ZM140.031 4.18652C141.562 4.18652 142.755 4.75163 143.609 5.88184C144.447 6.99121 144.867 8.32194 144.867 9.87402C144.867 10.9053 144.674 11.8506 144.289 12.71C143.44 14.6162 142.002 15.5693 139.976 15.5693C138.408 15.5693 137.195 15.0042 136.336 13.874C135.497 12.7699 135.078 11.4365 135.078 9.87402C135.078 8.85319 135.27 7.91048 135.656 7.0459C136.505 5.13965 137.963 4.18652 140.031 4.18652ZM139.929 5.24121C138.815 5.24121 137.937 5.69954 137.296 6.61621C136.724 7.43913 136.437 8.52767 136.437 9.88184C136.437 11.361 136.778 12.5199 137.461 13.3584C138.096 14.1292 138.934 14.5146 139.976 14.5146C141.112 14.5146 142 14.0563 142.64 13.1396C143.218 12.3219 143.507 11.2334 143.507 9.87402C143.507 8.38965 143.166 7.23079 142.484 6.39746C141.849 5.62663 140.997 5.24121 139.929 5.24121ZM149.367 15.4131L145.507 4.34277H146.914L149.5 11.9287C149.807 12.835 150.054 13.6214 150.242 14.2881C150.533 13.335 150.804 12.4938 151.054 11.7646L153.601 4.34277H154.882L151.031 15.4131H149.367ZM156.398 15.4131V4.34277H162.242V5.39746H157.679V9.27246H162.015V10.3271H157.679V14.3584H162.476V15.4131H156.398ZM164.867 15.4131V4.34277H167.343C168.203 4.34277 168.916 4.39225 169.484 4.49121C170.718 4.71517 171.638 5.33757 172.242 6.3584C172.789 7.28548 173.062 8.43652 173.062 9.81152C173.062 11.1449 172.807 12.2673 172.296 13.1787C171.666 14.2985 170.711 14.986 169.429 15.2412C168.841 15.3558 168.088 15.4131 167.171 15.4131H164.867ZM166.148 14.3584H167.265C168.578 14.3584 169.557 14.1214 170.203 13.6475C170.708 13.2777 171.096 12.7282 171.367 11.999C171.591 11.4001 171.703 10.6995 171.703 9.89746C171.703 8.68392 171.461 7.6709 170.976 6.8584C170.528 6.10319 169.851 5.65007 168.945 5.49902C168.549 5.43132 167.927 5.39746 167.078 5.39746H166.148V14.3584ZM179.367 15.4131V4.34277H181.507C182.841 4.34277 183.807 4.53809 184.406 4.92871C185.26 5.48079 185.687 6.361 185.687 7.56934C185.687 8.361 185.479 9.01986 185.062 9.5459C184.651 10.0563 184.054 10.3975 183.273 10.5693C182.763 10.6839 182.125 10.7412 181.359 10.7412H180.648V15.4131H179.367ZM180.648 9.68652H181.171C182.239 9.68652 182.989 9.57715 183.421 9.3584C184.026 9.05111 184.328 8.45475 184.328 7.56934C184.328 7.10059 184.218 6.68392 184 6.31934C183.739 5.88704 183.338 5.61882 182.796 5.51465C182.406 5.43652 181.932 5.39746 181.375 5.39746H180.648V9.68652ZM192.375 11.5381H188.25L186.89 15.4131H185.593L189.531 4.34277H191.148L195.117 15.4131H193.734L192.375 11.5381ZM191.992 10.4834L191.007 7.56934C190.752 6.82454 190.526 6.11361 190.328 5.43652C190.14 6.06673 189.911 6.78027 189.64 7.57715L188.632 10.4834H191.992ZM196.773 15.4131V4.34277H199.132C200.304 4.34277 201.171 4.50944 201.734 4.84277C202.599 5.3584 203.031 6.16048 203.031 7.24902C203.031 8.16048 202.716 8.87923 202.086 9.40527C201.731 9.69694 201.263 9.90788 200.679 10.0381C201.164 10.1839 201.51 10.4105 201.718 10.7178C201.869 10.9313 202.083 11.3766 202.359 12.0537L203.718 15.4131H202.359L201.187 12.6396C200.963 12.1136 200.773 11.7126 200.617 11.4365C200.346 10.9678 199.994 10.6865 199.562 10.5928C199.291 10.5303 198.914 10.499 198.429 10.499H198.054V15.4131H196.773ZM198.054 9.44434H198.648C199.518 9.44434 200.177 9.34017 200.625 9.13184C201.322 8.80892 201.671 8.22298 201.671 7.37402C201.671 6.57194 201.372 6.01725 200.773 5.70996C200.372 5.50163 199.726 5.39746 198.836 5.39746H198.054V9.44434ZM207.421 15.4131V5.39746H204.187V4.34277H211.976V5.39746H208.703V15.4131H207.421ZM213.648 15.4131V4.34277H215.125L219.382 11.3896C219.695 11.9105 220.031 12.5042 220.39 13.1709L220.617 13.5928C220.596 13.124 220.586 12.5771 220.586 11.9521V4.34277H221.804V15.4131H220.312L216.015 8.2959C215.609 7.62402 215.216 6.91829 214.836 6.17871C214.856 6.72559 214.867 7.4209 214.867 8.26465V15.4131H213.648ZM224.695 15.4131V4.34277H230.539V5.39746H225.976V9.27246H230.312V10.3271H225.976V14.3584H230.773V15.4131H224.695ZM233.164 15.4131V4.34277H235.523C236.695 4.34277 237.562 4.50944 238.125 4.84277C238.989 5.3584 239.421 6.16048 239.421 7.24902C239.421 8.16048 239.106 8.87923 238.476 9.40527C238.122 9.69694 237.653 9.90788 237.07 10.0381C237.554 10.1839 237.901 10.4105 238.109 10.7178C238.26 10.9313 238.474 11.3766 238.75 12.0537L240.109 15.4131H238.75L237.578 12.6396C237.354 12.1136 237.164 11.7126 237.007 11.4365C236.737 10.9678 236.385 10.6865 235.953 10.5928C235.682 10.5303 235.304 10.499 234.82 10.499H234.445V15.4131H233.164ZM234.445 9.44434H235.039C235.908 9.44434 236.567 9.34017 237.015 9.13184C237.713 8.80892 238.062 8.22298 238.062 7.37402C238.062 6.57194 237.763 6.01725 237.164 5.70996C236.763 5.50163 236.117 5.39746 235.226 5.39746H234.445V9.44434Z" fill="white"/>
</svg>
