<svg width="18" height="22" viewBox="0 0 18 22" fill="none" xmlns="http://www.w3.org/2000/svg">
<path d="M12.8244 12.6852L12.7704 12.6608C12.6416 12.6022 12.5119 12.5469 12.3796 12.4951C12.2353 12.4373 12.0889 12.3838 11.9403 12.3337C11.8231 12.2952 11.7049 12.2593 11.5855 12.2242C11.4035 12.1716 11.2198 12.124 11.0307 12.082C10.9665 12.0688 10.901 12.0559 10.8359 12.0443L10.7914 12.0357C10.6797 12.0139 10.5675 11.9946 10.4541 11.9779L10.4216 11.9728C10.4203 11.9728 10.4195 11.9719 10.4182 11.9719L10.3857 11.9677C10.2915 11.9535 10.1978 11.9403 10.1001 11.9292L9.76796 11.9018C9.35958 11.8748 8.93874 11.8757 8.53509 11.9052L8.41739 11.915L8.36257 11.9193L8.22516 11.9317C8.09887 11.945 7.97344 11.9625 7.84802 11.9827L7.81118 11.9878C7.72559 12.0019 7.63993 12.0178 7.5556 12.0336C7.46188 12.0503 7.36936 12.0687 7.27691 12.0888C7.098 12.1291 6.92028 12.1749 6.74823 12.225C6.61122 12.2643 6.476 12.3076 6.34884 12.3513L6.26065 12.383C5.99095 12.4784 5.72298 12.588 5.46354 12.7083L5.3942 12.7413L5.39294 12.743C2.35909 14.1951 0.40271 17.2889 0.40271 20.6459C0.40271 20.723 0.407839 20.7987 0.412568 20.8749L0.435282 21.4074H17.8993L17.9229 20.8809C17.928 20.803 17.9327 20.7255 17.9327 20.6459C17.9327 17.2353 15.9288 14.1141 12.8244 12.6852ZM1.25917 20.5513C1.29601 17.5371 3.07813 14.7721 5.79432 13.4985L5.88165 13.4643L5.8919 13.4544C6.10465 13.3573 6.32427 13.2687 6.54687 13.1903L6.61748 13.1651C6.73864 13.1231 6.85934 13.0846 6.98476 13.0491C7.14103 13.0032 7.30029 12.9621 7.45995 12.9262C7.54255 12.9087 7.62521 12.892 7.7104 12.8761C7.77801 12.8638 7.84522 12.8509 7.91329 12.8402L7.94666 12.8342C8.06909 12.8149 8.19199 12.7973 8.31441 12.7841L8.59437 12.7597C8.96079 12.7327 9.31142 12.7289 9.73605 12.7597L10.0083 12.7824C10.0755 12.7902 10.1427 12.7991 10.2245 12.8107L10.3225 12.8248C10.4249 12.8398 10.5272 12.8573 10.6299 12.8766L10.6778 12.8856C10.7357 12.8963 10.793 12.9075 10.8474 12.919C11.016 12.9558 11.1817 12.9994 11.3461 13.047C11.4548 13.0787 11.5627 13.1112 11.668 13.1463C11.8015 13.1908 11.9334 13.2392 12.064 13.291C12.1894 13.3402 12.3131 13.3929 12.4355 13.449L12.4569 13.4588C15.2348 14.7333 17.0387 17.5073 17.0755 20.5505H1.25917V20.5513ZM7.05164 10.8016C7.11585 10.8286 7.18219 10.8521 7.24853 10.8757L7.38768 10.9262C7.44117 10.9467 7.49512 10.9669 7.54994 10.984C8.06023 11.1445 8.59404 11.2271 9.13684 11.2314L9.18007 11.2323C9.36631 11.2323 9.55294 11.2224 9.73186 11.2041C9.79347 11.1981 9.85342 11.1882 9.91377 11.1779L10.0478 11.1578C10.1231 11.148 10.1985 11.1368 10.2773 11.1215C10.3312 11.1103 10.3834 11.0962 10.4356 11.0821L10.5821 11.0449C10.6544 11.0273 10.7267 11.0098 10.7983 10.9875C10.8428 10.9734 10.8865 10.9571 10.9297 10.9408L11.0474 10.8985C11.1313 10.8693 11.216 10.8394 11.3008 10.8039C11.3338 10.7897 11.3659 10.7744 11.3976 10.7589L11.4357 10.7401C11.5517 10.6882 11.6673 10.6351 11.782 10.5735L11.8564 10.529C11.9848 10.4562 12.1129 10.3809 12.2426 10.2923C12.3098 10.247 12.374 10.196 12.4373 10.1455L12.6565 9.97512C13.9168 8.93188 14.6412 7.40101 14.6412 5.81324L14.6437 5.76788C14.6437 2.75502 12.1925 0.304199 9.17967 0.304199C6.30381 0.304199 3.91121 2.55292 3.7327 5.42371L3.72797 5.49479C3.72111 5.58511 3.71558 5.67543 3.71558 5.76788C3.71472 7.96852 5.02425 9.94415 7.05164 10.8016ZM4.58157 5.55413L4.5867 5.47707C4.73737 3.05622 6.75449 1.16026 9.1792 1.16026C11.7203 1.16026 13.7871 3.22708 13.7893 5.72878L13.7867 5.77374C13.785 7.14449 13.1737 8.43518 12.1056 9.32175L11.9023 9.47675C11.8569 9.51358 11.8111 9.55035 11.7541 9.58978C11.6514 9.65959 11.5426 9.72247 11.4322 9.78502L11.371 9.82225C11.2785 9.87194 11.1813 9.91597 11.0803 9.96093L10.9669 10.0157C10.9018 10.0427 10.8333 10.0662 10.7656 10.0898L10.6244 10.1408C10.597 10.151 10.5691 10.1622 10.5422 10.1703C10.4895 10.1865 10.4356 10.199 10.382 10.2122L10.2112 10.2559C10.1744 10.2658 10.138 10.2761 10.1055 10.2829C10.0486 10.294 9.99037 10.3018 9.93262 10.3099L9.76996 10.3343C9.73059 10.3411 9.69116 10.348 9.64706 10.3523C9.50452 10.3672 9.36111 10.3754 9.21557 10.3766L9.17534 10.3762H9.17447C8.70574 10.3758 8.24554 10.306 7.80545 10.1682C7.76735 10.1562 7.73012 10.1412 7.69288 10.1271L7.53196 10.0685C7.48187 10.0509 7.43224 10.0338 7.38428 10.0137C5.67536 9.29091 4.57085 7.62388 4.57085 5.76815C4.57085 5.69581 4.57644 5.62474 4.58157 5.55413Z" fill="currentColor"></path>
</svg>