<svg width="25" height="17" viewBox="0 0 25 17" fill="#fff" xmlns="http://www.w3.org/2000/svg">
<mask id="path-1-inside-1" fill="currentColor">
<path fill-rule="evenodd" clip-rule="evenodd" d="M0.747559 0.630859H16.8399V14.446H15.9725V1.49833H1.61503V14.0122H3.11174V14.8797H0.747559V0.630859Z"></path>
</mask>
<path fill-rule="evenodd" clip-rule="evenodd" d="M0.747559 0.630859H16.8399V14.446H15.9725V1.49833H1.61503V14.0122H3.11174V14.8797H0.747559V0.630859Z" fill="currentColor"></path>
<path d="M0.747559 0.630859V-2.36914H-2.25244V0.630859H0.747559ZM16.8399 0.630859H19.8399V-2.36914H16.8399V0.630859ZM16.8399 14.446V17.446H19.8399V14.446H16.8399ZM15.9725 14.446H12.9725V17.446H15.9725V14.446ZM15.9725 1.49833H18.9725V-1.50167H15.9725V1.49833ZM1.61503 1.49833V-1.50167H-1.38497V1.49833H1.61503ZM1.61503 14.0122H-1.38497V17.0122H1.61503V14.0122ZM3.11174 14.0122H6.11174V11.0122H3.11174V14.0122ZM3.11174 14.8797V17.8797H6.11174V14.8797H3.11174ZM0.747559 14.8797H-2.25244V17.8797H0.747559V14.8797ZM15.9725 17.446H16.8399V11.446H15.9725V17.446ZM12.9725 1.49833V14.446H18.9725V1.49833H12.9725ZM1.61503 4.49833H15.9725V-1.50167H1.61503V4.49833ZM4.61503 14.0122V1.49833H-1.38497V14.0122H4.61503ZM3.11174 11.0122H1.61503V17.0122H3.11174V11.0122ZM6.11174 14.8797V14.0122H0.111735V14.8797H6.11174ZM16.8399 -2.36914H0.747559V3.63086H16.8399V-2.36914ZM19.8399 14.446V0.630859H13.8399V14.446H19.8399ZM0.747559 17.8797H3.11174V11.8797H0.747559V17.8797ZM-2.25244 0.630859V14.8797H3.74756V0.630859H-2.25244Z" fill="currentColor" mask="url(#path-1-inside-1)"></path>
<mask id="path-3-inside-2" fill="currentColor">
<path fill-rule="evenodd" clip-rule="evenodd" d="M5.27236 15.8442C6.1785 15.8442 6.91308 15.1097 6.91308 14.2035C6.91308 13.2974 6.1785 12.5628 5.27236 12.5628C4.36621 12.5628 3.63163 13.2974 3.63163 14.2035C3.63163 15.1097 4.36621 15.8442 5.27236 15.8442ZM5.27236 16.7117C6.65759 16.7117 7.78055 15.5887 7.78055 14.2035C7.78055 12.8183 6.65759 11.6953 5.27236 11.6953C3.88712 11.6953 2.76416 12.8183 2.76416 14.2035C2.76416 15.5887 3.88712 16.7117 5.27236 16.7117Z"></path>
</mask>
<path fill-rule="evenodd" clip-rule="evenodd" d="M5.27236 15.8442C6.1785 15.8442 6.91308 15.1097 6.91308 14.2035C6.91308 13.2974 6.1785 12.5628 5.27236 12.5628C4.36621 12.5628 3.63163 13.2974 3.63163 14.2035C3.63163 15.1097 4.36621 15.8442 5.27236 15.8442ZM5.27236 16.7117C6.65759 16.7117 7.78055 15.5887 7.78055 14.2035C7.78055 12.8183 6.65759 11.6953 5.27236 11.6953C3.88712 11.6953 2.76416 12.8183 2.76416 14.2035C2.76416 15.5887 3.88712 16.7117 5.27236 16.7117Z" fill="currentColor"></path>
<path d="M3.91308 14.2035C3.91308 13.4528 4.52165 12.8442 5.27236 12.8442V18.8442C7.83536 18.8442 9.91308 16.7665 9.91308 14.2035H3.91308ZM5.27236 15.5628C4.52165 15.5628 3.91308 14.9542 3.91308 14.2035H9.91308C9.91308 11.6405 7.83536 9.56278 5.27236 9.56278V15.5628ZM6.63163 14.2035C6.63163 14.9542 6.02306 15.5628 5.27236 15.5628V9.56278C2.70935 9.56278 0.63163 11.6405 0.63163 14.2035H6.63163ZM5.27236 12.8442C6.02306 12.8442 6.63163 13.4528 6.63163 14.2035H0.63163C0.63163 16.7665 2.70935 18.8442 5.27236 18.8442V12.8442ZM4.78055 14.2035C4.78055 13.9319 5.00074 13.7117 5.27236 13.7117V19.7117C8.31445 19.7117 10.7806 17.2456 10.7806 14.2035H4.78055ZM5.27236 14.6953C5.00074 14.6953 4.78055 14.4751 4.78055 14.2035H10.7806C10.7806 11.1614 8.31445 8.69531 5.27236 8.69531V14.6953ZM5.76416 14.2035C5.76416 14.4751 5.54397 14.6953 5.27236 14.6953V8.69531C2.23026 8.69531 -0.23584 11.1614 -0.23584 14.2035H5.76416ZM5.27236 13.7117C5.54397 13.7117 5.76416 13.9319 5.76416 14.2035H-0.23584C-0.23584 17.2456 2.23026 19.7117 5.27236 19.7117V13.7117Z" fill="currentColor" mask="url(#path-3-inside-2)"></path>
<mask id="path-5-inside-3" fill="currentColor">
<path fill-rule="evenodd" clip-rule="evenodd" d="M20.3214 15.8442C21.2276 15.8442 21.9622 15.1097 21.9622 14.2035C21.9622 13.2974 21.2276 12.5628 20.3214 12.5628C19.4153 12.5628 18.6807 13.2974 18.6807 14.2035C18.6807 15.1097 19.4153 15.8442 20.3214 15.8442ZM20.3214 16.7117C21.7067 16.7117 22.8296 15.5887 22.8296 14.2035C22.8296 12.8183 21.7067 11.6953 20.3214 11.6953C18.9362 11.6953 17.8132 12.8183 17.8132 14.2035C17.8132 15.5887 18.9362 16.7117 20.3214 16.7117Z"></path>
</mask>
<path fill-rule="evenodd" clip-rule="evenodd" d="M20.3214 15.8442C21.2276 15.8442 21.9622 15.1097 21.9622 14.2035C21.9622 13.2974 21.2276 12.5628 20.3214 12.5628C19.4153 12.5628 18.6807 13.2974 18.6807 14.2035C18.6807 15.1097 19.4153 15.8442 20.3214 15.8442ZM20.3214 16.7117C21.7067 16.7117 22.8296 15.5887 22.8296 14.2035C22.8296 12.8183 21.7067 11.6953 20.3214 11.6953C18.9362 11.6953 17.8132 12.8183 17.8132 14.2035C17.8132 15.5887 18.9362 16.7117 20.3214 16.7117Z" fill="currentColor"></path>
<path d="M18.9622 14.2035C18.9622 13.4528 19.5707 12.8442 20.3214 12.8442V18.8442C22.8844 18.8442 24.9622 16.7665 24.9622 14.2035H18.9622ZM20.3214 15.5628C19.5707 15.5628 18.9622 14.9542 18.9622 14.2035H24.9622C24.9622 11.6405 22.8844 9.56278 20.3214 9.56278V15.5628ZM21.6807 14.2035C21.6807 14.9542 21.0721 15.5628 20.3214 15.5628V9.56278C17.7584 9.56278 15.6807 11.6405 15.6807 14.2035H21.6807ZM20.3214 12.8442C21.0721 12.8442 21.6807 13.4528 21.6807 14.2035H15.6807C15.6807 16.7665 17.7584 18.8442 20.3214 18.8442V12.8442ZM19.8296 14.2035C19.8296 13.9319 20.0498 13.7117 20.3214 13.7117V19.7117C23.3635 19.7117 25.8296 17.2456 25.8296 14.2035H19.8296ZM20.3214 14.6953C20.0498 14.6953 19.8296 14.4751 19.8296 14.2035H25.8296C25.8296 11.1614 23.3635 8.69531 20.3214 8.69531V14.6953ZM20.8132 14.2035C20.8132 14.4751 20.593 14.6953 20.3214 14.6953V8.69531C17.2793 8.69531 14.8132 11.1614 14.8132 14.2035H20.8132ZM20.3214 13.7117C20.593 13.7117 20.8132 13.9319 20.8132 14.2035H14.8132C14.8132 17.2456 17.2793 19.7117 20.3214 19.7117V13.7117Z" fill="currentColor" mask="url(#path-5-inside-3)"></path>
<mask id="path-7-inside-4" fill="currentColor">
<path fill-rule="evenodd" clip-rule="evenodd" d="M19.7704 4.19193H16.6672V3.32446H20.1679L24.7475 8.63679V14.7059H22.6628V13.8384H23.88V8.95908L19.7704 4.19193Z"></path>
</mask>
<path fill-rule="evenodd" clip-rule="evenodd" d="M19.7704 4.19193H16.6672V3.32446H20.1679L24.7475 8.63679V14.7059H22.6628V13.8384H23.88V8.95908L19.7704 4.19193Z" fill="currentColor"></path>
<path d="M16.6672 4.19193H13.6672V7.19193H16.6672V4.19193ZM19.7704 4.19193L22.0426 2.23311L21.145 1.19193H19.7704V4.19193ZM16.6672 3.32446V0.324463H13.6672V3.32446H16.6672ZM20.1679 3.32446L22.4401 1.36564L21.5425 0.324463H20.1679V3.32446ZM24.7475 8.63679H27.7475V7.52218L27.0197 6.67796L24.7475 8.63679ZM24.7475 14.7059V17.7059H27.7475V14.7059H24.7475ZM22.6628 14.7059H19.6628V17.7059H22.6628V14.7059ZM22.6628 13.8384V10.8384H19.6628V13.8384H22.6628ZM23.88 13.8384V16.8384H26.88V13.8384H23.88ZM23.88 8.95908H26.88V7.84447L26.1522 7.00026L23.88 8.95908ZM16.6672 7.19193H19.7704V1.19193H16.6672V7.19193ZM13.6672 3.32446V4.19193H19.6672V3.32446H13.6672ZM19.6628 13.8384V14.7059H25.6628V13.8384H19.6628ZM23.88 10.8384H22.6628V16.8384H23.88V10.8384ZM20.88 8.95908V13.8384H26.88V8.95908H20.88ZM17.4982 6.15076L21.6078 10.9179L26.1522 7.00026L22.0426 2.23311L17.4982 6.15076ZM20.1679 0.324463H16.6672V6.32446H20.1679V0.324463ZM27.0197 6.67796L22.4401 1.36564L17.8956 5.28329L22.4753 10.5956L27.0197 6.67796ZM27.7475 14.7059V8.63679H21.7475V14.7059H27.7475ZM22.6628 17.7059H24.7475V11.7059H22.6628V17.7059Z" fill="currentColor" mask="url(#path-7-inside-4)"></path>
<mask id="path-9-inside-5" fill="currentColor">
<path fill-rule="evenodd" clip-rule="evenodd" d="M17.9703 14.706H7.54321V13.8385H17.9703V14.706Z"></path>
</mask>
<path fill-rule="evenodd" clip-rule="evenodd" d="M17.9703 14.706H7.54321V13.8385H17.9703V14.706Z" fill="currentColor"></path>
<path d="M7.54321 14.706H4.54321V17.706H7.54321V14.706ZM17.9703 14.706V17.706H20.9703V14.706H17.9703ZM7.54321 13.8385V10.8385H4.54321V13.8385H7.54321ZM17.9703 13.8385H20.9703V10.8385H17.9703V13.8385ZM7.54321 17.706H17.9703V11.706H7.54321V17.706ZM4.54321 13.8385V14.706H10.5432V13.8385H4.54321ZM17.9703 10.8385H7.54321V16.8385H17.9703V10.8385ZM20.9703 14.706V13.8385H14.9703V14.706H20.9703Z" fill="currentColor" mask="url(#path-9-inside-5)"></path>
</svg>