<svg width="101" height="58" viewBox="0 0 101 58" fill="none" xmlns="http://www.w3.org/2000/svg">
<path d="M3.77537 6.13963C3.04241 6.14526 2.33534 5.86917 1.80045 5.3685C1.26557 4.86782 0.943809 4.18088 0.901756 3.44981C0.901749 3.09625 0.971735 2.74619 1.10768 2.41976C1.24363 2.09333 1.44286 1.79699 1.69391 1.54779C1.94495 1.29859 2.24284 1.10146 2.57045 0.967734C2.89805 0.834009 3.24889 0.766336 3.60278 0.76861H26.98C30.2333 0.76861 33.8318 0.76861 36.6019 1.75143C40.0392 2.88493 43.097 4.9438 45.4386 7.70149C47.7802 10.4592 49.315 13.8088 49.874 17.3817C50.9095 24.2269 49.0628 30.1928 45.3004 34.3138C43.2501 36.5629 40.7264 38.3301 37.9108 39.4884C35.0952 40.6467 32.0576 41.1671 29.0166 41.0124C26.394 40.879 23.8237 40.2283 21.454 39.0979C19.0843 37.9674 16.962 36.3795 15.2094 34.4258C13.682 32.6671 6.19162 22.7872 6.19162 22.7872V38.1761C6.15271 38.862 5.85254 39.507 5.3527 39.9789C4.85286 40.4508 4.19123 40.7136 3.50354 40.7136C2.81585 40.7136 2.15423 40.4508 1.65439 39.9789C1.15454 39.507 0.854379 38.862 0.815462 38.1761V14.9936C0.802698 14.6461 0.860223 14.2995 0.984598 13.9747C1.10897 13.6499 1.29764 13.3535 1.53932 13.1032C1.781 12.8529 2.07073 12.6538 2.39117 12.518C2.71161 12.3821 3.05619 12.3122 3.4043 12.3124C4.62969 12.3124 5.30279 12.8728 6.79569 14.7436C6.79569 14.7436 13.1901 23.2872 14.5622 25.0115C16.4451 27.5352 18.4766 29.9447 20.646 32.2274C22.7084 34.2448 27.2389 36.2449 32.1404 35.6156C34.7207 35.2632 37.1606 34.2311 39.2095 32.625C41.2584 31.019 42.8424 28.897 43.7989 26.4771C45.7578 21.3043 45.8182 14.2694 38.0085 8.37252C35.7256 6.81616 33.0039 6.03067 30.242 6.131L3.77537 6.13963Z" fill="white"/>
<path d="M70.5244 40.8661C67.6283 40.9211 64.7541 40.3537 62.0966 39.2025C59.439 38.0512 57.0601 36.3429 55.1208 34.1933C51.2117 29.8826 49.6066 23.9254 50.599 17.3733C51.1538 13.8284 52.6755 10.5048 54.997 7.76733C57.3185 5.02982 60.3501 2.98422 63.7589 1.85509C66.598 0.932617 70.3432 0.932617 73.3031 0.932617H96.6804C97.3532 0.932617 97.9985 1.19966 98.4743 1.675C98.9501 2.15033 99.2174 2.79503 99.2174 3.46725C99.1633 4.13968 98.8583 4.76724 98.3628 5.22554C97.8673 5.68383 97.2175 5.93939 96.5423 5.94154H70.093C67.2891 5.83801 64.5256 6.63245 62.2056 8.20892C53.5761 14.7438 54.8188 22.477 56.3548 26.5031C57.3109 28.9557 58.9066 31.1078 60.9765 32.736C63.0464 34.3642 65.5148 35.4092 68.1254 35.7623C68.7525 35.8398 69.3835 35.8801 70.0153 35.883C73.5815 35.9194 77.0388 34.6567 79.7407 32.3311C81.9178 30.0444 83.9551 27.629 85.8417 25.0979C87.1534 23.3736 93.5047 14.9248 93.6083 14.83C95.1443 12.8989 95.7484 12.4592 96.8788 12.4592C97.2084 12.4578 97.5349 12.523 97.8385 12.651C98.1422 12.779 98.4168 12.967 98.6458 13.2039C98.8748 13.4407 99.0534 13.7213 99.1709 14.029C99.2884 14.3366 99.3424 14.6648 99.3296 14.9938V38.1763C99.3296 38.8485 99.0623 39.4932 98.5865 39.9685C98.1107 40.4438 97.4654 40.7109 96.7925 40.7109C96.1197 40.7109 95.4744 40.4438 94.9986 39.9685C94.5228 39.4932 94.2555 38.8485 94.2555 38.1763V22.3218L93.988 22.6753C93.9103 22.7788 86.489 32.5725 84.9961 34.3053C83.2523 36.2428 81.1425 37.8168 78.7877 38.9368C76.433 40.0569 73.8799 40.7008 71.2752 40.8316C71.0422 40.8661 70.7919 40.8661 70.5244 40.8661Z" fill="white"/>
<path d="M96.7149 1.06183C97.3481 1.0641 97.9548 1.31643 98.4026 1.76379C98.8504 2.21115 99.103 2.81725 99.1052 3.4499C99.0551 4.10092 98.7604 4.70891 98.2802 5.15185C97.8001 5.59479 97.17 5.8399 96.5164 5.83798H70.0929C67.2462 5.72209 64.4378 6.52629 62.0848 8.13122C53.3604 14.7264 54.6376 22.5373 56.1909 26.5806C57.1674 29.057 58.7888 31.2276 60.8872 32.8677C62.9855 34.5078 65.4845 35.5577 68.1254 35.9088C68.7604 35.9934 69.4006 36.0337 70.0412 36.0295C73.6467 36.0688 77.1423 34.7903 79.8701 32.4344C82.0492 30.1418 84.0921 27.7237 85.9884 25.1926C87.2829 23.4684 93.5651 15.1316 93.755 14.9247C95.2479 13.0367 95.8347 12.6143 96.9133 12.6143C97.2207 12.6163 97.5246 12.6801 97.8068 12.8017C98.0891 12.9234 98.344 13.1004 98.5565 13.3223C98.769 13.5442 98.9347 13.8065 99.0438 14.0936C99.1528 14.3807 99.2031 14.6868 99.1915 14.9937V38.1761C99.2111 38.5012 99.1639 38.8269 99.0529 39.1331C98.9418 39.4393 98.7692 39.7196 98.5457 39.9567C98.3223 40.1938 98.0526 40.3827 97.7533 40.5119C97.454 40.641 97.1315 40.7076 96.8055 40.7076C96.4795 40.7076 96.1569 40.641 95.8577 40.5119C95.5584 40.3827 95.2887 40.1938 95.0652 39.9567C94.8417 39.7196 94.6692 39.4393 94.5581 39.1331C94.447 38.8269 94.3999 38.5012 94.4194 38.1761V21.8993L93.893 22.589C93.8154 22.6924 86.394 32.4861 84.9184 34.219C83.5209 35.784 81.8734 37.1066 80.0427 38.133C77.3889 39.7068 74.3847 40.5956 71.3011 40.7194C71.0508 40.7194 70.7833 40.7194 70.533 40.7194C67.5116 40.7427 64.5208 40.1133 61.7655 38.8745C59.2631 37.7555 57.0209 36.1291 55.1812 34.0983C51.3066 29.8394 49.7015 23.908 50.6853 17.399C51.2422 13.8761 52.7627 10.5754 55.0788 7.86132C57.395 5.14724 60.4168 3.12533 63.8107 2.01878C66.6325 1.04459 70.3432 1.04459 73.3031 1.04459C74.6579 1.04459 96.456 1.04459 96.6804 1.04459L96.7149 1.06183ZM96.6804 0.751465L73.3031 0.768707C70.0498 0.768707 66.4513 0.768707 63.6812 1.75153C60.2503 2.89032 57.1998 4.95151 54.8646 7.70881C52.5294 10.4661 50.9997 13.8129 50.4436 17.3818C49.4081 24.227 51.2548 30.1929 55.0173 34.3138C56.979 36.4729 59.3795 38.1888 62.0581 39.347C64.7368 40.5051 67.632 41.0788 70.5503 41.0298C70.8006 41.0298 71.0681 41.0298 71.3183 41.0298C73.9409 40.8963 76.5112 40.2456 78.8809 39.1152C81.2506 37.9847 83.3729 36.3969 85.1255 34.4432C86.627 32.7189 94.1174 22.7959 94.1174 22.7959V38.1761C94.1174 38.8872 94.4002 39.5692 94.9035 40.072C95.4068 40.5749 96.0894 40.8573 96.8012 40.8573C97.513 40.8573 98.1956 40.5749 98.6989 40.072C99.2022 39.5692 99.4849 38.8872 99.4849 38.1761V14.9937C99.4977 14.6462 99.4402 14.2996 99.3158 13.9748C99.1914 13.65 99.0028 13.3536 98.7611 13.1033C98.5194 12.853 98.2297 12.6539 97.9092 12.5181C97.5888 12.3822 97.2442 12.3123 96.8961 12.3125C95.6707 12.3125 94.9976 12.8729 93.5047 14.7437C93.5047 14.7437 87.1103 23.2873 85.7382 25.0116C83.8553 27.5353 81.8237 29.9448 79.6544 32.2275C76.9801 34.5257 73.5599 35.773 70.0325 35.7363C69.4065 35.7324 68.7813 35.6921 68.1599 35.6156C65.5797 35.2633 63.1398 34.2312 61.0909 32.6251C59.042 31.0191 57.458 28.8971 56.5015 26.4772C54.5426 21.3044 54.4822 14.2695 62.2919 8.37262C64.5748 6.81626 67.2964 6.03076 70.0584 6.1311H96.4991C97.2289 6.13662 97.9328 5.86117 98.4647 5.3619C98.9966 4.86264 99.3156 4.17793 99.3555 3.4499C99.3556 2.74621 99.0788 2.07069 98.5848 1.56909C98.0907 1.06749 97.4191 0.780021 96.7149 0.768707L96.6804 0.751465Z" fill="white"/>
<path d="M0.815491 44.5039H3.55966C4.007 44.5059 4.45067 44.5847 4.87134 44.7367C5.27 44.8741 5.6266 45.1116 5.90688 45.4264C6.21211 45.7548 6.42886 46.1553 6.53683 46.5902C6.6684 47.1785 6.72638 47.7809 6.70942 48.3835C6.71788 48.8626 6.68322 49.3416 6.60587 49.8146C6.54354 50.2065 6.40265 50.5818 6.19165 50.9181C5.95127 51.3265 5.60557 51.6629 5.19063 51.8923C4.68216 52.1434 4.11742 52.2592 3.55103 52.2285H2.62768V57.1512H0.815491V44.5039ZM2.62768 50.487H3.49063C3.78709 50.4999 4.08251 50.4439 4.35357 50.3232C4.54754 50.2395 4.70835 50.094 4.81094 49.9094C4.9094 49.7013 4.96515 49.4756 4.9749 49.2456C4.9749 48.9783 4.9749 48.7024 4.9749 48.3835C4.9749 48.0645 4.9749 47.8058 4.9749 47.5213C4.96371 47.2832 4.9081 47.0493 4.81094 46.8316C4.72255 46.6408 4.57806 46.4814 4.39672 46.3747C4.13037 46.2397 3.83114 46.1829 3.53377 46.2109H2.62768V50.5215V50.487Z" fill="white"/>
<path d="M9.44468 44.5039H10.9635L13.7594 57.1081H11.9472L11.4295 54.4011H8.9528L8.41777 57.1081H6.59695L9.44468 44.5039ZM10.2127 48.1248L9.34976 52.6941H11.1619L10.2127 48.1248Z" fill="white"/>
<path d="M14.6225 44.5039H17.5393C19.6794 44.5039 20.7408 45.7367 20.7408 48.2024C20.7579 48.8497 20.6373 49.4932 20.387 50.0905C20.1337 50.6391 19.7017 51.0859 19.1616 51.3578L21.1205 57.1167H19.2393L17.5134 51.7457H16.452V57.1167H14.6225V44.5039ZM16.4347 50.1336H17.4703C17.7326 50.1458 17.9945 50.1017 18.2383 50.0042C18.4185 49.9228 18.5713 49.7911 18.6784 49.6249C18.7996 49.45 18.8874 49.2541 18.9373 49.0473C18.9561 48.7602 18.9561 48.4722 18.9373 48.1852C18.9638 47.8984 18.9638 47.6098 18.9373 47.323C18.9125 47.1013 18.8357 46.8886 18.7129 46.7023C18.5974 46.5302 18.4317 46.3977 18.2383 46.323C17.9841 46.2312 17.7144 46.1902 17.4444 46.2023H16.4865V50.1163L16.4347 50.1336Z" fill="white"/>
<path d="M22.251 44.5039H23.9769L26.3069 51.1767L28.6196 44.5039H30.3455V57.1081H28.5333V49.4525L26.7901 54.8752H25.8409L24.115 49.4525V57.1081H22.3028V44.5039H22.251Z" fill="white"/>
<path d="M32.1403 44.5039H33.9524V55.2977H37.5509V57.1081H32.1403V44.5039Z" fill="white"/>
<path d="M38.7159 44.5039H44.1265V46.2281H40.5108V49.9094H43.6347V51.6337H40.5108V55.3322H44.1093V57.1599H38.7159V44.5039Z" fill="white"/>
<path d="M47.0001 51.7802L44.5062 44.5039H46.4219L47.8803 49.5128L49.3387 44.5039H51.2544L48.795 51.7802V57.1081H46.9829V51.7802H47.0001Z" fill="white"/>
<path d="M55.3882 47.4782C55.3803 47.0188 55.4715 46.563 55.6557 46.1419C55.8223 45.7722 56.0631 45.4406 56.3634 45.1677C56.6522 44.9198 56.9822 44.7243 57.3385 44.5901C57.6869 44.4635 58.055 44.3992 58.4258 44.4005C58.7967 44.3981 59.165 44.4624 59.5131 44.5901C59.8727 44.7175 60.2039 44.9137 60.4883 45.1677C60.8044 45.4319 61.0554 45.7652 61.2218 46.1419C61.406 46.563 61.4972 47.0188 61.4893 47.4782V48.1076H59.6771V47.4782C59.6932 47.3009 59.6681 47.1223 59.6038 46.9563C59.5394 46.7903 59.4375 46.6414 59.306 46.5213C59.0611 46.3254 58.7568 46.2187 58.4431 46.2187C58.1294 46.2187 57.825 46.3254 57.5801 46.5213C57.4497 46.6422 57.3485 46.7912 57.2842 46.957C57.2199 47.1228 57.1942 47.301 57.2091 47.4782V54.1338C57.1907 54.3062 57.2105 54.4806 57.2672 54.6445C57.3239 54.8084 57.416 54.9578 57.537 55.0821C57.7767 55.288 58.0839 55.3985 58.3999 55.3925C58.7156 55.3962 59.022 55.286 59.2629 55.0821C59.3922 54.9567 59.4924 54.8044 59.5565 54.6361C59.6206 54.4678 59.6471 54.2875 59.6339 54.1079V51.763H58.2014V50.1767H61.4548V54.1338C61.4753 54.5965 61.3958 55.0581 61.2218 55.4873C61.0586 55.8541 60.8171 56.1807 60.5141 56.4443C60.2253 56.6922 59.8953 56.8877 59.539 57.0219C59.1906 57.1486 58.8225 57.2128 58.4517 57.2116C58.0808 57.2139 57.7125 57.1496 57.3644 57.0219C57.0048 56.8945 56.6736 56.6983 56.3893 56.4443C56.0863 56.1807 55.8448 55.8541 55.6816 55.4873C55.4958 55.0607 55.4045 54.599 55.4141 54.1338V47.4782H55.3882Z" fill="white"/>
<path d="M63.0768 44.5039H65.9936C68.1337 44.5039 69.1951 45.7367 69.1951 48.2024C69.2122 48.8497 69.0916 49.4932 68.8413 50.0905C68.5886 50.6395 68.1565 51.0864 67.6159 51.3578L69.5748 57.1167H67.6591L65.9332 51.7285H64.8804V57.1167H63.0682V44.5039H63.0768ZM64.889 50.1336H65.9246C66.1869 50.1458 66.4488 50.1017 66.6926 50.0042C66.8728 49.9228 67.0256 49.7911 67.1327 49.6249C67.2387 49.4384 67.3089 49.2337 67.3398 49.0214C67.3787 48.7357 67.3989 48.4477 67.4002 48.1593C67.4067 47.8707 67.3865 47.5821 67.3398 47.2972C67.3151 47.0755 67.2382 46.8628 67.1154 46.6765C67 46.5043 66.8343 46.3719 66.6408 46.2971C66.3866 46.2053 66.1169 46.1643 65.8469 46.1764H64.9063V50.0905L64.889 50.1336Z" fill="white"/>
<path d="M72.6557 44.5039H74.1658L76.9963 57.1081H75.1841L74.6577 54.4011H72.1897L71.6633 57.1081H69.8511L72.6557 44.5039ZM73.4237 48.1248L72.5607 52.6941H74.3729L73.4237 48.1248Z" fill="white"/>
<path d="M77.8937 44.5041H79.7059V49.9096H81.9323V44.4868H83.7445V57.1083H81.9323V51.5045H79.6886V57.1169H77.8764V44.5041H77.8937Z" fill="white"/>
<path d="M87.4898 44.5039H89.0086L91.8391 57.1081H90.0269L89.5005 54.4011H87.0152L86.4888 57.1081H84.6766L87.4898 44.5039ZM88.2579 48.1248L87.3949 52.6941H89.2071L88.2579 48.1248Z" fill="white"/>
<path d="M92.7193 44.5039H94.4452L96.7751 51.1767L99.0878 44.5039H100.814V57.1081H99.0016V49.4525L97.2066 54.8752H96.3437L94.5574 49.4439V57.0995H92.7452V44.5039H92.7193Z" fill="white"/>
</svg>
